<svg width="667" height="630" viewBox="0 0 667 630" fill="none" xmlns="http://www.w3.org/2000/svg">
<g clip-path="url(#clip0_364_1647)">
<path d="M482.712 439.008L520.151 354.706L577.148 328.985L666.015 368.453L609.64 495.377L482.712 439.008Z" fill="#F4F4F4"/>
<path opacity="0.05" d="M620.356 424.622L529.492 384.014C528.607 383.618 527.569 384.015 527.173 384.9L527.173 384.901C526.777 385.786 527.174 386.824 528.059 387.22L618.923 427.829C619.808 428.224 620.846 427.827 621.242 426.942L621.242 426.942C621.638 426.056 621.241 425.018 620.356 424.622Z" fill="#292A2E"/>
<path opacity="0.05" d="M612.721 442.849L521.858 402.24C520.973 401.845 519.935 402.242 519.539 403.127L519.539 403.127C519.143 404.013 519.54 405.051 520.425 405.446L611.288 446.055C612.174 446.451 613.212 446.054 613.607 445.169L613.608 445.168C614.003 444.283 613.606 443.245 612.721 442.849Z" fill="#292A2E"/>
<path opacity="0.05" d="M567.021 444.385L514.061 420.883C513.636 420.693 513.153 420.68 512.718 420.846C512.283 421.012 511.932 421.344 511.741 421.769V421.769C511.647 421.98 511.595 422.207 511.589 422.438C511.583 422.668 511.622 422.898 511.704 423.113C511.787 423.328 511.911 423.525 512.069 423.693C512.228 423.86 512.418 423.995 512.628 424.089L565.588 447.592C566.013 447.782 566.496 447.795 566.931 447.629C567.366 447.462 567.717 447.13 567.907 446.705V446.705C568.097 446.28 568.11 445.797 567.944 445.362C567.778 444.927 567.446 444.576 567.021 444.385V444.385Z" fill="#292A2E"/>
<path opacity="0.4" d="M577.148 328.985L558.734 371.796L520.151 354.706L577.148 328.985Z" fill="white"/>
<path d="M29.8438 232.19L9.06494 142.32L39.1392 87.4944L133.878 65.5921L165.156 200.904L29.8438 232.19Z" fill="#F4F4F4"/>
<path opacity="0.05" d="M131.172 137.926L34.1528 160.118C33.2076 160.334 32.6167 161.276 32.8329 162.221L32.833 162.221C33.0492 163.167 33.9907 163.758 34.9358 163.541L131.955 141.35C132.9 141.133 133.491 140.192 133.275 139.247L133.275 139.246C133.059 138.301 132.117 137.71 131.172 137.926Z" fill="#292A2E"/>
<path opacity="0.05" d="M136.032 157.08L39.0126 179.272C38.0675 179.488 37.4765 180.43 37.6927 181.375L37.6929 181.376C37.9091 182.321 38.8505 182.912 39.7957 182.696L136.815 160.504C137.76 160.288 138.351 159.346 138.135 158.401L138.135 158.4C137.918 157.455 136.977 156.864 136.032 157.08Z" fill="#292A2E"/>
<path opacity="0.05" d="M100.44 185.79L43.9926 198.859C43.5385 198.963 43.1441 199.243 42.8963 199.637C42.6484 200.032 42.5674 200.508 42.6709 200.962V200.962C42.7221 201.187 42.8172 201.4 42.9507 201.588C43.0841 201.776 43.2534 201.936 43.4488 202.059C43.6441 202.182 43.8618 202.265 44.0893 202.303C44.3168 202.342 44.5496 202.335 44.7745 202.284L101.222 189.215C101.676 189.111 102.07 188.831 102.318 188.436C102.566 188.042 102.647 187.565 102.543 187.111C102.439 186.657 102.159 186.263 101.765 186.015C101.371 185.767 100.894 185.686 100.44 185.79V185.79Z" fill="#292A2E"/>
<path opacity="0.4" d="M39.1392 87.4944L50.1696 132.774L9.06494 142.32L39.1392 87.4944Z" fill="white"/>
<path d="M480.934 507.687H101.324C96.2004 507.687 91.2866 505.652 87.6636 502.029C84.0405 498.406 82.0051 493.492 82.0049 488.368L95.2211 59.8438H512.736L500.254 488.368C500.254 490.905 499.755 493.418 498.784 495.762C497.813 498.106 496.39 500.235 494.595 502.029C492.801 503.823 490.671 505.246 488.327 506.217C485.983 507.188 483.471 507.688 480.934 507.687V507.687Z" fill="#292A2E"/>
<path opacity="0.9" d="M480.934 507.687H101.324C96.2004 507.687 91.2866 505.652 87.6636 502.029C84.0405 498.406 82.0051 493.492 82.0049 488.368L95.2211 59.8438H512.736L500.254 488.368C500.254 490.905 499.755 493.418 498.784 495.762C497.813 498.106 496.39 500.235 494.595 502.029C492.801 503.823 490.671 505.246 488.327 506.217C485.983 507.188 483.471 507.688 480.934 507.687V507.687Z" fill="white"/>
<path d="M480.934 508.421H101.324C96.0074 508.415 90.91 506.3 87.1504 502.541C83.3908 498.782 81.276 493.684 81.27 488.368L94.4862 59.1096H513.47L500.988 488.368C500.982 493.684 498.867 498.782 495.108 502.541C491.348 506.3 486.251 508.415 480.934 508.421V508.421ZM95.954 60.578L82.7378 488.368C82.7434 493.295 84.7035 498.019 88.1879 501.503C91.6724 504.988 96.3966 506.947 101.324 506.952H480.934C485.861 506.947 490.585 504.987 494.069 501.503C497.553 498.019 499.513 493.295 499.519 488.368L512.001 60.578H95.954Z" fill="#292A2E"/>
<path d="M494.884 17.3536H115.275C109.958 17.3595 104.86 19.4742 101.101 23.2338C97.3411 26.9934 95.2264 32.0909 95.2206 37.4078L94.4863 60.578H513.47L514.939 37.4078C514.933 32.0909 512.818 26.9934 509.058 23.2338C505.299 19.4742 500.201 17.3595 494.884 17.3536Z" fill="#0C0C0C"/>
<path d="M502.227 17.3536H118.211C112.894 17.3595 107.797 19.4742 104.037 23.2338C100.278 26.9934 98.1631 32.0909 98.1572 37.4078V60.578H522.281V37.4078C522.275 32.0909 520.16 26.9934 516.401 23.2338C512.641 19.4742 507.543 17.3595 502.227 17.3536V17.3536Z" fill="#292A2E"/>
<path d="M98.8906 59.8401H521.546V495.711C521.546 500.834 519.51 505.748 515.887 509.371C512.264 512.994 507.35 515.03 502.226 515.03H118.211C113.088 515.03 108.174 512.994 104.551 509.371C100.927 505.748 98.8921 500.834 98.8921 495.711V59.8401H98.8906Z" fill="white"/>
<path d="M502.227 515.763H118.211C112.895 515.757 107.797 513.643 104.038 509.883C100.278 506.124 98.1633 501.027 98.1572 495.71V59.1096H522.281V495.71C522.275 501.027 520.16 506.124 516.4 509.883C512.641 513.643 507.543 515.757 502.227 515.763V515.763ZM99.625 60.578V495.71C99.6306 500.637 101.591 505.362 105.075 508.846C108.56 512.33 113.284 514.29 118.211 514.295H502.227C507.154 514.289 511.878 512.329 515.362 508.845C518.846 505.361 520.806 500.637 520.811 495.71V60.578H99.625Z" fill="#292A2E"/>
<path d="M173.759 150.36H131.57C129.219 150.357 126.964 149.422 125.302 147.759C123.639 146.097 122.703 143.842 122.701 141.491V99.3016C122.703 96.9501 123.639 94.6958 125.302 93.0331C126.964 91.3704 129.219 90.4353 131.57 90.4327H173.759C176.11 90.4355 178.364 91.3707 180.027 93.0334C181.689 94.696 182.625 96.9502 182.627 99.3016V141.491C182.625 143.842 181.689 146.096 180.027 147.759C178.364 149.422 176.11 150.357 173.759 150.36V150.36ZM131.57 91.9012C129.608 91.9033 127.727 92.6837 126.34 94.071C124.952 95.4584 124.171 97.3395 124.169 99.3016V141.491C124.171 143.453 124.952 145.334 126.34 146.721C127.727 148.109 129.608 148.889 131.57 148.891H173.759C175.721 148.889 177.602 148.108 178.989 146.721C180.376 145.334 181.157 143.453 181.159 141.491V99.3016C181.157 97.3396 180.376 95.4586 178.989 94.0713C177.602 92.684 175.721 91.9035 173.759 91.9012H131.57Z" fill="#292A2E"/>
<path d="M173.759 233.943H131.57C129.219 233.941 126.964 233.006 125.302 231.343C123.639 229.68 122.703 227.426 122.701 225.075V182.886C122.703 180.534 123.638 178.279 125.3 176.616C126.963 174.952 129.218 174.016 131.57 174.014H173.759C176.11 174.016 178.364 174.952 180.027 176.615C181.69 178.277 182.625 180.532 182.627 182.883V225.072C182.626 227.423 181.691 229.678 180.028 231.342C178.365 233.005 176.11 233.941 173.759 233.943V233.943ZM131.57 175.482C129.608 175.484 127.727 176.265 126.339 177.652C124.952 179.04 124.171 180.921 124.169 182.883V225.072C124.171 227.034 124.952 228.915 126.34 230.302C127.727 231.69 129.608 232.47 131.57 232.472H173.759C175.721 232.47 177.602 231.689 178.989 230.302C180.377 228.915 181.157 227.034 181.159 225.072V182.886C181.158 180.924 180.378 179.042 178.99 177.654C177.603 176.265 175.721 175.484 173.759 175.482H131.57Z" fill="#292A2E"/>
<path d="M173.759 317.527H131.57C129.219 317.525 126.964 316.59 125.302 314.927C123.639 313.264 122.703 311.01 122.701 308.658V266.47C122.703 264.119 123.639 261.864 125.302 260.202C126.964 258.539 129.219 257.604 131.57 257.601H173.759C176.11 257.604 178.364 258.539 180.027 260.202C181.689 261.864 182.625 264.119 182.627 266.47V308.658C182.625 311.01 181.689 313.264 180.027 314.927C178.364 316.589 176.11 317.525 173.759 317.527V317.527ZM131.57 259.07C129.608 259.072 127.727 259.852 126.34 261.239C124.952 262.627 124.171 264.508 124.169 266.47V308.658C124.171 310.621 124.952 312.502 126.34 313.889C127.727 315.276 129.608 316.057 131.57 316.059H173.759C175.721 316.057 177.602 315.276 178.989 313.889C180.377 312.502 181.157 310.62 181.159 308.658V266.47C181.157 264.508 180.377 262.627 178.989 261.24C177.602 259.852 175.721 259.072 173.759 259.07H131.57Z" fill="#292A2E"/>
<path d="M173.759 399.963H131.57C129.219 399.96 126.964 399.025 125.302 397.362C123.639 395.7 122.703 393.445 122.701 391.094V348.908C122.703 346.557 123.639 344.302 125.302 342.64C126.964 340.977 129.219 340.042 131.57 340.039H173.759C176.11 340.042 178.364 340.977 180.027 342.64C181.69 344.302 182.625 346.557 182.627 348.908V391.097C182.624 393.448 181.688 395.701 180.026 397.363C178.363 399.025 176.109 399.96 173.759 399.963V399.963ZM131.57 341.504C129.608 341.506 127.727 342.287 126.339 343.674C124.952 345.062 124.171 346.943 124.169 348.905V391.094C124.171 393.056 124.952 394.937 126.34 396.324C127.727 397.712 129.608 398.492 131.57 398.494H173.759C175.721 398.492 177.602 397.711 178.989 396.324C180.376 394.937 181.157 393.056 181.159 391.094V348.908C181.157 346.946 180.377 345.065 178.989 343.677C177.602 342.29 175.721 341.509 173.759 341.507L131.57 341.504Z" fill="#292A2E"/>
<path d="M173.759 482.398H131.57C129.219 482.396 126.964 481.46 125.302 479.797C123.639 478.135 122.703 475.88 122.701 473.529V431.34C122.703 428.989 123.639 426.734 125.302 425.072C126.964 423.409 129.219 422.473 131.57 422.471H173.759C176.11 422.473 178.364 423.409 180.027 425.072C181.69 426.734 182.625 428.989 182.627 431.34V473.529C182.625 475.88 181.69 478.135 180.027 479.797C178.364 481.46 176.11 482.396 173.759 482.398ZM131.57 423.939C129.608 423.942 127.727 424.722 126.339 426.109C124.952 427.497 124.171 429.378 124.169 431.34V473.529C124.171 475.491 124.952 477.372 126.339 478.759C127.727 480.147 129.608 480.927 131.57 480.93H173.759C175.721 480.927 177.602 480.147 178.989 478.759C180.377 477.372 181.157 475.491 181.159 473.529V431.34C181.157 429.378 180.377 427.497 178.989 426.11C177.602 424.722 175.721 423.942 173.759 423.939H131.57Z" fill="#292A2E"/>
<path d="M145.158 137.275C144.399 137.276 143.669 136.982 143.123 136.455L130.826 124.633C130.544 124.367 130.317 124.048 130.159 123.693C130.001 123.339 129.915 122.957 129.905 122.569C129.896 122.181 129.963 121.795 130.104 121.433C130.244 121.072 130.455 120.741 130.724 120.462C130.993 120.182 131.315 119.958 131.67 119.803C132.026 119.649 132.409 119.566 132.797 119.56C133.185 119.555 133.571 119.626 133.931 119.77C134.291 119.914 134.619 120.128 134.897 120.399L145.108 130.214L170.709 104.388C170.979 104.109 171.302 103.887 171.659 103.734C172.016 103.581 172.4 103.5 172.788 103.497C173.176 103.493 173.561 103.566 173.921 103.712C174.281 103.858 174.608 104.074 174.883 104.347C175.159 104.621 175.378 104.946 175.527 105.304C175.677 105.663 175.753 106.047 175.753 106.435C175.753 106.824 175.676 107.208 175.526 107.566C175.376 107.924 175.157 108.249 174.881 108.522L147.249 136.405C146.975 136.681 146.65 136.901 146.291 137.05C145.932 137.199 145.546 137.276 145.158 137.275V137.275Z" fill="#367CFF"/>
<path d="M145.158 220.858C144.399 220.858 143.669 220.564 143.123 220.038L130.826 208.217C130.264 207.677 129.94 206.936 129.925 206.157C129.909 205.378 130.204 204.625 130.744 204.064C131.284 203.502 132.024 203.178 132.803 203.163C133.582 203.147 134.335 203.442 134.897 203.981L145.108 213.796L170.709 187.972C171.259 187.428 172.002 187.123 172.776 187.123C173.549 187.124 174.292 187.429 174.841 187.974C175.391 188.519 175.703 189.258 175.711 190.032C175.718 190.805 175.42 191.551 174.881 192.106L147.249 219.989C146.975 220.265 146.65 220.484 146.291 220.633C145.932 220.783 145.546 220.859 145.158 220.858Z" fill="#367CFF"/>
<path d="M145.158 304.442C144.399 304.443 143.669 304.15 143.123 303.623L130.826 291.802C130.264 291.262 129.94 290.521 129.925 289.742C129.909 288.964 130.204 288.211 130.744 287.649C131.284 287.087 132.024 286.763 132.803 286.748C133.582 286.732 134.335 287.027 134.897 287.567L145.108 297.381L170.709 271.555C171.259 271.011 172.002 270.706 172.776 270.707C173.549 270.707 174.292 271.013 174.841 271.558C175.391 272.102 175.703 272.842 175.711 273.616C175.718 274.389 175.42 275.135 174.881 275.69L147.249 303.572C146.975 303.849 146.65 304.068 146.291 304.218C145.932 304.367 145.546 304.443 145.158 304.442V304.442Z" fill="#367CFF"/>
<path opacity="0.5" d="M489.826 107.333H205.686C204.554 107.333 203.637 108.251 203.637 109.383C203.637 110.514 204.554 111.432 205.686 111.432H489.826C490.958 111.432 491.875 110.514 491.875 109.383C491.875 108.251 490.958 107.333 489.826 107.333Z" fill="#262626"/>
<path opacity="0.5" d="M372.348 129.36H205.686C204.554 129.36 203.637 130.278 203.637 131.41C203.637 132.541 204.554 133.459 205.686 133.459H372.348C373.48 133.459 374.398 132.541 374.398 131.41C374.398 130.278 373.48 129.36 372.348 129.36Z" fill="#262626"/>
<path opacity="0.5" d="M489.826 190.917H205.686C204.554 190.917 203.637 191.835 203.637 192.966C203.637 194.098 204.554 195.016 205.686 195.016H489.826C490.958 195.016 491.875 194.098 491.875 192.966C491.875 191.835 490.958 190.917 489.826 190.917Z" fill="#262626"/>
<path opacity="0.5" d="M372.348 212.944H205.686C204.554 212.944 203.637 213.862 203.637 214.994C203.637 216.125 204.554 217.043 205.686 217.043H372.348C373.48 217.043 374.398 216.125 374.398 214.994C374.398 213.862 373.48 212.944 372.348 212.944Z" fill="#262626"/>
<path opacity="0.5" d="M489.826 274.501H205.686C204.554 274.501 203.637 275.419 203.637 276.55C203.637 277.682 204.554 278.6 205.686 278.6H489.826C490.958 278.6 491.875 277.682 491.875 276.55C491.875 275.419 490.958 274.501 489.826 274.501Z" fill="#262626"/>
<path opacity="0.5" d="M372.348 296.528H205.686C204.554 296.528 203.637 297.446 203.637 298.577C203.637 299.709 204.554 300.627 205.686 300.627H372.348C373.48 300.627 374.398 299.709 374.398 298.577C374.398 297.446 373.48 296.528 372.348 296.528Z" fill="#262626"/>
<path opacity="0.5" d="M489.826 356.937H205.686C204.554 356.937 203.637 357.854 203.637 358.986C203.637 360.118 204.554 361.035 205.686 361.035H489.826C490.958 361.035 491.875 360.118 491.875 358.986C491.875 357.854 490.958 356.937 489.826 356.937Z" fill="#262626"/>
<path opacity="0.5" d="M372.348 378.964H205.686C204.554 378.964 203.637 379.881 203.637 381.013C203.637 382.145 204.554 383.062 205.686 383.062H372.348C373.48 383.062 374.398 382.145 374.398 381.013C374.398 379.881 373.48 378.964 372.348 378.964Z" fill="#262626"/>
<path opacity="0.5" d="M489.826 439.371H205.686C204.554 439.371 203.637 440.289 203.637 441.421C203.637 442.552 204.554 443.47 205.686 443.47H489.826C490.958 443.47 491.875 442.552 491.875 441.421C491.875 440.289 490.958 439.371 489.826 439.371Z" fill="#262626"/>
<path opacity="0.5" d="M372.348 461.398H205.686C204.554 461.398 203.637 462.316 203.637 463.448C203.637 464.579 204.554 465.497 205.686 465.497H372.348C373.48 465.497 374.398 464.579 374.398 463.448C374.398 462.316 373.48 461.398 372.348 461.398Z" fill="#262626"/>
<path d="M149.678 4.37845e-07C145.077 0.00524735 140.666 1.83526 137.413 5.08856C134.159 8.34186 132.329 12.7528 132.324 17.3536H133.793C133.792 14.3052 134.669 11.3211 136.318 8.75742C137.968 6.19372 140.32 4.1587 143.094 2.89525C145.868 1.6318 148.947 1.19328 151.964 1.63201C154.981 2.07075 157.807 3.36821 160.107 5.36956C162.406 7.37091 164.081 9.99162 164.932 12.9189C165.783 15.8462 165.773 18.9565 164.904 21.8785C164.036 24.8005 162.345 27.4108 160.033 29.398C157.721 31.3851 154.887 32.6652 151.867 33.0854C151.613 32.561 151.179 32.1451 150.645 31.9127C150.111 31.6803 149.511 31.6469 148.954 31.8185C148.397 31.99 147.92 32.3553 147.609 32.8481C147.298 33.3409 147.173 33.9288 147.258 34.5053C147.343 35.0819 147.631 35.609 148.071 35.9914C148.511 36.3737 149.073 36.5861 149.656 36.59C150.238 36.5939 150.803 36.3891 151.248 36.0127C151.693 35.6362 151.988 35.113 152.081 34.5377C156.433 33.9301 160.393 31.694 163.16 28.2807C165.928 24.8675 167.297 20.5314 166.992 16.1477C166.687 11.7641 164.73 7.65938 161.517 4.66231C158.303 1.66524 154.072 -0.000986116 149.678 4.37845e-07V4.37845e-07Z" fill="#F4F4F4"/>
<path d="M488.113 17.3536C488.113 12.7512 486.284 8.3372 483.03 5.08276C479.775 1.82832 475.361 0 470.759 0C466.156 0 461.742 1.82832 458.488 5.08276C455.234 8.3372 453.405 12.7512 453.405 17.3536H454.874C454.873 14.3052 455.75 11.3211 457.399 8.75742C459.049 6.19372 461.401 4.1587 464.175 2.89525C466.949 1.6318 470.029 1.19328 473.045 1.63201C476.062 2.07075 478.889 3.36821 481.188 5.36956C483.487 7.37091 485.162 9.99162 486.013 12.9189C486.864 15.8462 486.854 18.9565 485.985 21.8785C485.117 24.8005 483.426 27.4108 481.114 29.398C478.802 31.3851 475.968 32.6652 472.948 33.0854C472.694 32.561 472.26 32.1451 471.726 31.9127C471.192 31.6803 470.592 31.6469 470.035 31.8185C469.478 31.99 469.001 32.3553 468.69 32.8481C468.379 33.3409 468.254 33.9288 468.339 34.5053C468.424 35.0819 468.712 35.609 469.152 35.9914C469.592 36.3737 470.154 36.5861 470.737 36.59C471.32 36.5939 471.884 36.3891 472.329 36.0127C472.774 35.6362 473.07 35.113 473.162 34.5377C477.305 33.9532 481.099 31.8934 483.845 28.7366C486.592 25.5798 488.107 21.538 488.113 17.3536Z" fill="#F4F4F4"/>
<path d="M442.244 17.3536C442.214 12.7706 440.373 8.38548 437.122 5.15529C433.87 1.92509 429.473 0.112152 424.89 0.112152C420.307 0.112152 415.91 1.92509 412.659 5.15529C409.407 8.38548 407.566 12.7706 407.536 17.3536H409.005C409.004 14.305 409.881 11.3207 411.53 8.75672C413.179 6.19277 415.532 4.15753 418.306 2.89392C421.08 1.63031 424.16 1.19169 427.177 1.63042C430.194 2.06914 433.02 3.36668 435.32 5.36817C437.62 7.36966 439.295 9.99056 440.145 12.9181C440.996 15.8456 440.986 18.956 440.118 21.8782C439.249 24.8004 437.558 27.4109 435.246 29.3981C432.934 31.3853 430.099 32.6653 427.079 33.0854C426.825 32.561 426.391 32.1451 425.857 31.9127C425.323 31.6803 424.723 31.6469 424.166 31.8185C423.609 31.9901 423.132 32.3553 422.821 32.8481C422.51 33.3409 422.385 33.9288 422.47 34.5053C422.555 35.0819 422.843 35.609 423.283 35.9914C423.723 36.3737 424.285 36.5861 424.868 36.59C425.45 36.5939 426.015 36.3891 426.46 36.0127C426.905 35.6363 427.2 35.113 427.293 34.5377C431.436 33.9534 435.23 31.8936 437.976 28.7368C440.723 25.58 442.238 21.5381 442.244 17.3536Z" fill="#F4F4F4"/>
<path d="M396.375 17.3536C396.346 12.7706 394.504 8.38548 391.253 5.15529C388.002 1.92509 383.605 0.112152 379.021 0.112152C374.438 0.112152 370.041 1.92509 366.79 5.15529C363.539 8.38548 361.697 12.7706 361.667 17.3536H363.136C363.136 14.3052 364.012 11.321 365.661 8.75724C367.311 6.19344 369.663 4.15829 372.437 2.89466C375.211 1.63103 378.29 1.19228 381.307 1.63077C384.324 2.06927 387.151 3.36649 389.45 5.36763C391.75 7.36878 393.425 9.98932 394.276 12.9165C395.127 15.8438 395.118 18.954 394.25 21.8762C393.381 24.7984 391.691 27.409 389.379 29.3965C387.068 31.3841 384.234 32.6646 381.214 33.0854C380.96 32.561 380.526 32.1451 379.992 31.9127C379.458 31.6803 378.858 31.6469 378.301 31.8185C377.744 31.9901 377.267 32.3553 376.956 32.8481C376.645 33.3409 376.52 33.9288 376.605 34.5053C376.69 35.0819 376.978 35.609 377.418 35.9914C377.858 36.3737 378.42 36.5861 379.003 36.59C379.585 36.5939 380.15 36.3891 380.595 36.0127C381.04 35.6363 381.335 35.113 381.428 34.5377C385.571 33.9526 389.363 31.8925 392.109 28.7357C394.855 25.579 396.37 21.5375 396.375 17.3536V17.3536Z" fill="#F4F4F4"/>
<path d="M350.507 17.3536C350.507 12.7512 348.678 8.3372 345.424 5.08276C342.169 1.82832 337.755 0 333.153 0C328.55 0 324.137 1.82832 320.882 5.08276C317.628 8.3372 315.799 12.7512 315.799 17.3536H317.268C317.267 14.3052 318.144 11.3211 319.793 8.75742C321.443 6.19372 323.795 4.1587 326.569 2.89525C329.343 1.6318 332.423 1.19328 335.439 1.63201C338.456 2.07075 341.283 3.36821 343.582 5.36956C345.881 7.37091 347.556 9.99162 348.407 12.9189C349.258 15.8462 349.248 18.9565 348.38 21.8785C347.511 24.8005 345.82 27.4108 343.508 29.398C341.196 31.3851 338.362 32.6652 335.342 33.0854C335.088 32.5607 334.655 32.1443 334.12 31.9116C333.586 31.6788 332.986 31.645 332.429 31.8164C331.871 31.9877 331.394 32.3528 331.083 32.8456C330.771 33.3384 330.647 33.9264 330.731 34.5032C330.816 35.08 331.104 35.6074 331.544 35.9902C331.983 36.3729 332.546 36.5855 333.128 36.5897C333.711 36.5939 334.277 36.3892 334.722 36.0129C335.167 35.6365 335.463 35.1132 335.555 34.5377C339.699 33.9534 343.492 31.8936 346.239 28.7368C348.986 25.58 350.501 21.5381 350.507 17.3536V17.3536Z" fill="#F4F4F4"/>
<path d="M304.638 17.3536C304.608 12.7706 302.767 8.38548 299.516 5.15529C296.264 1.92509 291.867 0.112152 287.284 0.112152C282.701 0.112152 278.304 1.92509 275.053 5.15529C271.801 8.38548 269.96 12.7706 269.93 17.3536H271.399C271.398 14.305 272.275 11.3207 273.924 8.75672C275.573 6.19277 277.926 4.15753 280.7 2.89392C283.474 1.63031 286.554 1.19169 289.571 1.63042C292.588 2.06914 295.414 3.36668 297.714 5.36817C300.014 7.36966 301.689 9.99056 302.539 12.9181C303.39 15.8456 303.381 18.956 302.512 21.8782C301.643 24.8004 299.952 27.4109 297.64 29.3981C295.328 31.3853 292.493 32.6653 289.473 33.0854C289.219 32.561 288.785 32.1451 288.251 31.9127C287.717 31.6803 287.117 31.6469 286.56 31.8185C286.003 31.9901 285.526 32.3553 285.215 32.8481C284.904 33.3409 284.779 33.9288 284.864 34.5053C284.949 35.0819 285.237 35.609 285.677 35.9914C286.117 36.3737 286.679 36.5861 287.262 36.59C287.844 36.5939 288.409 36.3891 288.854 36.0127C289.299 35.6363 289.594 35.113 289.687 34.5377C293.83 33.9534 297.624 31.8936 300.371 28.7368C303.117 25.58 304.633 21.5381 304.638 17.3536V17.3536Z" fill="#F4F4F4"/>
<path d="M258.769 17.3536C258.769 12.7512 256.94 8.3372 253.686 5.08276C250.432 1.82832 246.018 0 241.415 0C236.813 0 232.399 1.82832 229.144 5.08276C225.89 8.3372 224.062 12.7512 224.062 17.3536H225.53C225.53 14.3052 226.406 11.3211 228.056 8.75742C229.705 6.19371 232.057 4.1587 234.831 2.89525C237.606 1.6318 240.685 1.19328 243.701 1.63201C246.718 2.07075 249.545 3.36821 251.844 5.36956C254.144 7.37091 255.819 9.99162 256.669 12.9189C257.52 15.8462 257.51 18.9565 256.642 21.8785C255.773 24.8005 254.082 27.4108 251.77 29.398C249.459 31.3851 246.624 32.6652 243.605 33.0854C243.351 32.5607 242.917 32.1443 242.383 31.9116C241.848 31.6788 241.248 31.645 240.691 31.8164C240.134 31.9877 239.656 32.3528 239.345 32.8456C239.033 33.3384 238.909 33.9264 238.993 34.5032C239.078 35.08 239.366 35.6074 239.806 35.9902C240.246 36.3729 240.808 36.5855 241.391 36.5897C241.974 36.5939 242.539 36.3892 242.984 36.0129C243.429 35.6365 243.725 35.1132 243.818 34.5377C247.961 33.9534 251.755 31.8936 254.501 28.7368C257.248 25.58 258.763 21.5381 258.769 17.3536V17.3536Z" fill="#F4F4F4"/>
<path d="M212.9 17.3536C212.871 12.7706 211.029 8.38548 207.778 5.15529C204.527 1.92509 200.13 0.112152 195.546 0.112152C190.963 0.112152 186.566 1.92509 183.315 5.15529C180.064 8.38548 178.222 12.7706 178.192 17.3536H179.661C179.66 14.305 180.537 11.3207 182.186 8.75672C183.836 6.19277 186.188 4.15753 188.962 2.89392C191.737 1.63031 194.816 1.19169 197.833 1.63042C200.85 2.06914 203.677 3.36668 205.976 5.36817C208.276 7.36966 209.951 9.99056 210.802 12.9181C211.652 15.8456 211.643 18.956 210.774 21.8782C209.905 24.8004 208.214 27.4109 205.902 29.3981C203.59 31.3853 200.755 32.6653 197.736 33.0854C197.481 32.561 197.048 32.1451 196.513 31.9127C195.979 31.6803 195.379 31.6469 194.822 31.8185C194.265 31.9901 193.788 32.3553 193.477 32.8481C193.166 33.3409 193.042 33.9288 193.126 34.5053C193.211 35.0819 193.5 35.609 193.939 35.9914C194.379 36.3737 194.941 36.5861 195.524 36.59C196.107 36.5939 196.672 36.3891 197.116 36.0127C197.561 35.6363 197.857 35.113 197.949 34.5377C202.093 33.9534 205.886 31.8936 208.633 28.7368C211.379 25.58 212.895 21.5381 212.9 17.3536Z" fill="#F4F4F4"/>
<g opacity="0.6">
<path d="M149.678 4.37845e-07C145.077 0.00524735 140.666 1.83526 137.413 5.08856C134.159 8.34186 132.329 12.7528 132.324 17.3536H133.793C133.792 14.3052 134.669 11.3211 136.318 8.75742C137.968 6.19372 140.32 4.1587 143.094 2.89525C145.868 1.6318 148.947 1.19328 151.964 1.63201C154.981 2.07075 157.807 3.36821 160.107 5.36956C162.406 7.37091 164.081 9.99162 164.932 12.9189C165.783 15.8462 165.773 18.9565 164.904 21.8785C164.036 24.8005 162.345 27.4108 160.033 29.398C157.721 31.3851 154.887 32.6652 151.867 33.0854C151.613 32.561 151.179 32.1451 150.645 31.9127C150.111 31.6803 149.511 31.6469 148.954 31.8185C148.397 31.99 147.92 32.3553 147.609 32.8481C147.298 33.3409 147.173 33.9288 147.258 34.5053C147.343 35.0819 147.631 35.609 148.071 35.9914C148.511 36.3737 149.073 36.5861 149.656 36.59C150.238 36.5939 150.803 36.3891 151.248 36.0127C151.693 35.6362 151.988 35.113 152.081 34.5377C156.433 33.9301 160.393 31.694 163.16 28.2807C165.928 24.8675 167.297 20.5314 166.992 16.1477C166.687 11.7641 164.73 7.65938 161.517 4.66231C158.303 1.66524 154.072 -0.000986116 149.678 4.37845e-07V4.37845e-07Z" fill="#292A2E"/>
<path d="M488.113 17.3536C488.113 12.7512 486.284 8.3372 483.03 5.08276C479.775 1.82832 475.361 0 470.759 0C466.156 0 461.742 1.82832 458.488 5.08276C455.234 8.3372 453.405 12.7512 453.405 17.3536H454.874C454.873 14.3052 455.75 11.3211 457.399 8.75742C459.049 6.19372 461.401 4.1587 464.175 2.89525C466.949 1.6318 470.029 1.19328 473.045 1.63201C476.062 2.07075 478.889 3.36821 481.188 5.36956C483.487 7.37091 485.162 9.99162 486.013 12.9189C486.864 15.8462 486.854 18.9565 485.985 21.8785C485.117 24.8005 483.426 27.4108 481.114 29.398C478.802 31.3851 475.968 32.6652 472.948 33.0854C472.694 32.561 472.26 32.1451 471.726 31.9127C471.192 31.6803 470.592 31.6469 470.035 31.8185C469.478 31.99 469.001 32.3553 468.69 32.8481C468.379 33.3409 468.254 33.9288 468.339 34.5053C468.424 35.0819 468.712 35.609 469.152 35.9914C469.592 36.3737 470.154 36.5861 470.737 36.59C471.32 36.5939 471.884 36.3891 472.329 36.0127C472.774 35.6362 473.07 35.113 473.162 34.5377C477.305 33.9532 481.099 31.8934 483.845 28.7366C486.592 25.5798 488.107 21.538 488.113 17.3536Z" fill="#292A2E"/>
<path d="M442.244 17.3536C442.214 12.7706 440.373 8.38548 437.122 5.15529C433.87 1.92509 429.473 0.112152 424.89 0.112152C420.307 0.112152 415.91 1.92509 412.659 5.15529C409.407 8.38548 407.566 12.7706 407.536 17.3536H409.005C409.004 14.305 409.881 11.3207 411.53 8.75672C413.179 6.19277 415.532 4.15753 418.306 2.89392C421.08 1.63031 424.16 1.19169 427.177 1.63042C430.194 2.06914 433.02 3.36668 435.32 5.36817C437.62 7.36966 439.295 9.99056 440.145 12.9181C440.996 15.8456 440.986 18.956 440.118 21.8782C439.249 24.8004 437.558 27.4109 435.246 29.3981C432.934 31.3853 430.099 32.6653 427.079 33.0854C426.825 32.561 426.391 32.1451 425.857 31.9127C425.323 31.6803 424.723 31.6469 424.166 31.8185C423.609 31.9901 423.132 32.3553 422.821 32.8481C422.51 33.3409 422.385 33.9288 422.47 34.5053C422.555 35.0819 422.843 35.609 423.283 35.9914C423.723 36.3737 424.285 36.5861 424.868 36.59C425.45 36.5939 426.015 36.3891 426.46 36.0127C426.905 35.6363 427.2 35.113 427.293 34.5377C431.436 33.9534 435.23 31.8936 437.976 28.7368C440.723 25.58 442.238 21.5381 442.244 17.3536Z" fill="#292A2E"/>
<path d="M396.375 17.3536C396.346 12.7706 394.504 8.38548 391.253 5.15529C388.002 1.92509 383.605 0.112152 379.021 0.112152C374.438 0.112152 370.041 1.92509 366.79 5.15529C363.539 8.38548 361.697 12.7706 361.667 17.3536H363.136C363.136 14.3052 364.012 11.321 365.661 8.75724C367.311 6.19344 369.663 4.15829 372.437 2.89466C375.211 1.63103 378.29 1.19228 381.307 1.63077C384.324 2.06927 387.151 3.36649 389.45 5.36763C391.75 7.36878 393.425 9.98932 394.276 12.9165C395.127 15.8438 395.118 18.954 394.25 21.8762C393.381 24.7984 391.691 27.409 389.379 29.3965C387.068 31.3841 384.234 32.6646 381.214 33.0854C380.96 32.561 380.526 32.1451 379.992 31.9127C379.458 31.6803 378.858 31.6469 378.301 31.8185C377.744 31.9901 377.267 32.3553 376.956 32.8481C376.645 33.3409 376.52 33.9288 376.605 34.5053C376.69 35.0819 376.978 35.609 377.418 35.9914C377.858 36.3737 378.42 36.5861 379.003 36.59C379.585 36.5939 380.15 36.3891 380.595 36.0127C381.04 35.6363 381.335 35.113 381.428 34.5377C385.571 33.9526 389.363 31.8925 392.109 28.7357C394.855 25.579 396.37 21.5375 396.375 17.3536V17.3536Z" fill="#292A2E"/>
<path d="M350.507 17.3536C350.507 12.7512 348.678 8.3372 345.424 5.08276C342.169 1.82832 337.755 0 333.153 0C328.55 0 324.137 1.82832 320.882 5.08276C317.628 8.3372 315.799 12.7512 315.799 17.3536H317.268C317.267 14.3052 318.144 11.3211 319.793 8.75742C321.443 6.19372 323.795 4.1587 326.569 2.89525C329.343 1.6318 332.423 1.19328 335.439 1.63201C338.456 2.07075 341.283 3.36821 343.582 5.36956C345.881 7.37091 347.556 9.99162 348.407 12.9189C349.258 15.8462 349.248 18.9565 348.38 21.8785C347.511 24.8005 345.82 27.4108 343.508 29.398C341.196 31.3851 338.362 32.6652 335.342 33.0854C335.088 32.5607 334.655 32.1443 334.12 31.9116C333.586 31.6788 332.986 31.645 332.429 31.8164C331.871 31.9877 331.394 32.3528 331.083 32.8456C330.771 33.3384 330.647 33.9264 330.731 34.5032C330.816 35.08 331.104 35.6074 331.544 35.9902C331.983 36.3729 332.546 36.5855 333.128 36.5897C333.711 36.5939 334.277 36.3892 334.722 36.0129C335.167 35.6365 335.463 35.1132 335.555 34.5377C339.699 33.9534 343.492 31.8936 346.239 28.7368C348.986 25.58 350.501 21.5381 350.507 17.3536V17.3536Z" fill="#292A2E"/>
<path d="M304.638 17.3536C304.608 12.7706 302.767 8.38548 299.516 5.15529C296.264 1.92509 291.867 0.112152 287.284 0.112152C282.701 0.112152 278.304 1.92509 275.053 5.15529C271.801 8.38548 269.96 12.7706 269.93 17.3536H271.399C271.398 14.305 272.275 11.3207 273.924 8.75672C275.573 6.19277 277.926 4.15753 280.7 2.89392C283.474 1.63031 286.554 1.19169 289.571 1.63042C292.588 2.06914 295.414 3.36668 297.714 5.36817C300.014 7.36966 301.689 9.99056 302.539 12.9181C303.39 15.8456 303.381 18.956 302.512 21.8782C301.643 24.8004 299.952 27.4109 297.64 29.3981C295.328 31.3853 292.493 32.6653 289.473 33.0854C289.219 32.561 288.785 32.1451 288.251 31.9127C287.717 31.6803 287.117 31.6469 286.56 31.8185C286.003 31.9901 285.526 32.3553 285.215 32.8481C284.904 33.3409 284.779 33.9288 284.864 34.5053C284.949 35.0819 285.237 35.609 285.677 35.9914C286.117 36.3737 286.679 36.5861 287.262 36.59C287.844 36.5939 288.409 36.3891 288.854 36.0127C289.299 35.6363 289.594 35.113 289.687 34.5377C293.83 33.9534 297.624 31.8936 300.371 28.7368C303.117 25.58 304.633 21.5381 304.638 17.3536V17.3536Z" fill="#292A2E"/>
<path d="M258.769 17.3536C258.769 12.7512 256.94 8.3372 253.686 5.08276C250.432 1.82832 246.018 0 241.415 0C236.813 0 232.399 1.82832 229.144 5.08276C225.89 8.3372 224.062 12.7512 224.062 17.3536H225.53C225.53 14.3052 226.406 11.3211 228.056 8.75742C229.705 6.19371 232.057 4.1587 234.831 2.89525C237.606 1.6318 240.685 1.19328 243.701 1.63201C246.718 2.07075 249.545 3.36821 251.844 5.36956C254.144 7.37091 255.819 9.99162 256.669 12.9189C257.52 15.8462 257.51 18.9565 256.642 21.8785C255.773 24.8005 254.082 27.4108 251.77 29.398C249.459 31.3851 246.624 32.6652 243.605 33.0854C243.351 32.5607 242.917 32.1443 242.383 31.9116C241.848 31.6788 241.248 31.645 240.691 31.8164C240.134 31.9877 239.656 32.3528 239.345 32.8456C239.033 33.3384 238.909 33.9264 238.993 34.5032C239.078 35.08 239.366 35.6074 239.806 35.9902C240.246 36.3729 240.808 36.5855 241.391 36.5897C241.974 36.5939 242.539 36.3892 242.984 36.0129C243.429 35.6365 243.725 35.1132 243.818 34.5377C247.961 33.9534 251.755 31.8936 254.501 28.7368C257.248 25.58 258.763 21.5381 258.769 17.3536V17.3536Z" fill="#292A2E"/>
<path d="M212.9 17.3536C212.871 12.7706 211.029 8.38548 207.778 5.15529C204.527 1.92509 200.13 0.112152 195.546 0.112152C190.963 0.112152 186.566 1.92509 183.315 5.15529C180.064 8.38548 178.222 12.7706 178.192 17.3536H179.661C179.66 14.305 180.537 11.3207 182.186 8.75672C183.836 6.19277 186.188 4.15753 188.962 2.89392C191.737 1.63031 194.816 1.19169 197.833 1.63042C200.85 2.06914 203.677 3.36668 205.976 5.36817C208.276 7.36966 209.951 9.99056 210.802 12.9181C211.652 15.8456 211.643 18.956 210.774 21.8782C209.905 24.8004 208.214 27.4109 205.902 29.3981C203.59 31.3853 200.755 32.6653 197.736 33.0854C197.481 32.561 197.048 32.1451 196.513 31.9127C195.979 31.6803 195.379 31.6469 194.822 31.8185C194.265 31.9901 193.788 32.3553 193.477 32.8481C193.166 33.3409 193.042 33.9288 193.126 34.5053C193.211 35.0819 193.5 35.609 193.939 35.9914C194.379 36.3737 194.941 36.5861 195.524 36.59C196.107 36.5939 196.672 36.3891 197.116 36.0127C197.561 35.6363 197.857 35.113 197.949 34.5377C202.093 33.9534 205.886 31.8936 208.633 28.7368C211.379 25.58 212.895 21.5381 212.9 17.3536Z" fill="#292A2E"/>
</g>
<path d="M55.6549 532.173C55.5584 532.174 55.4629 532.155 55.3738 532.118C55.2847 532.081 55.2038 532.027 55.1358 531.958C54.1013 530.925 52.4147 511.945 47.8727 455.434C46.0144 432.312 44.2588 410.471 42.9776 397.198C42.8866 396.25 42.5187 396.14 42.3983 396.104C40.6442 395.575 35.3114 399.78 32.3341 403.463C32.2735 403.538 32.1986 403.6 32.1139 403.646C32.0292 403.692 31.9362 403.721 31.8403 403.731C31.7443 403.742 31.6473 403.733 31.5548 403.706C31.4623 403.678 31.3761 403.633 31.3011 403.572C31.226 403.512 31.1637 403.437 31.1176 403.352C31.0715 403.267 31.0426 403.174 31.0324 403.078C31.0222 402.982 31.0311 402.885 31.0584 402.793C31.0857 402.7 31.131 402.614 31.1917 402.539C33.1609 400.104 39.5781 393.722 42.8205 394.698C43.4739 394.894 44.2853 395.463 44.4358 397.057C45.7178 410.342 47.4741 432.188 49.3331 455.317C52.0931 489.657 55.2195 528.561 56.2474 531.011C56.326 531.121 56.3729 531.25 56.383 531.384C56.3932 531.518 56.3662 531.653 56.305 531.773C56.2438 531.893 56.1508 531.994 56.0362 532.064C55.9215 532.135 55.7896 532.173 55.6549 532.173Z" fill="#494949"/>
<path d="M41.092 421.552C53.2757 411.786 57.3139 396.584 50.1115 387.599C42.9092 378.614 27.1936 379.247 15.0098 389.013C2.8261 398.78 -1.21209 413.981 5.9903 422.966C13.1927 431.951 28.9082 431.318 41.092 421.552Z" fill="#0CBC8B"/>
<path opacity="0.2" d="M41.092 421.552C53.2757 411.786 57.3139 396.584 50.1115 387.599C42.9092 378.614 27.1936 379.247 15.0098 389.013C2.8261 398.78 -1.21209 413.981 5.9903 422.966C13.1927 431.951 28.9082 431.318 41.092 421.552Z" fill="white"/>
<path d="M9.40571 425.25C9.32011 425.25 9.23712 425.22 9.17149 425.165C9.09738 425.103 9.05073 425.015 9.04166 424.918C9.03259 424.822 9.06183 424.726 9.12303 424.651L43.8457 382.779C43.8765 382.742 43.9144 382.711 43.957 382.688C43.9997 382.666 44.0464 382.652 44.0944 382.648C44.1424 382.643 44.1909 382.648 44.237 382.662C44.2831 382.677 44.3259 382.7 44.363 382.731C44.4001 382.761 44.4308 382.799 44.4533 382.842C44.4758 382.885 44.4897 382.931 44.4942 382.979C44.4986 383.027 44.4936 383.076 44.4793 383.122C44.4651 383.168 44.4419 383.211 44.4111 383.248L9.69206 425.118C9.65715 425.16 9.61333 425.193 9.5638 425.216C9.51427 425.239 9.46026 425.25 9.40571 425.25V425.25Z" fill="white"/>
<path d="M63.2276 523.194C63.1105 523.194 62.995 523.166 62.8909 523.112C62.7868 523.058 62.6971 522.98 62.6293 522.885C62.5614 522.789 62.5174 522.679 62.501 522.563C62.4845 522.447 62.496 522.329 62.5345 522.218L75.5775 484.708C75.9615 483.606 76.6159 482.618 77.4807 481.834C78.3456 481.051 79.3932 480.497 80.5276 480.223C81.662 479.949 82.8471 479.964 83.9741 480.267C85.1012 480.57 86.1342 481.151 86.9787 481.956L93.8746 488.543C94.0155 488.678 94.0972 488.863 94.1016 489.057C94.1061 489.252 94.033 489.441 93.8985 489.582C93.7639 489.723 93.5789 489.804 93.3841 489.809C93.1894 489.813 93.0008 489.74 92.8599 489.605L85.9647 483.018C85.298 482.382 84.4824 481.923 83.5927 481.684C82.7029 481.445 81.7673 481.433 80.8717 481.65C79.9761 481.866 79.149 482.303 78.4663 482.922C77.7835 483.54 77.2669 484.32 76.9637 485.191L63.9215 522.702C63.8712 522.846 63.7774 522.97 63.6531 523.059C63.5287 523.147 63.38 523.194 63.2276 523.194Z" fill="#494949"/>
<path d="M113.138 509.309C122.167 502.162 121.631 486.443 111.939 474.199C102.248 461.956 87.0721 457.824 78.0428 464.971C69.0135 472.118 69.5501 487.838 79.2414 500.081C88.9326 512.325 104.109 516.456 113.138 509.309Z" fill="#0CBC8B"/>
<path d="M49.7297 529.778C49.5647 529.778 49.4045 529.723 49.2751 529.62C49.1456 529.518 49.0543 529.375 49.016 529.215L27.1278 437.696C26.978 437.072 26.6592 436.502 26.2065 436.048C25.7537 435.593 25.1844 435.273 24.5613 435.121C23.9381 434.969 23.2852 434.992 22.6742 435.187C22.0633 435.382 21.518 435.742 21.0982 436.227L14.3506 444.025C14.2878 444.099 14.211 444.16 14.1246 444.204C14.0382 444.248 13.9439 444.274 13.8471 444.282C13.7504 444.289 13.6531 444.277 13.561 444.247C13.4689 444.217 13.3836 444.168 13.3103 444.105C13.2369 444.041 13.1769 443.964 13.1337 443.877C13.0904 443.79 13.0648 443.696 13.0583 443.599C13.0518 443.502 13.0645 443.405 13.0958 443.313C13.1271 443.221 13.1762 443.136 13.2404 443.064L19.9873 435.267C20.584 434.577 21.3593 434.066 22.2279 433.789C23.0966 433.511 24.0249 433.479 24.9107 433.695C25.7965 433.911 26.6056 434.367 27.2488 435.014C27.8921 435.66 28.3446 436.471 28.5566 437.358L50.4419 528.873C50.4872 529.062 50.4554 529.262 50.3535 529.428C50.2516 529.594 50.088 529.713 49.8986 529.758C49.8433 529.771 49.7866 529.778 49.7297 529.778V529.778Z" fill="#494949"/>
<path d="M41.6536 464.355C44.3143 448.969 37.2726 434.905 25.9254 432.943C14.5783 430.98 3.2226 441.863 0.561854 457.249C-2.0989 472.636 4.94284 486.7 16.29 488.662C27.6372 490.624 38.9928 479.742 41.6536 464.355Z" fill="#0CBC8B"/>
<path d="M55.6548 532.173C55.6246 532.174 55.5944 532.172 55.5645 532.168C55.4687 532.157 55.3762 532.126 55.2922 532.079C55.2082 532.031 55.1344 531.968 55.075 531.892C55.0157 531.816 54.9718 531.728 54.9461 531.636C54.9203 531.543 54.9131 531.445 54.925 531.35L68.9026 417.865C69.0549 416.629 69.561 415.463 70.3601 414.507C71.1591 413.552 72.2171 412.847 73.4069 412.479C74.5966 412.11 75.8675 412.093 77.0668 412.429C78.2661 412.766 79.3427 413.441 80.1672 414.375L96.1427 432.469C96.2065 432.541 96.2555 432.625 96.2868 432.716C96.3181 432.808 96.3311 432.904 96.3251 433.001C96.3191 433.097 96.2942 433.191 96.2518 433.278C96.2094 433.364 96.1504 433.442 96.0781 433.506C96.0058 433.569 95.9216 433.618 95.8304 433.65C95.7391 433.681 95.6426 433.694 95.5463 433.688C95.4501 433.682 95.3559 433.657 95.2693 433.615C95.1826 433.572 95.1052 433.513 95.0413 433.441L79.0659 415.347C78.4287 414.626 77.5967 414.103 76.6698 413.843C75.7429 413.583 74.7607 413.596 73.8411 413.881C72.9216 414.166 72.1039 414.71 71.4863 415.449C70.8688 416.187 70.4777 417.089 70.36 418.044L56.3831 531.525C56.3621 531.704 56.2764 531.868 56.1421 531.988C56.0079 532.107 55.8345 532.173 55.6548 532.173V532.173Z" fill="#494949"/>
<path d="M112.528 442.524C118.102 432.447 111.544 418.151 97.8799 410.593C84.2161 403.035 68.6209 405.077 63.047 415.153C57.4731 425.23 64.0313 439.526 77.695 447.084C91.3588 454.642 106.954 452.6 112.528 442.524Z" fill="#0CBC8B"/>
<path opacity="0.2" d="M113.138 509.309C122.167 502.162 121.631 486.443 111.939 474.199C102.248 461.956 87.0721 457.824 78.0428 464.971C69.0135 472.118 69.5501 487.838 79.2414 500.081C88.9326 512.325 104.109 516.456 113.138 509.309Z" fill="white"/>
<path opacity="0.5" d="M41.6536 464.355C44.3143 448.969 37.2726 434.905 25.9254 432.943C14.5783 430.98 3.2226 441.863 0.561854 457.249C-2.0989 472.636 4.94284 486.7 16.29 488.662C27.6372 490.624 38.9928 479.742 41.6536 464.355Z" fill="white"/>
<path opacity="0.5" d="M112.528 442.524C118.102 432.447 111.544 418.151 97.8799 410.593C84.2161 403.035 68.6209 405.077 63.047 415.153C57.4731 425.23 64.0313 439.526 77.695 447.084C91.3588 454.642 106.954 452.6 112.528 442.524Z" fill="white"/>
<path d="M73.5321 628.459H37.7771L31.8525 514.062H79.4567L73.5321 628.459Z" fill="#292A2E"/>
<path opacity="0.3" d="M73.5321 628.459H37.7771L31.8525 514.062H79.4567L73.5321 628.459Z" fill="white"/>
<path d="M113.14 509.674C113.085 509.674 113.03 509.662 112.98 509.638C112.931 509.613 112.887 509.578 112.853 509.535L77.7561 465.197C77.7262 465.159 77.704 465.116 77.6908 465.07C77.6776 465.023 77.6736 464.975 77.6792 464.927C77.6848 464.879 77.6997 464.833 77.7232 464.791C77.7466 464.749 77.7782 464.711 77.8159 464.681C77.8537 464.652 77.8971 464.629 77.9435 464.616C77.9898 464.603 78.0383 464.599 78.0862 464.605C78.1341 464.61 78.1805 464.625 78.2226 464.649C78.2647 464.672 78.3018 464.704 78.3317 464.741L113.428 509.079C113.471 509.133 113.498 509.198 113.506 509.267C113.513 509.335 113.501 509.405 113.471 509.467C113.441 509.529 113.394 509.582 113.336 509.618C113.277 509.655 113.209 509.674 113.14 509.674V509.674Z" fill="white"/>
<path d="M110.194 446.076C110.115 446.076 110.037 446.051 109.974 446.003L65.0672 413.213C65.0282 413.185 64.9953 413.149 64.9702 413.108C64.9451 413.067 64.9283 413.021 64.9209 412.973C64.9135 412.926 64.9155 412.877 64.9269 412.83C64.9382 412.783 64.9587 412.739 64.9872 412.7C65.0156 412.661 65.0514 412.628 65.0926 412.603C65.1338 412.578 65.1795 412.561 65.2272 412.554C65.2749 412.547 65.3235 412.549 65.3704 412.56C65.4173 412.571 65.4614 412.592 65.5004 412.62L110.411 445.413C110.472 445.459 110.517 445.524 110.541 445.597C110.564 445.67 110.563 445.748 110.539 445.821C110.515 445.894 110.469 445.958 110.407 446.003C110.345 446.049 110.271 446.073 110.194 446.074V446.076Z" fill="white"/>
<path d="M14.4642 488.184C14.4323 488.184 14.4004 488.18 14.3695 488.171C14.2755 488.146 14.1952 488.085 14.1465 488.001C14.0978 487.916 14.0845 487.816 14.1096 487.722L28.4059 434.158C28.433 434.066 28.4949 433.988 28.5782 433.942C28.6616 433.895 28.7599 433.882 28.8522 433.907C28.9446 433.932 29.0237 433.991 29.0728 434.073C29.1219 434.155 29.1371 434.253 29.1151 434.346L14.8225 487.912C14.8015 487.99 14.7549 488.06 14.69 488.109C14.6251 488.158 14.5457 488.185 14.4642 488.184V488.184Z" fill="white"/>
<path d="M618.472 217.93L620.536 216.229C621.185 215.672 621.599 214.889 621.693 214.039C621.787 213.189 621.555 212.334 621.044 211.648C620.768 211.304 620.424 211.019 620.034 210.811C619.644 210.603 619.216 210.477 618.776 210.441C618.336 210.404 617.893 210.458 617.474 210.598C617.055 210.738 616.669 210.963 616.339 211.257L591.838 233.007L598.611 241.036C600.715 243.53 603.515 245.338 606.653 246.229C609.792 247.121 613.124 247.055 616.225 246.04L630.26 241.418C630.995 241.192 631.628 240.719 632.054 240.08C632.479 239.44 632.671 238.673 632.596 237.909C632.404 236.403 618.472 217.93 618.472 217.93Z" fill="#E98862"/>
<path d="M603.827 218.098L536.238 239.041L495.021 169.221L459.809 189.811L511.768 273.783L512.098 274.203C514.822 277.582 518.532 280.028 522.711 281.199C526.891 282.37 531.332 282.209 535.415 280.738L615.981 251.555L603.827 218.098Z" fill="#367CFF"/>
<path d="M645.077 585.522L588.724 588.171L566.989 218.181L623.343 215.533L645.077 585.522Z" fill="#367CFF"/>
<path opacity="0.5" d="M645.077 585.522L588.724 588.171L566.989 218.181L623.343 215.533L645.077 585.522Z" fill="white"/>
<path d="M621.427 174.764L565.075 177.413L566.991 218.177L623.343 215.528L621.427 174.764Z" fill="#262626"/>
<path d="M645.079 585.521C645.079 585.521 637.347 598.948 630.378 610.953C624.851 620.475 619.805 629.103 619.48 629.426C619.145 629.76 612.846 621.384 606.036 612.098C597.759 600.813 588.723 588.172 588.723 588.172L645.079 585.521Z" fill="#367CFF"/>
<path opacity="0.9" d="M645.079 585.521C645.079 585.521 637.347 598.948 630.378 610.953C624.851 620.475 619.805 629.103 619.48 629.426C619.145 629.76 612.846 621.384 606.036 612.098C597.759 600.813 588.723 588.172 588.723 588.172L645.079 585.521Z" fill="white"/>
<path d="M630.378 610.957C624.851 620.478 619.805 629.107 619.479 629.429C619.145 629.763 612.846 621.388 606.036 612.101L630.378 610.957Z" fill="#262626"/>
<path d="M627.525 586.24L604.798 216.478L607.369 216.349L630.096 586.11L627.525 586.24Z" fill="white"/>
<path d="M605.478 587.284L582.751 217.523L585.322 217.394L608.05 587.154L605.478 587.284Z" fill="white"/>
<path d="M614.867 235.182C614.866 234.472 615.097 233.781 615.525 233.214C615.953 232.647 616.555 232.235 617.238 232.042C617.214 231.99 617.119 231.88 617.211 231.843L614.534 231.369C613.742 231.247 613.022 230.841 612.505 230.229C611.989 229.616 611.712 228.837 611.725 228.036C611.764 227.246 612.095 226.498 612.654 225.938C613.213 225.377 613.961 225.044 614.751 225.003C614.732 224.978 614.739 224.942 614.728 224.911L613.627 224.716C612.882 224.597 612.2 224.224 611.697 223.661C611.195 223.098 610.903 222.378 610.87 221.624C610.859 221.15 610.954 220.681 611.147 220.248C611.339 219.816 611.626 219.432 611.985 219.123C612.344 218.815 612.767 218.59 613.224 218.465C613.681 218.34 614.159 218.318 614.626 218.4L617.165 218.85C617.165 218.836 617.154 218.825 617.156 218.812C617.158 218.798 617.176 218.784 617.182 218.767C616.514 218.487 615.962 217.988 615.615 217.352C615.268 216.716 615.148 215.981 615.273 215.268C615.478 213.406 617.678 212.713 619.32 213.004L624.419 214.325C625.205 214.529 625.93 214.924 626.527 215.474C627.124 216.025 627.577 216.715 627.843 217.483C630.151 224.127 635.765 241.625 630.526 240.697L617.629 238.412C616.875 238.257 616.194 237.855 615.694 237.27C615.194 236.685 614.903 235.951 614.867 235.182V235.182Z" fill="#E98862"/>
<path d="M400.554 100.659C400.554 100.659 392.955 94.0819 391.904 80.0426C391.089 69.1759 400.554 76.812 400.554 76.812C400.554 76.812 400.044 68.9792 405.646 70.1304C411.249 71.2817 413.87 79.6476 413.87 79.6476" fill="#0C0C0C"/>
<path d="M434.823 72.9984C434.823 72.9984 462.687 77.8877 449.993 115.238H442.435" fill="#0C0C0C"/>
<path d="M454.721 583.963C454.721 583.963 463.637 599.022 452.232 610.411C440.826 621.799 451.938 629.076 451.938 629.076L497.952 588.296L477.577 565.307L454.721 583.963Z" fill="#367CFF"/>
<path d="M376.429 287.119C376.429 287.119 371.247 436.514 371.906 443.805C374.398 471.385 455.563 596.359 455.563 596.359L485.787 570.553L447.192 492.378L422.793 437.898C422.793 437.898 426.993 391.042 438.314 347.533C444.106 325.203 447.592 302.337 448.717 279.295V279.295L376.429 287.119Z" fill="#262626"/>
<path d="M453.233 597.191C453.233 597.191 449.918 614.372 433.828 615.334C417.739 616.295 421.23 629.109 421.23 629.109H482.715V598.39L453.233 597.191Z" fill="#367CFF"/>
<path d="M486.882 283.724C486.882 283.724 486.689 278.559 486.73 290.277C486.882 333.985 485.426 608.159 485.426 608.159L445.024 607.819L420.55 281.946L486.882 283.724Z" fill="#262626"/>
<path d="M428.848 393.032L425.534 342.363C425.534 342.363 422.131 363.428 422.131 381.584C422.131 390.459 423.959 425.596 423.959 425.596L428.848 393.032Z" fill="#0A0A0A"/>
<path d="M434.236 463.448L442.64 576.08L434.773 563.424L426.732 446.695L434.236 463.448Z" fill="#0A0A0A"/>
<path d="M403.442 154.069C403.566 154.053 404.938 176.824 431.392 174.839C449.705 173.467 456.235 154.037 456.655 154.037C454.68 153.617 452.24 152.98 451.27 152.762C449.156 152.271 447.242 151.149 445.782 149.544C444.322 147.939 443.386 145.927 443.097 143.777C442.561 140.547 443.47 124.037 443.19 120.771L415.079 127.045C415.471 133.942 418.221 149.932 408.586 152.762C406.982 153.23 405.255 153.66 403.442 154.069Z" fill="#E98862"/>
<path opacity="0.52" d="M414.685 146.227C415.125 144.808 415.408 143.345 415.53 141.865C415.839 138.485 415.777 135.082 415.346 131.717C421.06 130.945 426.443 128.587 430.883 124.91C431.405 126.838 434.275 135.262 433.481 137.093C431.979 140.556 424.918 146.227 414.685 146.227Z" fill="#0C0C0C"/>
<path d="M419.674 140.726C430.806 140.475 444.518 134.371 445.716 119.363L446.797 105.822C447.994 90.8138 441.083 78.0191 426.952 76.8928C412.821 75.765 401.289 87.0883 400.092 102.096L399.613 108.091C399.485 110.152 399.497 112.22 399.65 114.279C400.017 119.726 400.588 128.009 403.88 133.805C406.986 139.276 412.562 140.886 419.674 140.726Z" fill="#E98862"/>
<path opacity="0.52" d="M415.46 126.656C413.17 126.606 410.923 126.019 408.901 124.941C408.858 124.921 408.819 124.892 408.787 124.856C408.755 124.82 408.731 124.779 408.716 124.734C408.7 124.688 408.694 124.64 408.697 124.593C408.701 124.545 408.713 124.499 408.735 124.456C408.757 124.413 408.787 124.375 408.823 124.345C408.86 124.314 408.902 124.291 408.948 124.276C408.993 124.262 409.042 124.257 409.089 124.262C409.137 124.267 409.183 124.281 409.225 124.304C413.588 126.52 417.685 126.513 421.072 124.283C421.141 124.236 421.212 124.192 421.285 124.153C421.37 124.111 421.468 124.105 421.558 124.136C421.648 124.166 421.722 124.232 421.763 124.317C421.805 124.402 421.811 124.501 421.78 124.59C421.749 124.68 421.684 124.754 421.599 124.796C421.572 124.81 421.525 124.841 421.466 124.881C419.685 126.057 417.594 126.675 415.46 126.656Z" fill="#0C0C0C"/>
<path opacity="0.52" d="M415.34 130.043C414.927 130.04 414.515 130.003 414.108 129.93C414.015 129.914 413.932 129.861 413.877 129.784C413.823 129.706 413.801 129.61 413.817 129.516C413.834 129.423 413.886 129.34 413.964 129.285C414.041 129.231 414.138 129.209 414.231 129.225C416.685 129.654 417.94 128.601 417.993 128.555C418.065 128.492 418.158 128.461 418.253 128.467C418.347 128.473 418.436 128.517 418.498 128.588C418.561 128.66 418.592 128.753 418.586 128.848C418.58 128.942 418.536 129.031 418.465 129.093C417.564 129.762 416.46 130.097 415.34 130.043Z" fill="#0C0C0C"/>
<path d="M404.283 109.097C405.247 109.097 406.029 108.315 406.029 107.351C406.029 106.387 405.247 105.605 404.283 105.605C403.318 105.605 402.537 106.387 402.537 107.351C402.537 108.315 403.318 109.097 404.283 109.097Z" fill="#0C0C0C"/>
<path d="M420.464 109.207C421.428 109.207 422.21 108.425 422.21 107.461C422.21 106.497 421.428 105.715 420.464 105.715C419.499 105.715 418.718 106.497 418.718 107.461C418.718 108.425 419.499 109.207 420.464 109.207Z" fill="#0C0C0C"/>
<path d="M444.473 123.865C448.768 124.208 452.615 119.892 452.958 115.597C453.301 111.303 450.009 108.657 445.714 108.314L443.272 111.016L440.782 123.572L444.473 123.865Z" fill="#E98862"/>
<path d="M370.575 204.2C371.408 213.989 375.462 275.061 376.262 287.119H486.672C487.295 276.244 490.096 228.691 492.461 207.426C494.719 187.133 499.148 176.239 495.901 170.24C490.595 160.435 476.098 155.503 466.212 154.164C460.175 153.348 451.096 152.762 451.096 152.762C451.096 152.762 450.328 168.313 431.997 169.179C407.043 170.353 408.71 152.762 408.586 152.762C399.527 152.762 382.38 154.929 375.801 159.404C361.004 169.465 368.806 183.456 370.575 204.2Z" fill="#367CFF"/>
<path d="M440.661 116.67C440.661 116.67 440.634 95.3191 434.273 93.5746C430.039 92.413 419.221 97.8038 409.705 95.3191C405.541 94.2317 401.467 95.0078 400.925 96.9726C400.712 97.7509 398.844 86.2381 406.025 78.0771C411.743 71.5798 429.08 70.7986 436.762 73.5696C458.025 81.2416 446.535 109.308 446.535 109.308L445.076 116.571L440.661 116.67Z" fill="#0C0C0C"/>
<g opacity="0.52">
<path d="M413.198 121.462H413.171C411.787 121.356 409.477 121.022 409.556 119.986C409.623 119.129 412.686 110.049 413.035 109.017C413.05 108.973 413.073 108.932 413.104 108.897C413.135 108.863 413.172 108.834 413.213 108.813C413.255 108.793 413.3 108.781 413.346 108.777C413.393 108.774 413.439 108.78 413.483 108.795C413.527 108.81 413.568 108.833 413.603 108.864C413.638 108.895 413.666 108.932 413.687 108.973C413.707 109.015 413.72 109.06 413.723 109.106C413.726 109.153 413.72 109.199 413.705 109.243C412.345 113.265 410.307 119.459 410.261 120.041C410.378 120.296 411.792 120.647 413.225 120.757C413.315 120.766 413.399 120.808 413.459 120.876C413.518 120.944 413.55 121.033 413.546 121.123C413.543 121.214 413.505 121.3 413.44 121.363C413.375 121.426 413.289 121.462 413.198 121.464V121.462Z" fill="#0C0C0C"/>
</g>
<path d="M409.189 101.991C408.645 101.762 408.072 101.608 407.486 101.532C406.879 101.448 406.263 101.448 405.656 101.532C405.046 101.609 404.45 101.777 403.89 102.032C403.319 102.289 402.782 102.617 402.293 103.007L402.254 103.037C402.127 103.13 401.969 103.171 401.813 103.151C401.657 103.131 401.515 103.052 401.416 102.93C401.316 102.808 401.268 102.652 401.281 102.495C401.293 102.339 401.366 102.193 401.483 102.088C402.026 101.584 402.63 101.15 403.282 100.797C403.942 100.436 404.654 100.176 405.392 100.026C406.898 99.7085 408.463 99.8057 409.918 100.307C410.032 100.347 410.137 100.409 410.227 100.49C410.317 100.57 410.39 100.668 410.442 100.777C410.494 100.886 410.524 101.004 410.531 101.124C410.537 101.245 410.52 101.365 410.48 101.479C410.44 101.593 410.378 101.698 410.297 101.788C410.216 101.878 410.119 101.951 410.01 102.003C409.901 102.055 409.783 102.085 409.663 102.092C409.542 102.098 409.421 102.081 409.307 102.041C409.285 102.033 409.264 102.025 409.243 102.015L409.189 101.991Z" fill="#0C0C0C"/>
<path d="M419.438 100.452C420.172 100.195 420.938 100.043 421.714 100.003C422.469 99.9558 423.226 100.012 423.965 100.171C424.702 100.321 425.414 100.581 426.074 100.943C426.726 101.296 427.33 101.73 427.872 102.235C427.992 102.339 428.067 102.485 428.081 102.643C428.095 102.801 428.048 102.958 427.948 103.081C427.848 103.205 427.704 103.284 427.547 103.303C427.389 103.323 427.231 103.28 427.104 103.184L427.063 103.153C426.573 102.763 426.037 102.435 425.465 102.178C424.907 101.923 424.313 101.754 423.703 101.678C423.097 101.593 422.481 101.593 421.874 101.678C421.288 101.753 420.715 101.908 420.17 102.136L420.119 102.159C420.008 102.208 419.889 102.235 419.769 102.238C419.648 102.24 419.528 102.219 419.415 102.176C419.303 102.132 419.2 102.067 419.113 101.984C419.025 101.901 418.955 101.801 418.906 101.69C418.857 101.58 418.831 101.461 418.828 101.34C418.825 101.22 418.846 101.1 418.889 100.987C418.933 100.874 418.998 100.771 419.082 100.684C419.165 100.597 419.265 100.527 419.375 100.478C419.395 100.469 419.416 100.459 419.438 100.452Z" fill="#0C0C0C"/>
<path d="M420.931 79.1764C422.223 74.5595 420.728 70.1052 417.591 69.2274C414.455 68.3496 410.865 71.3807 409.572 75.9977C408.28 80.6146 409.776 85.0689 412.912 85.9467C416.049 86.8245 419.639 83.7933 420.931 79.1764Z" fill="#0C0C0C"/>
<path d="M366.274 303.073C366.729 302.917 367.145 302.662 367.49 302.325C367.835 301.989 368.101 301.581 368.269 301.129C368.437 300.678 368.503 300.195 368.461 299.715C368.42 299.235 368.273 298.77 368.03 298.354L370.159 301.997C370.576 302.744 371.26 303.305 372.075 303.567C372.889 303.829 373.772 303.773 374.546 303.409C374.939 303.207 375.287 302.927 375.568 302.586C375.849 302.245 376.058 301.851 376.182 301.427C376.306 301.002 376.342 300.558 376.288 300.119C376.234 299.681 376.091 299.258 375.868 298.876L376.831 300.525C377.206 301.195 377.802 301.714 378.517 301.995C379.231 302.276 380.021 302.301 380.752 302.067C381.208 301.911 381.623 301.655 381.968 301.319C382.313 300.983 382.579 300.574 382.747 300.123C382.915 299.671 382.981 299.188 382.94 298.708C382.898 298.228 382.751 297.764 382.508 297.347L380.82 294.46C381.255 295.204 381.968 295.746 382.802 295.965C383.636 296.184 384.523 296.063 385.268 295.628V295.628C386.974 294.778 386.861 292.434 386.006 290.969L382.832 285.058L384.929 286.718C385.611 287.235 386.463 287.475 387.314 287.388C388.165 287.301 388.952 286.895 389.515 286.251C389.793 285.908 390 285.512 390.121 285.088C390.241 284.663 390.274 284.217 390.218 283.779C390.161 283.341 390.015 282.919 389.79 282.539C389.565 282.159 389.264 281.829 388.907 281.569L369.83 269.538L356.064 270.506C354.069 273.087 352.891 276.206 352.68 279.461C352.469 282.717 353.235 285.961 354.879 288.778L362.352 301.527C362.728 302.198 363.323 302.718 364.038 302.999C364.752 303.281 365.542 303.307 366.274 303.073Z" fill="#E98862"/>
<path d="M378.671 290.848C378.663 290.777 378.68 290.706 378.72 290.646C378.759 290.587 378.817 290.543 378.886 290.522C378.954 290.501 379.027 290.505 379.093 290.532C379.158 290.56 379.212 290.609 379.245 290.673L381.348 294.676C381.366 294.712 381.378 294.751 381.381 294.791C381.385 294.831 381.381 294.871 381.369 294.909C381.357 294.948 381.337 294.983 381.312 295.014C381.286 295.045 381.255 295.07 381.219 295.089C381.184 295.108 381.145 295.119 381.105 295.123C381.065 295.126 381.024 295.122 380.986 295.11C380.948 295.098 380.912 295.079 380.881 295.053C380.851 295.028 380.825 294.996 380.806 294.961L378.704 290.957C378.687 290.923 378.676 290.886 378.671 290.848V290.848Z" fill="#E98862"/>
<path d="M373.01 293.829C373.003 293.759 373.02 293.688 373.059 293.629C373.098 293.57 373.156 293.526 373.224 293.505C373.291 293.484 373.364 293.488 373.43 293.514C373.495 293.541 373.549 293.589 373.583 293.651L376.51 299.122C376.529 299.157 376.541 299.196 376.545 299.236C376.549 299.276 376.545 299.316 376.533 299.355C376.521 299.393 376.502 299.429 376.477 299.46C376.452 299.491 376.42 299.517 376.385 299.536C376.349 299.555 376.311 299.567 376.271 299.571C376.231 299.575 376.19 299.571 376.152 299.559C376.114 299.547 376.078 299.528 376.047 299.503C376.016 299.477 375.99 299.446 375.971 299.411L373.044 293.94C373.026 293.905 373.014 293.868 373.01 293.829V293.829Z" fill="#E98862"/>
<path d="M366.86 297.023C366.852 296.952 366.869 296.88 366.909 296.82C366.948 296.761 367.008 296.717 367.076 296.696C367.145 296.676 367.219 296.68 367.285 296.709C367.35 296.737 367.404 296.788 367.436 296.852L368.758 299.468C368.794 299.54 368.801 299.624 368.775 299.701C368.75 299.778 368.695 299.842 368.623 299.879C368.551 299.915 368.467 299.922 368.39 299.896C368.313 299.871 368.249 299.816 368.212 299.744L366.891 297.127C366.874 297.095 366.864 297.059 366.86 297.023V297.023Z" fill="#E98862"/>
<path opacity="0.2" d="M378.671 290.848C378.663 290.777 378.68 290.706 378.72 290.646C378.759 290.587 378.817 290.543 378.886 290.522C378.954 290.501 379.027 290.505 379.093 290.532C379.158 290.56 379.212 290.609 379.245 290.673L381.348 294.676C381.366 294.712 381.378 294.751 381.381 294.791C381.385 294.831 381.381 294.871 381.369 294.909C381.357 294.948 381.337 294.983 381.312 295.014C381.286 295.045 381.255 295.07 381.219 295.089C381.184 295.108 381.145 295.119 381.105 295.123C381.065 295.126 381.024 295.122 380.986 295.11C380.948 295.098 380.912 295.079 380.881 295.053C380.851 295.028 380.825 294.996 380.806 294.961L378.704 290.957C378.687 290.923 378.676 290.886 378.671 290.848V290.848Z" fill="#0C0C0C"/>
<path opacity="0.2" d="M373.01 293.829C373.003 293.759 373.02 293.688 373.059 293.629C373.098 293.57 373.156 293.526 373.224 293.505C373.291 293.484 373.364 293.488 373.43 293.514C373.495 293.541 373.549 293.589 373.583 293.651L376.51 299.122C376.529 299.157 376.541 299.196 376.545 299.236C376.549 299.276 376.545 299.316 376.533 299.355C376.521 299.393 376.502 299.429 376.477 299.46C376.452 299.491 376.42 299.517 376.385 299.536C376.349 299.555 376.311 299.567 376.271 299.571C376.231 299.575 376.19 299.571 376.152 299.559C376.114 299.547 376.078 299.528 376.047 299.503C376.016 299.477 375.99 299.446 375.971 299.411L373.044 293.94C373.026 293.905 373.014 293.868 373.01 293.829V293.829Z" fill="#0C0C0C"/>
<path opacity="0.2" d="M366.86 297.023C366.852 296.952 366.869 296.88 366.909 296.82C366.948 296.761 367.008 296.717 367.076 296.696C367.145 296.676 367.219 296.68 367.285 296.709C367.35 296.737 367.404 296.788 367.436 296.852L368.758 299.468C368.794 299.54 368.801 299.624 368.775 299.701C368.75 299.778 368.695 299.842 368.623 299.879C368.551 299.915 368.467 299.922 368.39 299.896C368.313 299.871 368.249 299.816 368.212 299.744L366.891 297.127C366.874 297.095 366.864 297.059 366.86 297.023V297.023Z" fill="#0C0C0C"/>
<path d="M395.338 197.102C395.338 197.102 386.476 155.556 376.423 159.016C368.446 161.761 308.516 211.147 306.697 212.938C302.691 216.881 300.415 222.254 300.371 227.875C300.326 233.496 302.516 238.905 306.459 242.911L353.105 296.283L380.026 271.049L344.626 232.795L395.338 197.102Z" fill="#367CFF"/>
<path d="M371.185 215.096C371.113 215.095 371.045 215.068 370.992 215.019C370.94 214.971 370.908 214.904 370.902 214.833L369.717 198.407C369.714 198.37 369.719 198.333 369.73 198.297C369.742 198.262 369.761 198.229 369.785 198.201C369.809 198.173 369.839 198.15 369.872 198.133C369.905 198.116 369.941 198.106 369.979 198.103C370.016 198.1 370.053 198.104 370.089 198.115C370.125 198.127 370.158 198.145 370.186 198.169C370.215 198.194 370.238 198.224 370.255 198.257C370.272 198.291 370.282 198.327 370.284 198.365L371.468 214.79C371.471 214.827 371.467 214.865 371.455 214.9C371.444 214.936 371.425 214.968 371.401 214.997C371.376 215.025 371.347 215.048 371.314 215.065C371.28 215.081 371.244 215.091 371.207 215.094L371.185 215.096Z" fill="#0C0C0C"/>
<path d="M489.96 240.142H489.94C489.865 240.138 489.795 240.105 489.745 240.05C489.694 239.995 489.667 239.923 489.67 239.848L491.63 200.509C491.636 200.435 491.67 200.366 491.726 200.316C491.781 200.266 491.853 200.239 491.928 200.241C491.965 200.242 492.002 200.251 492.035 200.267C492.069 200.283 492.099 200.306 492.124 200.333C492.149 200.361 492.169 200.393 492.181 200.428C492.194 200.463 492.199 200.501 492.197 200.538L490.238 239.875C490.233 239.946 490.203 240.013 490.151 240.062C490.1 240.112 490.032 240.14 489.96 240.142V240.142Z" fill="#0C0C0C"/>
<path d="M648.506 630H15.9855C15.835 630 15.6906 629.94 15.5842 629.834C15.4778 629.727 15.418 629.583 15.418 629.432C15.418 629.282 15.4778 629.138 15.5842 629.031C15.6906 628.925 15.835 628.865 15.9855 628.865H648.506C648.657 628.865 648.801 628.925 648.908 629.031C649.014 629.138 649.074 629.282 649.074 629.432C649.074 629.583 649.014 629.727 648.908 629.834C648.801 629.94 648.657 630 648.506 630V630Z" fill="#3F3F3F"/>
</g>
<defs>
<clipPath id="clip0_364_1647">
<rect width="666.015" height="630" fill="white"/>
</clipPath>
</defs>
</svg>
