<svg width="783" height="630" viewBox="0 0 783 630" fill="none" xmlns="http://www.w3.org/2000/svg">
<g clip-path="url(#clip0_364_1391)">
<path opacity="0.1" d="M224.901 544.143H116.52V402.893H204.17L224.901 424.577V544.143Z" fill="#292A2E"/>
<path opacity="0.1" d="M204.17 402.893V424.254L224.901 424.577L204.17 402.893Z" fill="#292A2E"/>
<path d="M178.113 458.721V465.398C178.113 466.85 177.536 468.242 176.509 469.269C175.483 470.295 174.09 470.872 172.639 470.872H106.035C104.583 470.872 103.191 471.449 102.164 472.475C101.138 473.502 100.561 474.894 100.561 476.346V565.514C100.561 566.966 101.138 568.358 102.164 569.385C103.191 570.412 104.583 570.988 106.035 570.988H235.385C236.837 570.988 238.23 570.412 239.256 569.385C240.283 568.358 240.86 566.966 240.86 565.514V458.721C240.86 457.269 240.283 455.877 239.256 454.85C238.23 453.823 236.837 453.247 235.385 453.247H183.587C182.135 453.247 180.743 453.823 179.716 454.85C178.69 455.877 178.113 457.269 178.113 458.721Z" fill="white"/>
<path opacity="0.05" d="M178.113 458.721V465.398C178.113 466.85 177.536 468.242 176.509 469.269C175.483 470.295 174.09 470.872 172.639 470.872H106.035C104.583 470.872 103.191 471.449 102.164 472.475C101.138 473.502 100.561 474.894 100.561 476.346V565.514C100.561 566.966 101.138 568.358 102.164 569.385C103.191 570.412 104.583 570.988 106.035 570.988H235.385C236.837 570.988 238.23 570.412 239.256 569.385C240.283 568.358 240.86 566.966 240.86 565.514V458.721C240.86 457.269 240.283 455.877 239.256 454.85C238.23 453.823 236.837 453.247 235.385 453.247H183.587C182.135 453.247 180.743 453.823 179.716 454.85C178.69 455.877 178.113 457.269 178.113 458.721Z" fill="#292A2E"/>
<path opacity="0.1" d="M363.32 201.627H254.94V60.3779H342.59L363.32 82.0617V201.627Z" fill="#292A2E"/>
<path opacity="0.1" d="M342.59 60.3779V81.7392L363.32 82.0617L342.59 60.3779Z" fill="#292A2E"/>
<path d="M316.533 116.206V122.883C316.533 123.601 316.391 124.313 316.116 124.977C315.841 125.642 315.438 126.245 314.929 126.753C314.421 127.262 313.818 127.665 313.153 127.94C312.489 128.215 311.777 128.357 311.059 128.357H244.453C243.001 128.357 241.609 128.934 240.583 129.96C239.556 130.987 238.979 132.379 238.979 133.831V222.996C238.979 224.448 239.556 225.84 240.583 226.866C241.609 227.893 243.001 228.47 244.453 228.47H373.805C375.257 228.47 376.65 227.893 377.676 226.867C378.703 225.84 379.28 224.448 379.28 222.996V116.206C379.28 114.754 378.703 113.361 377.676 112.335C376.65 111.308 375.257 110.731 373.805 110.731H322.005C320.553 110.732 319.161 111.309 318.135 112.336C317.109 113.362 316.533 114.754 316.533 116.206Z" fill="white"/>
<path opacity="0.05" d="M316.533 116.206V122.883C316.533 123.601 316.391 124.313 316.116 124.977C315.841 125.642 315.438 126.245 314.929 126.753C314.421 127.262 313.818 127.665 313.153 127.94C312.489 128.215 311.777 128.357 311.059 128.357H244.453C243.001 128.357 241.609 128.934 240.583 129.96C239.556 130.987 238.979 132.379 238.979 133.831V222.996C238.979 224.448 239.556 225.84 240.583 226.866C241.609 227.893 243.001 228.47 244.453 228.47H373.805C375.257 228.47 376.65 227.893 377.676 226.867C378.703 225.84 379.28 224.448 379.28 222.996V116.206C379.28 114.754 378.703 113.361 377.676 112.335C376.65 111.308 375.257 110.731 373.805 110.731H322.005C320.553 110.732 319.161 111.309 318.135 112.336C317.109 113.362 316.533 114.754 316.533 116.206Z" fill="#292A2E"/>
<path opacity="0.1" d="M766.048 504.647H657.667V363.398H745.317L766.048 385.081V504.647Z" fill="#292A2E"/>
<path opacity="0.1" d="M745.317 363.398V384.76L766.047 385.081L745.317 363.398Z" fill="#292A2E"/>
<path d="M719.26 419.225V425.903C719.26 426.622 719.118 427.334 718.843 427.998C718.568 428.662 718.165 429.265 717.657 429.774C717.148 430.282 716.545 430.685 715.881 430.96C715.217 431.236 714.505 431.377 713.786 431.377H647.182C645.73 431.377 644.338 431.954 643.311 432.981C642.284 434.007 641.708 435.4 641.708 436.851V526.015C641.708 527.467 642.284 528.86 643.311 529.886C644.338 530.913 645.73 531.49 647.182 531.49H776.533C777.985 531.49 779.377 530.913 780.404 529.886C781.43 528.86 782.007 527.467 782.007 526.015V419.225C782.007 417.774 781.43 416.381 780.403 415.355C779.377 414.328 777.984 413.752 776.533 413.752H724.734C723.283 413.752 721.89 414.328 720.864 415.355C719.837 416.381 719.26 417.774 719.26 419.225V419.225Z" fill="white"/>
<path opacity="0.05" d="M719.26 419.225V425.903C719.26 426.622 719.118 427.334 718.843 427.998C718.568 428.662 718.165 429.265 717.657 429.774C717.148 430.282 716.545 430.685 715.881 430.96C715.217 431.236 714.505 431.377 713.786 431.377H647.182C645.73 431.377 644.338 431.954 643.311 432.981C642.284 434.007 641.708 435.4 641.708 436.851V526.015C641.708 527.467 642.284 528.86 643.311 529.886C644.338 530.913 645.73 531.49 647.182 531.49H776.533C777.985 531.49 779.377 530.913 780.404 529.886C781.43 528.86 782.007 527.467 782.007 526.015V419.225C782.007 417.774 781.43 416.381 780.403 415.355C779.377 414.328 777.984 413.752 776.533 413.752H724.734C723.283 413.752 721.89 414.328 720.864 415.355C719.837 416.381 719.26 417.774 719.26 419.225V419.225Z" fill="#292A2E"/>
<path d="M745.801 85.1095C748.599 68.0135 745.264 50.4787 736.385 35.6038C731.508 27.3555 725.043 20.1575 717.363 14.427C709.684 8.69658 700.943 4.54776 691.648 2.22116C686.891 1.03036 682.027 0.318938 677.128 0.0975348V0.0283203H652.151V3.41039C634.259 9.05133 619.257 21.419 610.307 37.906C604.336 33.9797 597.341 31.8955 590.194 31.9126C589.069 31.9126 587.896 31.9685 586.781 32.0754H569.903L564.387 42.4828L564.266 42.6008C564.104 42.7581 563.942 42.9154 563.786 43.0727C558.083 48.9413 554.457 56.5146 553.46 64.6369C524.413 66.7181 501.21 91.1351 500.513 120.506C500.124 135.704 505.782 150.435 516.244 161.465C521.39 166.925 527.571 171.306 534.427 174.353C541.283 177.4 548.677 179.052 556.178 179.213L735.634 179.236C761.706 179.236 782.918 157.874 782.918 131.615C782.917 108.874 767.693 89.8554 745.801 85.1095Z" fill="#292A2E"/>
<path d="M717.138 178.477C742.787 178.477 763.664 157.46 763.664 131.615C763.756 120.83 760.092 110.349 753.299 101.972C746.506 93.594 737.009 87.8421 726.438 85.7033C729.455 68.5669 726.189 50.9172 717.241 35.9947C710.746 25.0178 701.441 15.9712 690.287 9.78665C679.132 3.60215 666.53 0.503482 653.779 0.809893C641.028 1.11631 628.59 4.81672 617.745 11.5299C606.9 18.2431 598.041 27.7262 592.081 39.0024C585.07 34.1854 576.58 32.005 568.116 32.8471C559.651 33.6892 551.758 37.4997 545.833 43.6036C540.096 49.506 536.509 57.166 535.649 65.3526C506.9 67.083 483.474 91.1634 482.778 120.524C482.392 135.521 487.974 150.058 498.298 160.942C503.372 166.328 509.468 170.65 516.23 173.656C522.991 176.663 530.283 178.294 537.682 178.454L717.138 178.477Z" fill="white"/>
<path d="M717.138 179.263L537.682 179.24C530.177 179.08 522.779 177.427 515.919 174.378C509.06 171.33 502.875 166.946 497.726 161.484C487.259 150.449 481.599 135.71 481.99 120.506C482.687 91.1272 505.888 66.7071 534.94 64.6118C535.941 56.491 539.569 48.9199 545.27 43.0514C551.22 36.9231 559.115 33.0541 567.603 32.1071C576.092 31.1601 584.645 33.1939 591.799 37.8603C597.928 26.6019 606.931 17.1688 617.891 10.5217C628.851 3.8746 641.377 0.250955 654.194 0.019793C667.01 -0.211369 679.659 2.95821 690.852 9.20576C702.045 15.4533 711.382 24.5556 717.913 35.5857C726.791 50.4584 730.129 67.9902 727.337 85.0851C749.229 89.842 764.449 108.866 764.449 131.612C764.451 157.889 743.226 179.263 717.138 179.263ZM571.698 33.455C566.977 33.4386 562.303 34.3779 557.955 36.2162C553.607 38.0546 549.676 40.754 546.4 44.1518C540.785 49.9299 537.275 57.4267 536.431 65.4392L536.362 66.1022L535.697 66.1423C507.146 67.8601 484.247 91.7572 483.565 120.547C483.185 135.336 488.689 149.672 498.87 160.406C503.874 165.716 509.884 169.976 516.55 172.94C523.217 175.904 530.406 177.513 537.7 177.671L717.138 177.694C742.359 177.694 762.878 157.025 762.878 131.619C762.878 109.375 747.828 90.8118 726.281 86.478L725.53 86.327L725.661 85.572C728.611 68.6204 725.383 51.173 716.564 36.399C710.141 25.5407 700.94 16.5914 689.907 10.4733C678.874 4.35516 666.41 1.28951 653.798 1.59225C641.186 1.89499 628.883 5.55518 618.157 12.1956C607.431 18.8361 598.669 28.2166 592.775 39.3705L592.359 40.1491L591.633 39.6473C585.775 35.5986 578.819 33.4379 571.698 33.455V33.455Z" fill="#292A2E"/>
<path d="M607.114 125.373H528.089V628.964H607.114V125.373Z" fill="#262626"/>
<path d="M607.9 629.751H527.302V124.586H607.9V629.751ZM528.875 628.178H606.327V126.159H528.875V628.178Z" fill="#292A2E"/>
<path d="M281.245 628.965H528.089L528.089 125.373L281.245 125.373L281.245 628.965Z" fill="white"/>
<path d="M528.875 629.751H280.459V124.586H528.875V629.751ZM282.032 628.178H527.302V126.159H282.032V628.178Z" fill="#292A2E"/>
<path d="M509.776 145.627H299.557V192.795H509.776V145.627Z" fill="#367CFF"/>
<g opacity="0.5">
<path d="M509.776 145.627H299.557V192.795H509.776V145.627Z" fill="white"/>
</g>
<path d="M509.777 193.582H299.558C299.349 193.582 299.149 193.499 299.002 193.352C298.854 193.204 298.771 193.004 298.771 192.795V145.627C298.771 145.419 298.854 145.219 299.002 145.071C299.149 144.924 299.349 144.841 299.558 144.841H509.777C509.985 144.841 510.185 144.924 510.333 145.071C510.48 145.219 510.563 145.419 510.563 145.627V192.795C510.563 193.004 510.48 193.204 510.333 193.352C510.185 193.499 509.985 193.582 509.777 193.582ZM300.345 192.009H508.99V146.414H300.345V192.009Z" fill="#292A2E"/>
<path d="M323.384 178.888C328.728 178.888 333.061 174.556 333.061 169.211C333.061 163.867 328.728 159.535 323.384 159.535C318.04 159.535 313.708 163.867 313.708 169.211C313.708 174.556 318.04 178.888 323.384 178.888Z" fill="white"/>
<path d="M323.385 179.675C321.316 179.675 319.294 179.061 317.573 177.912C315.853 176.762 314.512 175.128 313.721 173.217C312.929 171.305 312.722 169.202 313.125 167.173C313.529 165.144 314.525 163.28 315.988 161.817C317.451 160.354 319.315 159.358 321.344 158.954C323.374 158.55 325.477 158.757 327.388 159.549C329.3 160.341 330.934 161.682 332.083 163.402C333.232 165.122 333.846 167.145 333.846 169.214C333.842 171.987 332.739 174.646 330.778 176.607C328.817 178.568 326.158 179.671 323.385 179.675V179.675ZM323.385 160.326C321.627 160.326 319.909 160.847 318.447 161.824C316.986 162.8 315.847 164.189 315.174 165.813C314.501 167.437 314.325 169.224 314.668 170.948C315.011 172.672 315.858 174.255 317.101 175.498C318.344 176.741 319.927 177.588 321.651 177.931C323.375 178.274 325.162 178.098 326.786 177.425C328.41 176.752 329.798 175.613 330.775 174.152C331.752 172.69 332.273 170.972 332.273 169.214C332.271 166.857 331.334 164.597 329.668 162.93C328.001 161.263 325.742 160.325 323.385 160.322V160.326Z" fill="#292A2E"/>
<path d="M465.869 169.025H345.547C345.339 169.025 345.139 168.942 344.991 168.795C344.844 168.647 344.761 168.447 344.761 168.238C344.761 168.03 344.844 167.83 344.991 167.682C345.139 167.535 345.339 167.452 345.547 167.452H465.869C466.077 167.452 466.277 167.535 466.425 167.682C466.572 167.83 466.655 168.03 466.655 168.238C466.655 168.447 466.572 168.647 466.425 168.795C466.277 168.942 466.077 169.025 465.869 169.025Z" fill="#292A2E"/>
<path d="M483.558 169.025H481.061C480.853 169.025 480.653 168.942 480.505 168.795C480.358 168.647 480.275 168.447 480.275 168.238C480.275 168.03 480.358 167.83 480.505 167.682C480.653 167.535 480.853 167.452 481.061 167.452H483.558C483.766 167.452 483.967 167.535 484.114 167.682C484.262 167.83 484.344 168.03 484.344 168.238C484.344 168.447 484.262 168.647 484.114 168.795C483.967 168.942 483.766 169.025 483.558 169.025Z" fill="#292A2E"/>
<path d="M474.794 169.025H472.296C472.088 169.025 471.888 168.942 471.74 168.795C471.593 168.647 471.51 168.447 471.51 168.238C471.51 168.03 471.593 167.83 471.74 167.682C471.888 167.535 472.088 167.452 472.296 167.452H474.794C475.002 167.452 475.202 167.535 475.35 167.682C475.497 167.83 475.58 168.03 475.58 168.238C475.58 168.447 475.497 168.647 475.35 168.795C475.202 168.942 475.002 169.025 474.794 169.025Z" fill="#292A2E"/>
<path d="M492.921 169.025H490.424C490.216 169.025 490.016 168.942 489.868 168.795C489.721 168.647 489.638 168.447 489.638 168.238C489.638 168.03 489.721 167.83 489.868 167.682C490.016 167.535 490.216 167.452 490.424 167.452H492.921C493.13 167.452 493.33 167.535 493.478 167.682C493.625 167.83 493.708 168.03 493.708 168.238C493.708 168.447 493.625 168.647 493.478 168.795C493.33 168.942 493.13 169.025 492.921 169.025V169.025Z" fill="#292A2E"/>
<path d="M509.776 211.108H299.557V258.276H509.776V211.108Z" fill="#367CFF"/>
<g opacity="0.5">
<path d="M509.776 211.108H299.557V258.276H509.776V211.108Z" fill="white"/>
</g>
<path d="M509.777 259.063H299.558C299.349 259.063 299.149 258.98 299.002 258.832C298.854 258.685 298.771 258.485 298.771 258.276V211.104C298.771 210.896 298.854 210.696 299.002 210.548C299.149 210.401 299.349 210.318 299.558 210.318H509.777C509.985 210.318 510.185 210.401 510.333 210.548C510.48 210.696 510.563 210.896 510.563 211.104V258.272C510.564 258.376 510.544 258.479 510.504 258.575C510.465 258.67 510.407 258.758 510.334 258.831C510.261 258.905 510.174 258.963 510.079 259.003C509.983 259.042 509.88 259.063 509.777 259.063V259.063ZM300.345 257.49H508.99V211.891H300.345V257.49Z" fill="#292A2E"/>
<path d="M323.384 244.369C328.728 244.369 333.061 240.037 333.061 234.692C333.061 229.348 328.728 225.016 323.384 225.016C318.04 225.016 313.708 229.348 313.708 234.692C313.708 240.037 318.04 244.369 323.384 244.369Z" fill="white"/>
<path d="M323.385 245.155C321.316 245.155 319.294 244.542 317.573 243.392C315.853 242.243 314.512 240.609 313.721 238.698C312.929 236.786 312.722 234.683 313.125 232.654C313.529 230.625 314.525 228.761 315.988 227.298C317.451 225.835 319.315 224.838 321.344 224.435C323.374 224.031 325.477 224.238 327.388 225.03C329.3 225.822 330.934 227.163 332.083 228.883C333.232 230.603 333.846 232.626 333.846 234.695C333.842 237.468 332.739 240.126 330.778 242.087C328.817 244.048 326.158 245.152 323.385 245.155V245.155ZM323.385 225.807C321.627 225.807 319.909 226.328 318.447 227.305C316.986 228.281 315.847 229.669 315.174 231.293C314.501 232.917 314.325 234.704 314.668 236.429C315.011 238.153 315.858 239.736 317.101 240.979C318.344 242.222 319.927 243.069 321.651 243.412C323.375 243.755 325.162 243.579 326.786 242.906C328.41 242.233 329.798 241.094 330.775 239.632C331.752 238.171 332.273 236.452 332.273 234.695C332.271 232.338 331.334 230.078 329.668 228.411C328.001 226.744 325.742 225.806 323.385 225.803V225.807Z" fill="#292A2E"/>
<path d="M465.869 234.507H345.547C345.339 234.507 345.139 234.425 344.991 234.277C344.844 234.13 344.761 233.93 344.761 233.721C344.761 233.512 344.844 233.312 344.991 233.165C345.139 233.017 345.339 232.934 345.547 232.934H465.869C466.077 232.934 466.277 233.017 466.425 233.165C466.572 233.312 466.655 233.512 466.655 233.721C466.655 233.93 466.572 234.13 466.425 234.277C466.277 234.425 466.077 234.507 465.869 234.507Z" fill="#292A2E"/>
<path d="M483.558 234.507H481.061C480.853 234.507 480.653 234.425 480.505 234.277C480.358 234.13 480.275 233.93 480.275 233.721C480.275 233.512 480.358 233.312 480.505 233.165C480.653 233.017 480.853 232.934 481.061 232.934H483.558C483.766 232.934 483.967 233.017 484.114 233.165C484.262 233.312 484.344 233.512 484.344 233.721C484.344 233.93 484.262 234.13 484.114 234.277C483.967 234.425 483.766 234.507 483.558 234.507Z" fill="#292A2E"/>
<path d="M474.794 234.507H472.296C472.088 234.507 471.888 234.425 471.74 234.277C471.593 234.13 471.51 233.93 471.51 233.721C471.51 233.512 471.593 233.312 471.74 233.165C471.888 233.017 472.088 232.934 472.296 232.934H474.794C475.002 232.934 475.202 233.017 475.35 233.165C475.497 233.312 475.58 233.512 475.58 233.721C475.58 233.93 475.497 234.13 475.35 234.277C475.202 234.425 475.002 234.507 474.794 234.507Z" fill="#292A2E"/>
<path d="M492.921 234.507H490.424C490.216 234.507 490.016 234.425 489.868 234.277C489.721 234.13 489.638 233.93 489.638 233.721C489.638 233.512 489.721 233.312 489.868 233.165C490.016 233.017 490.216 232.934 490.424 232.934H492.921C493.13 232.934 493.33 233.017 493.478 233.165C493.625 233.312 493.708 233.512 493.708 233.721C493.708 233.93 493.625 234.13 493.478 234.277C493.33 234.425 493.13 234.507 492.921 234.507V234.507Z" fill="#292A2E"/>
<path d="M509.776 276.589H299.557V323.757H509.776V276.589Z" fill="#367CFF"/>
<g opacity="0.5">
<path d="M509.776 276.589H299.557V323.757H509.776V276.589Z" fill="white"/>
</g>
<path d="M509.777 324.544H299.558C299.349 324.544 299.149 324.461 299.002 324.313C298.854 324.166 298.771 323.966 298.771 323.757V276.589C298.771 276.38 298.854 276.18 299.002 276.033C299.149 275.885 299.349 275.803 299.558 275.803H509.777C509.985 275.803 510.185 275.885 510.333 276.033C510.48 276.18 510.563 276.38 510.563 276.589V323.757C510.563 323.966 510.48 324.166 510.333 324.313C510.185 324.461 509.985 324.544 509.777 324.544V324.544ZM300.345 322.971H508.99V277.376H300.345V322.971Z" fill="#292A2E"/>
<path d="M323.384 309.85C328.728 309.85 333.061 305.517 333.061 300.173C333.061 294.829 328.728 290.496 323.384 290.496C318.04 290.496 313.708 294.829 313.708 300.173C313.708 305.517 318.04 309.85 323.384 309.85Z" fill="white"/>
<path d="M323.385 310.636C321.316 310.636 319.294 310.023 317.573 308.873C315.853 307.724 314.512 306.09 313.721 304.179C312.929 302.267 312.722 300.164 313.125 298.135C313.529 296.105 314.525 294.242 315.988 292.779C317.451 291.316 319.315 290.319 321.344 289.916C323.374 289.512 325.477 289.719 327.388 290.511C329.3 291.303 330.934 292.644 332.083 294.364C333.232 296.084 333.846 298.107 333.846 300.175C333.842 302.949 332.739 305.607 330.778 307.568C328.817 309.529 326.158 310.633 323.385 310.636V310.636ZM323.385 291.284C321.627 291.284 319.909 291.805 318.447 292.782C316.986 293.758 315.847 295.146 315.174 296.77C314.501 298.394 314.325 300.181 314.668 301.905C315.011 303.63 315.858 305.213 317.101 306.456C318.344 307.699 319.927 308.546 321.651 308.889C323.375 309.231 325.162 309.055 326.786 308.383C328.41 307.71 329.798 306.571 330.775 305.109C331.752 303.648 332.273 301.929 332.273 300.172C332.27 297.815 331.332 295.557 329.666 293.89C328 292.224 325.741 291.287 323.385 291.284Z" fill="#292A2E"/>
<path d="M465.869 299.988H345.547C345.339 299.988 345.139 299.905 344.991 299.758C344.844 299.61 344.761 299.41 344.761 299.202C344.761 298.993 344.844 298.793 344.991 298.646C345.139 298.498 345.339 298.415 345.547 298.415H465.869C466.077 298.415 466.277 298.498 466.425 298.646C466.572 298.793 466.655 298.993 466.655 299.202C466.655 299.41 466.572 299.61 466.425 299.758C466.277 299.905 466.077 299.988 465.869 299.988Z" fill="#292A2E"/>
<path d="M483.558 299.988H481.061C480.853 299.988 480.653 299.905 480.505 299.758C480.358 299.61 480.275 299.41 480.275 299.202C480.275 298.993 480.358 298.793 480.505 298.646C480.653 298.498 480.853 298.415 481.061 298.415H483.558C483.766 298.415 483.967 298.498 484.114 298.646C484.262 298.793 484.344 298.993 484.344 299.202C484.344 299.41 484.262 299.61 484.114 299.758C483.967 299.905 483.766 299.988 483.558 299.988Z" fill="#292A2E"/>
<path d="M474.794 299.988H472.296C472.088 299.988 471.888 299.905 471.74 299.758C471.593 299.61 471.51 299.41 471.51 299.202C471.51 298.993 471.593 298.793 471.74 298.646C471.888 298.498 472.088 298.415 472.296 298.415H474.794C475.002 298.415 475.202 298.498 475.35 298.646C475.497 298.793 475.58 298.993 475.58 299.202C475.58 299.41 475.497 299.61 475.35 299.758C475.202 299.905 475.002 299.988 474.794 299.988Z" fill="#292A2E"/>
<path d="M492.921 299.988H490.424C490.216 299.988 490.016 299.905 489.868 299.758C489.721 299.61 489.638 299.41 489.638 299.202C489.638 298.993 489.721 298.793 489.868 298.646C490.016 298.498 490.216 298.415 490.424 298.415H492.921C493.13 298.415 493.33 298.498 493.478 298.646C493.625 298.793 493.708 298.993 493.708 299.202C493.708 299.41 493.625 299.61 493.478 299.758C493.33 299.905 493.13 299.988 492.921 299.988V299.988Z" fill="#292A2E"/>
<path d="M509.777 390.025H299.558C299.349 390.025 299.149 389.942 299.002 389.794C298.854 389.647 298.771 389.447 298.771 389.238V342.07C298.771 341.861 298.854 341.661 299.002 341.514C299.149 341.366 299.349 341.283 299.558 341.283H509.777C509.985 341.283 510.185 341.366 510.333 341.514C510.48 341.661 510.563 341.861 510.563 342.07V389.238C510.563 389.447 510.48 389.647 510.333 389.794C510.185 389.942 509.985 390.025 509.777 390.025ZM300.345 388.452H508.99V342.857H300.345V388.452Z" fill="#292A2E"/>
<path d="M429.132 342.07H211.048V389.238H429.132V342.07Z" fill="#367CFF"/>
<g opacity="0.5">
<path d="M429.132 342.07H211.048V389.238H429.132V342.07Z" fill="white"/>
</g>
<path d="M429.13 390.025H211.048C210.839 390.025 210.639 389.942 210.492 389.794C210.344 389.647 210.261 389.447 210.261 389.238V342.07C210.261 341.861 210.344 341.661 210.492 341.514C210.639 341.366 210.839 341.283 211.048 341.283H429.13C429.339 341.283 429.539 341.366 429.686 341.514C429.834 341.661 429.917 341.861 429.917 342.07V389.238C429.917 389.447 429.834 389.647 429.686 389.794C429.539 389.942 429.339 390.025 429.13 390.025ZM211.833 388.452H428.344V342.857H211.834L211.833 388.452Z" fill="#292A2E"/>
<path d="M234.875 375.331C240.219 375.331 244.552 370.998 244.552 365.654C244.552 360.31 240.219 355.977 234.875 355.977C229.531 355.977 225.198 360.31 225.198 365.654C225.198 370.998 229.531 375.331 234.875 375.331Z" fill="white"/>
<path d="M234.875 376.118C232.806 376.118 230.783 375.505 229.063 374.355C227.343 373.206 226.002 371.572 225.21 369.66C224.419 367.749 224.211 365.646 224.615 363.616C225.019 361.587 226.015 359.723 227.478 358.26C228.941 356.797 230.805 355.801 232.834 355.397C234.863 354.994 236.967 355.201 238.878 355.993C240.79 356.784 242.423 358.125 243.573 359.845C244.722 361.566 245.336 363.588 245.336 365.657C245.332 368.43 244.229 371.089 242.268 373.05C240.307 375.011 237.648 376.114 234.875 376.118V376.118ZM234.875 356.769C233.117 356.769 231.399 357.291 229.937 358.267C228.476 359.244 227.336 360.632 226.664 362.256C225.991 363.88 225.815 365.667 226.158 367.391C226.501 369.115 227.347 370.699 228.59 371.942C229.833 373.185 231.417 374.031 233.141 374.374C234.865 374.717 236.652 374.541 238.276 373.868C239.9 373.196 241.288 372.057 242.265 370.595C243.241 369.133 243.763 367.415 243.763 365.657C243.761 363.3 242.824 361.04 241.158 359.372C239.492 357.705 237.232 356.767 234.875 356.764V356.769Z" fill="#292A2E"/>
<path d="M385.224 365.469H257.038C256.829 365.469 256.629 365.386 256.481 365.239C256.334 365.091 256.251 364.891 256.251 364.683C256.251 364.474 256.334 364.274 256.481 364.126C256.629 363.979 256.829 363.896 257.038 363.896H385.224C385.432 363.896 385.632 363.979 385.78 364.126C385.927 364.274 386.01 364.474 386.01 364.683C386.01 364.891 385.927 365.091 385.78 365.239C385.632 365.386 385.432 365.469 385.224 365.469Z" fill="#292A2E"/>
<path d="M402.912 365.469H400.415C400.206 365.469 400.006 365.386 399.859 365.239C399.711 365.091 399.628 364.891 399.628 364.683C399.628 364.474 399.711 364.274 399.859 364.126C400.006 363.979 400.206 363.896 400.415 363.896H402.912C403.121 363.896 403.321 363.979 403.468 364.126C403.616 364.274 403.699 364.474 403.699 364.683C403.699 364.891 403.616 365.091 403.468 365.239C403.321 365.386 403.121 365.469 402.912 365.469Z" fill="#292A2E"/>
<path d="M394.149 365.469H391.652C391.444 365.469 391.244 365.386 391.096 365.239C390.949 365.091 390.866 364.891 390.866 364.683C390.866 364.474 390.949 364.274 391.096 364.126C391.244 363.979 391.444 363.896 391.652 363.896H394.149C394.357 363.896 394.557 363.979 394.705 364.126C394.852 364.274 394.935 364.474 394.935 364.683C394.935 364.891 394.852 365.091 394.705 365.239C394.557 365.386 394.357 365.469 394.149 365.469V365.469Z" fill="#292A2E"/>
<path d="M412.277 365.469H409.782C409.573 365.469 409.373 365.386 409.225 365.239C409.078 365.091 408.995 364.891 408.995 364.683C408.995 364.474 409.078 364.274 409.225 364.126C409.373 363.979 409.573 363.896 409.782 363.896H412.279C412.487 363.896 412.688 363.979 412.835 364.126C412.983 364.274 413.065 364.474 413.065 364.683C413.065 364.891 412.983 365.091 412.835 365.239C412.688 365.386 412.487 365.469 412.279 365.469H412.277Z" fill="#292A2E"/>
<path d="M509.776 407.551H299.557V454.719H509.776V407.551Z" fill="#367CFF"/>
<g opacity="0.5">
<path d="M509.776 407.551H299.557V454.719H509.776V407.551Z" fill="white"/>
</g>
<path d="M509.777 455.505H299.558C299.349 455.505 299.149 455.423 299.002 455.275C298.854 455.128 298.771 454.928 298.771 454.719V407.551C298.771 407.342 298.854 407.142 299.002 406.995C299.149 406.847 299.349 406.764 299.558 406.764H509.777C509.985 406.764 510.185 406.847 510.333 406.995C510.48 407.142 510.563 407.342 510.563 407.551V454.719C510.563 454.928 510.48 455.128 510.333 455.275C510.185 455.423 509.985 455.505 509.777 455.505ZM300.345 453.932H508.99V408.337H300.345V453.932Z" fill="#292A2E"/>
<path d="M323.384 440.812C328.728 440.812 333.061 436.479 333.061 431.135C333.061 425.791 328.728 421.458 323.384 421.458C318.04 421.458 313.708 425.791 313.708 431.135C313.708 436.479 318.04 440.812 323.384 440.812Z" fill="white"/>
<path d="M323.385 441.597C321.316 441.597 319.294 440.984 317.573 439.834C315.853 438.685 314.512 437.051 313.721 435.14C312.929 433.228 312.722 431.125 313.125 429.096C313.529 427.066 314.525 425.203 315.988 423.74C317.451 422.277 319.315 421.28 321.344 420.877C323.374 420.473 325.477 420.68 327.388 421.472C329.3 422.264 330.934 423.604 332.083 425.325C333.232 427.045 333.846 429.068 333.846 431.136C333.842 433.91 332.739 436.568 330.778 438.529C328.817 440.49 326.158 441.594 323.385 441.597V441.597ZM323.385 422.245C321.627 422.245 319.909 422.766 318.447 423.743C316.986 424.719 315.847 426.107 315.174 427.731C314.501 429.355 314.325 431.142 314.668 432.866C315.011 434.591 315.858 436.174 317.101 437.417C318.344 438.66 319.927 439.507 321.651 439.85C323.375 440.192 325.162 440.016 326.786 439.344C328.41 438.671 329.798 437.532 330.775 436.07C331.752 434.609 332.273 432.89 332.273 431.133C332.27 428.776 331.332 426.518 329.666 424.851C328 423.185 325.741 422.248 323.385 422.245V422.245Z" fill="#292A2E"/>
<path d="M465.869 430.95H345.547C345.339 430.95 345.139 430.867 344.991 430.72C344.844 430.572 344.761 430.372 344.761 430.164C344.761 429.955 344.844 429.755 344.991 429.607C345.139 429.46 345.339 429.377 345.547 429.377H465.869C466.077 429.377 466.277 429.46 466.425 429.607C466.572 429.755 466.655 429.955 466.655 430.164C466.655 430.372 466.572 430.572 466.425 430.72C466.277 430.867 466.077 430.95 465.869 430.95Z" fill="#292A2E"/>
<path d="M483.558 430.95H481.061C480.853 430.95 480.653 430.867 480.505 430.72C480.358 430.572 480.275 430.372 480.275 430.164C480.275 429.955 480.358 429.755 480.505 429.607C480.653 429.46 480.853 429.377 481.061 429.377H483.558C483.766 429.377 483.967 429.46 484.114 429.607C484.262 429.755 484.344 429.955 484.344 430.164C484.344 430.372 484.262 430.572 484.114 430.72C483.967 430.867 483.766 430.95 483.558 430.95Z" fill="#292A2E"/>
<path d="M474.794 430.95H472.296C472.088 430.95 471.888 430.867 471.74 430.72C471.593 430.572 471.51 430.372 471.51 430.164C471.51 429.955 471.593 429.755 471.74 429.607C471.888 429.46 472.088 429.377 472.296 429.377H474.794C475.002 429.377 475.202 429.46 475.35 429.607C475.497 429.755 475.58 429.955 475.58 430.164C475.58 430.372 475.497 430.572 475.35 430.72C475.202 430.867 475.002 430.95 474.794 430.95Z" fill="#292A2E"/>
<path d="M492.921 430.95H490.424C490.216 430.95 490.016 430.867 489.868 430.72C489.721 430.572 489.638 430.372 489.638 430.164C489.638 429.955 489.721 429.755 489.868 429.607C490.016 429.46 490.216 429.377 490.424 429.377H492.921C493.13 429.377 493.33 429.46 493.478 429.607C493.625 429.755 493.708 429.955 493.708 430.164C493.708 430.372 493.625 430.572 493.478 430.72C493.33 430.867 493.13 430.95 492.921 430.95V430.95Z" fill="#292A2E"/>
<path d="M509.776 473.032H299.557V520.2H509.776V473.032Z" fill="#367CFF"/>
<g opacity="0.5">
<path d="M509.776 473.032H299.557V520.2H509.776V473.032Z" fill="white"/>
</g>
<path d="M509.777 520.986H299.558C299.349 520.986 299.149 520.903 299.002 520.756C298.854 520.608 298.771 520.408 298.771 520.2V473.032C298.771 472.823 298.854 472.623 299.002 472.475C299.149 472.328 299.349 472.245 299.558 472.245H509.777C509.985 472.245 510.185 472.328 510.333 472.475C510.48 472.623 510.563 472.823 510.563 473.032V520.2C510.563 520.408 510.48 520.608 510.333 520.756C510.185 520.903 509.985 520.986 509.777 520.986ZM300.345 519.413H508.99V473.818H300.345V519.413Z" fill="#292A2E"/>
<path d="M323.384 506.292C328.728 506.292 333.061 501.96 333.061 496.616C333.061 491.271 328.728 486.939 323.384 486.939C318.04 486.939 313.708 491.271 313.708 496.616C313.708 501.96 318.04 506.292 323.384 506.292Z" fill="white"/>
<path d="M323.385 507.075C321.316 507.075 319.294 506.461 317.573 505.312C315.853 504.163 314.512 502.529 313.721 500.617C312.929 498.706 312.722 496.603 313.125 494.573C313.529 492.544 314.525 490.68 315.988 489.217C317.451 487.754 319.315 486.758 321.344 486.354C323.374 485.951 325.477 486.158 327.388 486.95C329.3 487.741 330.934 489.082 332.083 490.802C333.232 492.523 333.846 494.545 333.846 496.614C333.842 499.387 332.739 502.046 330.778 504.007C328.817 505.968 326.158 507.071 323.385 507.075V507.075ZM323.385 487.726C321.627 487.726 319.909 488.248 318.447 489.224C316.986 490.201 315.847 491.589 315.174 493.213C314.501 494.837 314.325 496.624 314.668 498.348C315.011 500.072 315.858 501.656 317.101 502.899C318.344 504.142 319.927 504.988 321.651 505.331C323.375 505.674 325.162 505.498 326.786 504.825C328.41 504.153 329.798 503.014 330.775 501.552C331.752 500.09 332.273 498.372 332.273 496.614C332.27 494.258 331.332 491.999 329.666 490.333C328 488.667 325.741 487.729 323.385 487.726V487.726Z" fill="#292A2E"/>
<path d="M465.869 496.431H345.547C345.339 496.431 345.139 496.348 344.991 496.201C344.844 496.053 344.761 495.853 344.761 495.644C344.761 495.436 344.844 495.236 344.991 495.088C345.139 494.941 345.339 494.858 345.547 494.858H465.869C466.077 494.858 466.277 494.941 466.425 495.088C466.572 495.236 466.655 495.436 466.655 495.644C466.655 495.853 466.572 496.053 466.425 496.201C466.277 496.348 466.077 496.431 465.869 496.431Z" fill="#292A2E"/>
<path d="M483.558 496.431H481.061C480.853 496.431 480.653 496.348 480.505 496.201C480.358 496.053 480.275 495.853 480.275 495.644C480.275 495.436 480.358 495.236 480.505 495.088C480.653 494.941 480.853 494.858 481.061 494.858H483.558C483.766 494.858 483.967 494.941 484.114 495.088C484.262 495.236 484.344 495.436 484.344 495.644C484.344 495.853 484.262 496.053 484.114 496.201C483.967 496.348 483.766 496.431 483.558 496.431Z" fill="#292A2E"/>
<path d="M474.794 496.431H472.296C472.088 496.431 471.888 496.348 471.74 496.201C471.593 496.053 471.51 495.853 471.51 495.644C471.51 495.436 471.593 495.236 471.74 495.088C471.888 494.941 472.088 494.858 472.296 494.858H474.794C475.002 494.858 475.202 494.941 475.35 495.088C475.497 495.236 475.58 495.436 475.58 495.644C475.58 495.853 475.497 496.053 475.35 496.201C475.202 496.348 475.002 496.431 474.794 496.431Z" fill="#292A2E"/>
<path d="M492.921 496.431H490.424C490.216 496.431 490.016 496.348 489.868 496.201C489.721 496.053 489.638 495.853 489.638 495.644C489.638 495.436 489.721 495.236 489.868 495.088C490.016 494.941 490.216 494.858 490.424 494.858H492.921C493.13 494.858 493.33 494.941 493.478 495.088C493.625 495.236 493.708 495.436 493.708 495.644C493.708 495.853 493.625 496.053 493.478 496.201C493.33 496.348 493.13 496.431 492.921 496.431V496.431Z" fill="#292A2E"/>
<path d="M509.776 538.513H299.557V585.681H509.776V538.513Z" fill="#367CFF"/>
<g opacity="0.5">
<path d="M509.776 538.513H299.557V585.681H509.776V538.513Z" fill="white"/>
</g>
<path d="M509.777 586.467H299.558C299.349 586.467 299.149 586.384 299.002 586.237C298.854 586.089 298.771 585.889 298.771 585.681V538.513C298.771 538.304 298.854 538.104 299.002 537.956C299.149 537.809 299.349 537.726 299.558 537.726H509.777C509.985 537.726 510.185 537.809 510.333 537.956C510.48 538.104 510.563 538.304 510.563 538.513V585.681C510.563 585.889 510.48 586.089 510.333 586.237C510.185 586.384 509.985 586.467 509.777 586.467ZM300.345 584.894H508.99V539.299H300.345V584.894Z" fill="#292A2E"/>
<path d="M323.384 571.773C328.728 571.773 333.061 567.441 333.061 562.097C333.061 556.752 328.728 552.42 323.384 552.42C318.04 552.42 313.708 556.752 313.708 562.097C313.708 567.441 318.04 571.773 323.384 571.773Z" fill="white"/>
<path d="M323.385 572.559C321.316 572.559 319.294 571.946 317.573 570.796C315.853 569.647 314.512 568.013 313.721 566.101C312.929 564.19 312.722 562.087 313.125 560.057C313.529 558.028 314.525 556.164 315.988 554.701C317.451 553.238 319.315 552.242 321.344 551.838C323.374 551.435 325.477 551.642 327.388 552.434C329.3 553.225 330.934 554.566 332.083 556.287C333.232 558.007 333.846 560.029 333.846 562.098C333.842 564.871 332.739 567.53 330.778 569.491C328.817 571.452 326.158 572.555 323.385 572.559V572.559ZM323.385 553.207C321.627 553.207 319.909 553.728 318.447 554.704C316.986 555.681 315.847 557.069 315.174 558.693C314.501 560.317 314.325 562.104 314.668 563.828C315.011 565.552 315.858 567.136 317.101 568.379C318.344 569.622 319.927 570.468 321.651 570.811C323.375 571.154 325.162 570.978 326.786 570.306C328.41 569.633 329.798 568.494 330.775 567.032C331.752 565.57 332.273 563.852 332.273 562.094C332.27 559.738 331.332 557.479 329.666 555.813C328 554.147 325.741 553.21 323.385 553.207V553.207Z" fill="#292A2E"/>
<path d="M465.869 561.912H345.547C345.339 561.912 345.139 561.829 344.991 561.682C344.844 561.534 344.761 561.334 344.761 561.125C344.761 560.917 344.844 560.717 344.991 560.569C345.139 560.422 345.339 560.339 345.547 560.339H465.869C466.077 560.339 466.277 560.422 466.425 560.569C466.572 560.717 466.655 560.917 466.655 561.125C466.655 561.334 466.572 561.534 466.425 561.682C466.277 561.829 466.077 561.912 465.869 561.912Z" fill="#292A2E"/>
<path d="M483.558 561.912H481.061C480.853 561.912 480.653 561.829 480.505 561.682C480.358 561.534 480.275 561.334 480.275 561.125C480.275 560.917 480.358 560.717 480.505 560.569C480.653 560.422 480.853 560.339 481.061 560.339H483.558C483.766 560.339 483.967 560.422 484.114 560.569C484.262 560.717 484.344 560.917 484.344 561.125C484.344 561.334 484.262 561.534 484.114 561.682C483.967 561.829 483.766 561.912 483.558 561.912Z" fill="#292A2E"/>
<path d="M474.794 561.912H472.296C472.088 561.912 471.888 561.829 471.74 561.682C471.593 561.534 471.51 561.334 471.51 561.125C471.51 560.917 471.593 560.717 471.74 560.569C471.888 560.422 472.088 560.339 472.296 560.339H474.794C475.002 560.339 475.202 560.422 475.35 560.569C475.497 560.717 475.58 560.917 475.58 561.125C475.58 561.334 475.497 561.534 475.35 561.682C475.202 561.829 475.002 561.912 474.794 561.912Z" fill="#292A2E"/>
<path d="M492.921 561.912H490.424C490.216 561.912 490.016 561.829 489.868 561.682C489.721 561.534 489.638 561.334 489.638 561.125C489.638 560.917 489.721 560.717 489.868 560.569C490.016 560.422 490.216 560.339 490.424 560.339H492.921C493.13 560.339 493.33 560.422 493.478 560.569C493.625 560.717 493.708 560.917 493.708 561.125C493.708 561.334 493.625 561.534 493.478 561.682C493.33 561.829 493.13 561.912 492.921 561.912V561.912Z" fill="#292A2E"/>
<path d="M60.8291 587.633C60.8291 587.633 52.0318 600.636 61.6298 611.447C71.2278 622.259 60.885 628.177 60.885 628.177L21.8857 589.179L41.3712 569.694L60.8291 587.633Z" fill="#367CFF"/>
<path d="M62.9023 320.182C62.9023 320.182 63.0753 315.549 63.0392 326.06C62.9778 343.515 64.6389 389.642 63.4717 449.093C62.5389 496.616 29.4575 578.162 29.4575 578.162L59.2945 599.579C59.2945 599.579 104.176 526.782 111.299 454.717C114.945 417.828 122.404 318.587 122.404 318.587L62.9023 320.182Z" fill="#262626"/>
<path d="M154.972 601.37C154.972 601.37 157.946 616.786 172.378 617.644C186.811 618.501 183.681 630 183.681 630H128.528V602.445L154.972 601.37Z" fill="#367CFF"/>
<path d="M161.982 323.227C161.982 323.227 166.51 457.229 166.039 463.78L161.782 610.195L126.139 610.854L120.392 458.485C120.392 458.485 116.625 416.454 106.47 377.425C101.273 357.394 98.1456 336.882 97.1362 316.212V316.212L161.982 323.227Z" fill="#262626"/>
<path d="M114.961 418.233L117.933 372.782C117.933 372.782 120.986 391.678 120.986 407.965C120.986 415.926 119.346 447.444 119.346 447.444L114.961 418.233Z" fill="#0A0A0A"/>
<path d="M62.5086 320.179L62.3906 320.185C62.3906 320.185 62.4764 317.899 62.5086 320.179Z" fill="#333333"/>
<path d="M62.6578 320.179L62.5391 320.185C62.5391 320.185 62.6248 317.899 62.6578 320.179Z" fill="#333333"/>
<path d="M85.9965 150.899C85.9965 150.899 83.1249 166.201 78.9854 171.381C67.0687 186.298 62.0081 204.076 70.8802 214.74C79.7522 225.403 143.548 233.165 150.986 211.964C157.247 194.115 148.75 191.1 148.433 175.721C148.29 168.762 147.36 154.091 147.36 154.091" fill="#0A0A0A"/>
<path d="M137.75 203.878C137.639 203.864 136.408 224.29 112.68 222.509C96.2513 221.278 90.394 203.849 90.0181 203.849C91.7885 203.473 94.7719 202.925 95.5584 202.505C98.1453 201.115 101.346 199.674 102.179 194.646C102.66 191.751 101.844 176.938 102.095 174.009L127.312 179.637C126.96 185.825 124.493 200.165 133.137 202.706C134.575 203.125 136.124 203.511 137.75 203.878Z" fill="#E98862"/>
<path opacity="0.52" d="M127.665 196.844C127.27 195.571 127.016 194.258 126.907 192.93C126.63 189.899 126.685 186.847 127.071 183.828C121.946 183.136 117.118 181.02 113.135 177.722C112.667 179.452 110.092 187.007 110.804 188.654C112.153 191.756 118.486 196.844 127.665 196.844Z" fill="#0C0C0C"/>
<path d="M123.19 191.908C113.201 191.683 100.904 186.208 99.83 172.746L98.861 160.599C97.7866 147.137 103.987 135.659 116.662 134.648C129.337 133.637 139.683 143.794 140.756 157.256L141.186 162.634C141.597 167.799 141.006 192.31 123.19 191.908Z" fill="#E98862"/>
<path d="M136.996 165.513C137.861 165.513 138.562 164.812 138.562 163.947C138.562 163.082 137.861 162.381 136.996 162.381C136.131 162.381 135.43 163.082 135.43 163.947C135.43 164.812 136.131 165.513 136.996 165.513Z" fill="#0C0C0C"/>
<path d="M121.164 165.611C122.028 165.611 122.73 164.91 122.73 164.045C122.73 163.181 122.028 162.479 121.164 162.479C120.299 162.479 119.598 163.181 119.598 164.045C119.598 164.91 120.299 165.611 121.164 165.611Z" fill="#0C0C0C"/>
<path opacity="0.52" d="M129.091 174.04H129.117C129.63 173.995 130.141 173.922 130.647 173.821C131.403 173.664 132.401 173.379 132.348 172.706C132.287 171.939 129.526 163.83 129.21 162.908C129.197 162.868 129.176 162.83 129.148 162.798C129.12 162.766 129.087 162.739 129.049 162.72C129.01 162.701 128.969 162.69 128.926 162.687C128.884 162.684 128.841 162.69 128.801 162.703C128.761 162.717 128.724 162.739 128.692 162.767C128.66 162.795 128.634 162.83 128.616 162.868C128.597 162.907 128.587 162.948 128.584 162.991C128.582 163.033 128.589 163.076 128.603 163.116C129.783 166.569 131.67 172.24 131.708 172.757C131.6 172.983 130.34 173.297 129.065 173.4C128.982 173.405 128.904 173.443 128.849 173.506C128.793 173.568 128.764 173.649 128.767 173.733C128.77 173.816 128.806 173.895 128.867 173.953C128.927 174.01 129.008 174.042 129.091 174.041V174.04Z" fill="#0C0C0C"/>
<path opacity="0.52" d="M126.638 179.538C128.692 179.493 130.708 178.966 132.521 178C132.559 177.981 132.592 177.955 132.62 177.923C132.647 177.891 132.668 177.854 132.681 177.814C132.694 177.774 132.699 177.731 132.696 177.689C132.693 177.647 132.682 177.606 132.662 177.569C132.643 177.531 132.617 177.498 132.585 177.47C132.553 177.443 132.516 177.422 132.476 177.409C132.395 177.382 132.307 177.389 132.231 177.427C128.317 179.416 124.642 179.41 121.603 177.409C121.542 177.367 121.478 177.327 121.412 177.292C121.336 177.259 121.251 177.256 121.173 177.285C121.095 177.314 121.032 177.371 120.995 177.446C120.959 177.52 120.953 177.606 120.978 177.685C121.004 177.763 121.059 177.829 121.132 177.869C121.155 177.882 121.195 177.909 121.25 177.947C122.848 179.002 124.724 179.555 126.638 179.538V179.538Z" fill="#0C0C0C"/>
<path d="M88.4759 163.677L99.831 162.836C108.632 160.333 112.757 146.009 112.757 146.009C112.757 146.009 121.924 157.099 147.36 154.096C147.36 154.096 146.116 118.938 108.356 125.052C96.1815 127.018 86.412 138.024 85.749 154.064C85.2865 165.304 88.4759 163.677 88.4759 163.677Z" fill="#0A0A0A"/>
<path d="M100.943 176.784C97.0895 177.092 93.6406 173.22 93.333 169.368C93.0255 165.516 95.9789 163.143 99.8306 162.835L102.022 165.258L104.256 176.52L100.943 176.784Z" fill="#E98862"/>
<path d="M132.165 156.843C133.343 156.251 134.658 155.986 135.974 156.078C136.622 156.118 137.26 156.256 137.866 156.487C138.468 156.712 139.038 157.012 139.564 157.38C139.64 157.427 139.694 157.502 139.714 157.589C139.734 157.676 139.719 157.767 139.672 157.842C139.625 157.918 139.55 157.971 139.464 157.992C139.377 158.012 139.286 157.997 139.21 157.95L139.188 157.937C138.698 157.626 138.171 157.379 137.62 157.2C137.075 157.021 136.506 156.925 135.933 156.916C134.797 156.889 133.673 157.163 132.677 157.71L132.644 157.729C132.529 157.789 132.395 157.802 132.269 157.766C132.144 157.729 132.038 157.645 131.974 157.532C131.909 157.419 131.891 157.285 131.922 157.159C131.954 157.032 132.034 156.923 132.144 156.854L132.165 156.843Z" fill="#0C0C0C"/>
<path d="M121.983 158.11C120.913 157.724 119.761 157.626 118.642 157.828C118.077 157.926 117.53 158.108 117.02 158.369C116.503 158.631 116.02 158.957 115.584 159.338L115.564 159.355C115.497 159.413 115.41 159.442 115.321 159.435C115.232 159.429 115.15 159.387 115.092 159.32C115.034 159.253 115.005 159.165 115.011 159.076C115.018 158.988 115.059 158.905 115.126 158.847C115.59 158.403 116.107 158.018 116.666 157.702C117.231 157.381 117.841 157.146 118.475 157.006C119.761 156.713 121.101 156.772 122.356 157.176C122.421 157.195 122.482 157.226 122.534 157.269C122.587 157.312 122.63 157.365 122.661 157.425C122.693 157.484 122.712 157.55 122.718 157.617C122.724 157.685 122.716 157.753 122.694 157.817C122.673 157.881 122.639 157.94 122.595 157.991C122.55 158.042 122.496 158.084 122.435 158.113C122.374 158.142 122.308 158.159 122.24 158.162C122.172 158.166 122.105 158.155 122.042 158.132L122.021 158.124L121.983 158.11Z" fill="#0C0C0C"/>
<path opacity="0.52" d="M126.746 182.579C127.118 182.577 127.488 182.543 127.854 182.479C127.931 182.457 127.997 182.408 128.04 182.341C128.082 182.273 128.098 182.193 128.085 182.114C128.071 182.035 128.028 181.965 127.965 181.916C127.902 181.867 127.824 181.843 127.744 181.849C127.171 181.995 126.574 182.017 125.992 181.913C125.41 181.809 124.856 181.582 124.369 181.248C124.337 181.22 124.3 181.199 124.261 181.185C124.221 181.172 124.178 181.166 124.136 181.169C124.051 181.174 123.972 181.214 123.916 181.278C123.86 181.342 123.832 181.425 123.837 181.51C123.843 181.595 123.882 181.674 123.946 181.731C124.753 182.329 125.743 182.629 126.746 182.579V182.579Z" fill="#0C0C0C"/>
<path d="M99.8702 162.697L99.7915 162.376C114.446 158.837 112.489 144.616 112.468 144.473L112.793 144.424C112.816 144.569 114.822 159.082 99.8702 162.697Z" fill="#0C0C0C"/>
<path opacity="0.1" d="M118.975 173.931C120.623 173.931 121.959 172.952 121.959 171.743C121.959 170.535 120.623 169.555 118.975 169.555C117.328 169.555 115.992 170.535 115.992 171.743C115.992 172.952 117.328 173.931 118.975 173.931Z" fill="#0C0C0C"/>
<path opacity="0.1" d="M136.709 171.22C136.709 172.428 138.047 173.407 139.698 173.409C139.983 173.409 140.267 173.379 140.545 173.321C140.791 171.911 140.958 170.547 141.068 169.278C140.63 169.112 140.165 169.028 139.697 169.032C138.047 169.03 136.711 170.009 136.709 171.22Z" fill="#0C0C0C"/>
<path d="M167.232 248.847C166.485 257.628 162.85 312.411 162.131 323.227H63.092C62.532 313.474 60.0198 270.817 57.9009 251.74C55.8756 233.538 51.902 224.424 54.8146 219.043C59.5739 210.247 72.5791 205.164 81.4464 203.964C86.8617 203.231 95.0062 202.706 95.0062 202.706C95.0062 202.706 95.6952 216.656 112.138 217.432C134.522 218.488 133.028 202.706 133.139 202.706C136.765 202.706 157.48 205.001 162.548 208.005C176.356 216.183 168.82 230.239 167.232 248.847Z" fill="#367CFF"/>
<path d="M242.511 264.903C242.625 264.589 242.802 264.301 243.031 264.058C243.26 263.814 243.536 263.62 243.842 263.486C244.149 263.353 244.479 263.283 244.813 263.282C245.147 263.28 245.478 263.347 245.786 263.478C246.373 263.751 246.834 264.237 247.076 264.838C247.318 265.439 247.323 266.109 247.089 266.713L245.956 269.837L253.076 262.576C253.961 261.647 255.641 261.073 256.616 262.134C257.462 262.94 259.418 263.188 259.736 264.699C259.747 264.707 259.727 278.529 258.906 279.391C255.423 283.048 247.005 283.755 242.31 281.898L234.917 278.975L242.511 264.903Z" fill="#E98862"/>
<g opacity="0.1">
<path d="M242.511 264.903C242.625 264.589 242.802 264.301 243.031 264.058C243.26 263.814 243.536 263.62 243.842 263.486C244.149 263.353 244.479 263.283 244.813 263.282C245.147 263.28 245.478 263.347 245.786 263.478C246.373 263.751 246.834 264.237 247.076 264.838C247.318 265.439 247.323 266.109 247.089 266.713L245.956 269.837L253.076 262.576C253.961 261.647 255.641 261.073 256.616 262.134C257.462 262.94 259.418 263.188 259.736 264.699C259.747 264.707 259.727 278.529 258.906 279.391C255.423 283.048 247.005 283.755 242.31 281.898L234.917 278.975L242.511 264.903Z" fill="#0C0C0C"/>
</g>
<path d="M201.889 233.127L201.987 238.074C202.008 238.588 201.908 239.1 201.696 239.569C201.484 240.037 201.166 240.45 200.767 240.775C200.369 241.1 199.9 241.327 199.398 241.439C198.896 241.552 198.375 241.546 197.876 241.422L146.86 232.812C146.36 232.689 145.839 232.683 145.337 232.795C144.835 232.907 144.366 233.135 143.967 233.46C143.569 233.784 143.251 234.197 143.039 234.666C142.827 235.135 142.728 235.647 142.748 236.161L138.036 301.476C138.117 302.632 138.582 303.728 139.356 304.591C140.13 305.453 141.169 306.033 142.31 306.24L241.491 323.701C241.99 323.824 242.511 323.83 243.013 323.718C243.515 323.606 243.984 323.378 244.383 323.054C244.782 322.729 245.1 322.316 245.312 321.847C245.524 321.378 245.624 320.866 245.604 320.352L247.64 241.238C247.558 240.082 247.094 238.986 246.32 238.123C245.546 237.261 244.506 236.681 243.366 236.475L206 229.78C205.501 229.657 204.98 229.651 204.478 229.763C203.976 229.876 203.508 230.103 203.109 230.428C202.71 230.752 202.393 231.165 202.181 231.634C201.969 232.102 201.869 232.613 201.889 233.127V233.127Z" fill="#262626"/>
<path d="M242.205 324.543C241.923 324.543 241.641 324.519 241.363 324.471L142.173 307.01C140.856 306.767 139.657 306.092 138.765 305.092C137.874 304.093 137.341 302.825 137.249 301.488L141.963 236.102C141.944 235.508 142.057 234.918 142.294 234.373C142.532 233.829 142.888 233.345 143.337 232.956C143.84 232.543 144.429 232.246 145.06 232.086C145.692 231.926 146.351 231.907 146.99 232.031L198.007 240.638C198.418 240.727 198.844 240.722 199.253 240.624C199.662 240.526 200.044 240.338 200.371 240.074C200.65 239.825 200.869 239.517 201.013 239.172C201.156 238.828 201.221 238.455 201.201 238.082L201.103 233.135C201.077 232.53 201.187 231.928 201.425 231.372C201.664 230.815 202.023 230.319 202.478 229.92C202.982 229.508 203.571 229.211 204.202 229.051C204.834 228.891 205.493 228.872 206.132 228.995L243.507 235.692C244.829 235.923 246.035 236.594 246.928 237.597C247.822 238.599 248.35 239.874 248.428 241.214L246.391 320.363C246.413 320.962 246.301 321.558 246.063 322.108C245.826 322.658 245.468 323.148 245.017 323.542C244.23 324.203 243.232 324.558 242.205 324.543V324.543ZM146.131 233.535C145.487 233.519 144.859 233.738 144.364 234.15C144.086 234.399 143.867 234.708 143.723 235.052C143.579 235.397 143.515 235.77 143.534 236.143L138.822 301.53C138.909 302.492 139.311 303.398 139.965 304.109C140.619 304.82 141.489 305.296 142.44 305.463L241.629 322.924C242.04 323.011 242.465 323.005 242.873 322.907C243.281 322.809 243.662 322.621 243.989 322.357C244.267 322.108 244.486 321.8 244.63 321.456C244.773 321.111 244.837 320.739 244.818 320.366L246.855 241.216C246.775 240.248 246.376 239.334 245.722 238.616C245.067 237.898 244.193 237.417 243.237 237.249L205.863 230.552C205.452 230.466 205.027 230.472 204.619 230.57C204.211 230.668 203.83 230.855 203.503 231.118C203.225 231.367 203.006 231.676 202.862 232.02C202.718 232.365 202.653 232.738 202.672 233.111L202.771 238.057C202.797 238.662 202.686 239.264 202.448 239.82C202.21 240.377 201.851 240.873 201.396 241.272C200.893 241.685 200.304 241.982 199.673 242.142C199.041 242.302 198.382 242.321 197.743 242.197L146.726 233.588C146.529 233.554 146.33 233.536 146.131 233.535Z" fill="#292A2E"/>
<path d="M232.373 307.243L151.52 296.949L164.937 191.576L230.324 199.902L243.729 218.047L232.373 307.243Z" fill="white"/>
<path d="M232.373 308.031C232.339 308.03 232.306 308.028 232.274 308.024L151.418 297.729C151.211 297.703 151.023 297.596 150.896 297.431C150.768 297.266 150.711 297.057 150.737 296.85L164.153 191.476C164.18 191.27 164.287 191.082 164.452 190.953C164.618 190.827 164.826 190.771 165.033 190.796L230.42 199.122C230.526 199.136 230.628 199.171 230.72 199.225C230.811 199.279 230.891 199.351 230.954 199.437L244.36 217.582C244.48 217.745 244.533 217.948 244.508 218.148L233.15 307.346C233.126 307.535 233.034 307.71 232.89 307.837C232.747 307.963 232.562 308.033 232.37 308.033L232.373 308.031ZM152.399 296.269L231.692 306.365L242.909 218.262L229.891 200.643L165.617 192.458L152.399 296.269Z" fill="#292A2E"/>
<path d="M230.324 199.902L228.294 215.838L243.729 218.047L230.324 199.902Z" fill="white"/>
<path d="M243.729 218.834C243.692 218.834 243.655 218.831 243.618 218.826L228.183 216.616C227.979 216.587 227.794 216.479 227.669 216.315C227.544 216.15 227.488 215.943 227.514 215.739L229.543 199.803C229.563 199.646 229.628 199.499 229.732 199.38C229.836 199.262 229.973 199.177 230.126 199.137C230.279 199.098 230.44 199.105 230.588 199.158C230.737 199.211 230.866 199.307 230.959 199.435L244.365 217.58C244.451 217.697 244.503 217.836 244.516 217.981C244.528 218.126 244.5 218.272 244.434 218.402C244.368 218.532 244.268 218.641 244.144 218.717C244.02 218.793 243.877 218.834 243.732 218.834H243.729ZM229.173 215.168L241.98 217.001L230.856 201.947L229.173 215.168Z" fill="#292A2E"/>
<path d="M229.17 307.948L152.812 279.442L189.964 179.927L251.716 202.98L260.618 223.71L229.17 307.948Z" fill="#367CFF"/>
<g opacity="0.43">
<path d="M229.17 307.948L152.812 279.442L189.964 179.927L251.716 202.98L260.618 223.71L229.17 307.948Z" fill="white"/>
</g>
<path d="M229.17 308.735C229.076 308.735 228.983 308.718 228.895 308.685L152.537 280.179C152.341 280.106 152.183 279.958 152.096 279.769C152.01 279.579 152.002 279.363 152.075 279.167L189.227 179.652C189.263 179.555 189.318 179.466 189.388 179.391C189.458 179.315 189.543 179.254 189.637 179.211C189.731 179.168 189.833 179.144 189.936 179.141C190.039 179.137 190.142 179.154 190.239 179.19L251.991 202.244C252.09 202.281 252.182 202.338 252.259 202.411C252.336 202.485 252.397 202.573 252.439 202.67L261.341 223.399C261.421 223.585 261.426 223.795 261.355 223.984L229.907 308.222C229.851 308.372 229.75 308.502 229.619 308.593C229.487 308.685 229.331 308.734 229.17 308.735ZM153.821 278.98L228.706 306.937L259.769 223.73L251.124 203.599L190.423 180.939L153.821 278.98Z" fill="#292A2E"/>
<path d="M251.715 202.98L246.097 218.03L260.618 223.71L251.715 202.98Z" fill="white"/>
<path d="M260.618 224.497C260.52 224.496 260.423 224.478 260.332 224.442L245.811 218.764C245.619 218.688 245.463 218.54 245.379 218.352C245.295 218.163 245.289 217.949 245.361 217.755L250.979 202.706C251.034 202.559 251.132 202.431 251.259 202.34C251.387 202.249 251.539 202.198 251.697 202.194H251.716C251.87 202.194 252.021 202.239 252.149 202.324C252.278 202.408 252.378 202.529 252.439 202.67L261.341 223.399C261.393 223.519 261.415 223.65 261.404 223.78C261.393 223.911 261.349 224.036 261.278 224.146C261.206 224.255 261.108 224.345 260.993 224.407C260.878 224.469 260.749 224.501 260.618 224.5V224.497ZM247.105 217.581L259.154 222.293L251.767 205.093L247.105 217.581Z" fill="#292A2E"/>
<path d="M246.053 232.406C245.959 232.406 245.866 232.389 245.778 232.356L189.269 211.244C189.078 211.167 188.925 211.019 188.841 210.831C188.758 210.643 188.752 210.43 188.824 210.238C188.896 210.045 189.04 209.888 189.226 209.801C189.413 209.713 189.626 209.703 189.82 209.77L246.329 230.883C246.501 230.948 246.645 231.071 246.736 231.231C246.827 231.391 246.859 231.578 246.826 231.759C246.793 231.94 246.698 232.104 246.557 232.222C246.416 232.341 246.238 232.406 246.053 232.406H246.053Z" fill="#292A2E"/>
<path d="M241.867 242.823C241.773 242.822 241.68 242.805 241.592 242.772L185.083 221.659C184.892 221.583 184.739 221.435 184.655 221.247C184.572 221.059 184.566 220.846 184.638 220.654C184.71 220.461 184.854 220.304 185.04 220.217C185.227 220.129 185.44 220.119 185.634 220.186L242.143 241.299C242.316 241.364 242.46 241.487 242.551 241.647C242.643 241.807 242.675 241.994 242.642 242.176C242.609 242.357 242.514 242.522 242.372 242.64C242.23 242.758 242.052 242.823 241.867 242.823H241.867Z" fill="#292A2E"/>
<path d="M237.941 253.283C237.847 253.284 237.754 253.267 237.666 253.234L181.158 232.121C181.059 232.087 180.968 232.033 180.89 231.963C180.812 231.892 180.749 231.807 180.705 231.713C180.66 231.618 180.635 231.515 180.631 231.41C180.627 231.306 180.643 231.201 180.68 231.103C180.717 231.005 180.773 230.915 180.845 230.839C180.916 230.763 181.003 230.702 181.098 230.659C181.194 230.617 181.297 230.594 181.402 230.592C181.507 230.59 181.611 230.609 181.708 230.648L238.217 251.761C238.389 251.826 238.533 251.949 238.624 252.109C238.715 252.269 238.747 252.456 238.714 252.637C238.681 252.818 238.586 252.982 238.445 253.1C238.304 253.218 238.126 253.283 237.942 253.283H237.941Z" fill="#292A2E"/>
<path d="M213.627 233.127L212.762 238.074C212.574 239.15 211.967 240.107 211.073 240.735C210.18 241.362 209.074 241.61 207.999 241.422L158.658 232.813C158.125 232.72 157.58 232.732 157.052 232.85C156.524 232.968 156.025 233.189 155.583 233.5C155.141 233.811 154.764 234.206 154.474 234.662C154.185 235.119 153.988 235.628 153.895 236.161L142.371 302.217C142.184 303.293 142.431 304.399 143.059 305.292C143.686 306.186 144.643 306.793 145.719 306.981L241.547 323.696C242.623 323.883 243.729 323.636 244.622 323.008C245.515 322.38 246.123 321.423 246.31 320.348L249.179 303.904L258.539 250.236L260.112 241.233C260.205 240.7 260.192 240.155 260.074 239.627C259.956 239.099 259.735 238.6 259.424 238.158C259.113 237.716 258.718 237.339 258.262 237.049C257.805 236.76 257.296 236.563 256.763 236.47L218.389 229.776C217.856 229.683 217.31 229.696 216.782 229.814C216.255 229.933 215.756 230.154 215.314 230.465C214.871 230.776 214.495 231.172 214.205 231.628C213.916 232.085 213.719 232.594 213.627 233.127V233.127Z" fill="white"/>
<path d="M242.256 324.544C241.974 324.544 241.691 324.519 241.413 324.471L145.586 307.753C144.306 307.528 143.167 306.804 142.42 305.741C141.672 304.677 141.377 303.361 141.599 302.08L153.122 236.023C153.346 234.742 154.069 233.602 155.133 232.854C156.197 232.107 157.514 231.812 158.796 232.035L208.138 240.643C208.569 240.719 209.01 240.709 209.437 240.613C209.864 240.518 210.268 240.34 210.626 240.088C210.984 239.837 211.289 239.517 211.523 239.148C211.757 238.778 211.917 238.366 211.992 237.935L212.857 232.989C212.967 232.354 213.202 231.748 213.547 231.204C213.891 230.66 214.34 230.19 214.867 229.819C215.394 229.449 215.988 229.186 216.617 229.045C217.245 228.905 217.895 228.89 218.529 229L256.904 235.695C258.185 235.919 259.325 236.642 260.073 237.706C260.82 238.77 261.115 240.087 260.892 241.368L247.086 320.483C246.886 321.619 246.292 322.649 245.409 323.391C244.526 324.134 243.41 324.542 242.256 324.544ZM157.941 233.535C157.158 233.536 156.401 233.814 155.802 234.319C155.204 234.823 154.802 235.522 154.668 236.294L143.148 302.35C142.996 303.22 143.196 304.115 143.704 304.837C144.212 305.56 144.985 306.051 145.855 306.204L241.684 322.921C242.554 323.073 243.449 322.872 244.171 322.365C244.894 321.857 245.385 321.083 245.538 320.213L259.339 241.099C259.491 240.229 259.291 239.334 258.783 238.611C258.275 237.889 257.502 237.397 256.632 237.245L218.257 230.55C217.826 230.474 217.385 230.484 216.958 230.58C216.531 230.675 216.127 230.854 215.769 231.105C215.411 231.357 215.106 231.676 214.872 232.045C214.638 232.415 214.478 232.827 214.403 233.258L213.538 238.204C213.427 238.839 213.193 239.445 212.848 239.989C212.503 240.533 212.054 241.003 211.528 241.374C211.001 241.744 210.406 242.007 209.778 242.147C209.149 242.288 208.499 242.303 207.865 242.193L158.522 233.584C158.331 233.551 158.137 233.534 157.943 233.535H157.941Z" fill="#292A2E"/>
<path d="M249.486 273.545C249.606 273.122 249.86 272.75 250.21 272.485C250.561 272.22 250.988 272.077 251.427 272.078C251.422 272.042 251.383 271.961 251.445 271.955L249.932 271.22C249.482 271.014 249.121 270.651 248.918 270.199C248.714 269.748 248.681 269.237 248.824 268.763C248.981 268.299 249.304 267.91 249.731 267.672C250.159 267.433 250.659 267.361 251.136 267.47C251.13 267.451 251.136 267.431 251.136 267.411L250.515 267.109C250.092 266.912 249.749 266.576 249.545 266.156C249.342 265.735 249.289 265.258 249.397 264.804C249.471 264.52 249.606 264.257 249.794 264.032C249.982 263.807 250.217 263.627 250.483 263.504C250.749 263.382 251.039 263.319 251.331 263.322C251.624 263.325 251.913 263.393 252.176 263.521L253.611 264.217C253.611 264.209 253.611 264.2 253.611 264.193C253.611 264.185 253.628 264.18 253.634 264.171C253.284 263.891 253.04 263.501 252.941 263.064C252.842 262.627 252.895 262.17 253.09 261.767C253.527 260.693 254.953 260.653 255.88 261.103L258.691 262.749C259.125 263.003 259.489 263.36 259.751 263.789C260.014 264.218 260.166 264.705 260.194 265.207C260.445 269.55 260.829 280.909 257.868 279.471L250.581 275.932C250.16 275.712 249.823 275.358 249.625 274.926C249.427 274.494 249.378 274.008 249.486 273.545V273.545Z" fill="#E98862"/>
<path d="M168.023 291.959C167.992 291.476 167.812 291.015 167.508 290.638C167.203 290.262 166.789 289.989 166.323 289.858C166.344 289.821 166.352 289.778 166.347 289.735C166.337 289.7 166.319 289.668 166.294 289.642C166.268 289.616 166.236 289.597 166.201 289.587L168.148 289.155C168.724 289.041 169.239 288.721 169.598 288.256C169.957 287.791 170.135 287.212 170.1 286.625C170.046 286.048 169.779 285.511 169.352 285.119C168.925 284.727 168.367 284.507 167.788 284.502C167.8 284.482 167.795 284.456 167.801 284.433L168.601 284.255C169.143 284.145 169.631 283.851 169.981 283.422C170.332 282.993 170.523 282.457 170.523 281.903C170.516 281.556 170.432 281.215 170.277 280.904C170.122 280.593 169.9 280.321 169.627 280.106C169.354 279.892 169.037 279.74 168.698 279.663C168.36 279.586 168.009 279.585 167.67 279.66L165.824 280.07C165.824 280.059 165.831 280.051 165.829 280.041C165.827 280.031 165.813 280.022 165.809 280.01C166.289 279.783 166.678 279.4 166.912 278.923C167.146 278.447 167.211 277.904 167.097 277.386C166.888 276.028 165.254 275.589 164.061 275.854L153.289 278.049L155.845 276.181C156.35 275.827 156.702 275.295 156.83 274.691C156.958 274.088 156.851 273.458 156.532 272.93C156.358 272.663 156.132 272.435 155.867 272.258C155.602 272.082 155.304 271.961 154.99 271.904C154.677 271.847 154.355 271.854 154.045 271.925C153.735 271.996 153.442 272.129 153.185 272.317L139.232 282.519C137.594 283.715 136.488 285.503 136.148 287.502C135.808 289.501 136.262 291.554 137.413 293.224C138.746 295.161 140.627 296.656 142.816 297.517C145.004 298.378 147.4 298.566 149.696 298.057L166.101 294.415C166.652 294.283 167.141 293.968 167.49 293.522C167.839 293.076 168.027 292.526 168.023 291.959Z" fill="#E98862"/>
<g opacity="0.25">
<path d="M155.166 282.228C155.179 282.283 155.212 282.331 155.26 282.361C155.307 282.392 155.365 282.403 155.42 282.391L165.661 280.291C165.714 280.276 165.76 280.242 165.789 280.195C165.818 280.149 165.828 280.092 165.817 280.038C165.806 279.984 165.775 279.936 165.73 279.904C165.685 279.873 165.629 279.859 165.574 279.867L155.334 281.967C155.306 281.973 155.279 281.984 155.256 282C155.232 282.016 155.212 282.036 155.196 282.06C155.181 282.083 155.17 282.11 155.164 282.138C155.159 282.166 155.159 282.194 155.165 282.222L155.166 282.228Z" fill="#0C0C0C"/>
</g>
<g opacity="0.25">
<path d="M155.968 286.768C155.981 286.824 156.015 286.872 156.062 286.902C156.11 286.933 156.168 286.944 156.223 286.932L167.651 284.588C167.679 284.583 167.705 284.571 167.729 284.556C167.753 284.54 167.773 284.519 167.788 284.496C167.804 284.472 167.815 284.445 167.82 284.418C167.826 284.39 167.825 284.361 167.82 284.333C167.806 284.278 167.773 284.23 167.725 284.198C167.678 284.167 167.62 284.155 167.564 284.165L156.136 286.508C156.108 286.514 156.081 286.525 156.058 286.541C156.034 286.557 156.014 286.577 155.999 286.601C155.983 286.625 155.972 286.651 155.967 286.679C155.961 286.707 155.962 286.736 155.967 286.764L155.968 286.768Z" fill="#0C0C0C"/>
</g>
<g opacity="0.25">
<path d="M156.808 291.694C156.82 291.749 156.854 291.797 156.901 291.827C156.949 291.858 157.006 291.869 157.062 291.857L166.178 289.988C166.206 289.982 166.232 289.971 166.256 289.955C166.279 289.939 166.3 289.919 166.315 289.895C166.331 289.872 166.342 289.845 166.347 289.817C166.352 289.789 166.352 289.761 166.347 289.733C166.335 289.677 166.301 289.627 166.253 289.596C166.206 289.564 166.147 289.553 166.091 289.564L156.975 291.433C156.947 291.439 156.921 291.45 156.897 291.466C156.874 291.482 156.854 291.502 156.838 291.526C156.822 291.55 156.811 291.577 156.806 291.604C156.801 291.632 156.801 291.661 156.807 291.689L156.808 291.694Z" fill="#0C0C0C"/>
</g>
<path d="M148.681 304.544L59.6711 320.63C56.8936 320.932 54.0839 320.587 51.4623 319.621C48.8408 318.654 46.4787 317.094 44.5615 315.062C42.6444 313.029 41.2242 310.58 40.4124 307.907C39.6007 305.234 39.4194 302.408 39.8829 299.653L52.3438 225.586C52.7378 223.244 53.5891 221.003 54.8492 218.99C56.1093 216.978 57.7534 215.233 59.6878 213.856C61.6222 212.478 63.809 211.495 66.1232 210.963C68.4374 210.431 70.8337 210.36 73.1754 210.754C75.5171 211.148 77.7583 211.999 79.771 213.259C81.7837 214.519 83.5285 216.164 84.9058 218.098C86.2831 220.032 87.2658 222.219 87.798 224.533C88.3302 226.847 88.4013 229.244 88.0074 231.586L79.5129 282.573L144.77 274.378L148.681 304.544Z" fill="#367CFF"/>
<path d="M59.6703 320.959C59.5883 320.958 59.5095 320.927 59.4493 320.871C59.3891 320.816 59.3517 320.74 59.3445 320.658C59.3374 320.576 59.3609 320.495 59.4105 320.43C59.4601 320.364 59.5323 320.32 59.6129 320.305L148.314 304.276L144.484 274.745L79.5514 282.9C79.5005 282.907 79.4488 282.901 79.4004 282.884C79.352 282.867 79.3083 282.839 79.2728 282.802C79.2372 282.765 79.2108 282.72 79.1957 282.671C79.1806 282.622 79.1771 282.57 79.1856 282.52L84.5875 249.932C84.5941 249.889 84.6092 249.848 84.6319 249.811C84.6545 249.774 84.6844 249.742 84.7197 249.717C84.7549 249.692 84.7949 249.674 84.8371 249.664C84.8794 249.655 84.9232 249.654 84.9658 249.662C85.052 249.676 85.1289 249.724 85.1798 249.795C85.2306 249.865 85.2513 249.954 85.2372 250.04L79.9108 282.192L144.73 274.051C144.817 274.041 144.903 274.065 144.972 274.118C145.041 274.172 145.086 274.25 145.098 274.336L149.011 304.501C149.022 304.585 149 304.67 148.95 304.738C148.901 304.806 148.826 304.853 148.743 304.868L59.7301 320.954C59.7103 320.957 59.6903 320.959 59.6703 320.959Z" fill="#0C0C0C"/>
<path d="M79.4607 282.249L73.7354 283.166L73.8395 283.816L79.5649 282.9L79.4607 282.249Z" fill="#0C0C0C"/>
<path d="M639.465 497.217H596.3V495.644H639.465C650.089 495.633 660.274 491.408 667.787 483.896C675.299 476.383 679.524 466.198 679.535 455.574V178.449H681.109V455.574C681.096 466.615 676.704 477.199 668.897 485.006C661.09 492.813 650.506 497.205 639.465 497.217V497.217Z" fill="#292A2E"/>
<path d="M680.322 232.492C683.113 232.492 685.375 230.229 685.375 227.438C685.375 224.647 683.113 222.385 680.322 222.385C677.531 222.385 675.269 224.647 675.269 227.438C675.269 230.229 677.531 232.492 680.322 232.492Z" fill="white"/>
<path d="M680.322 233.278C679.167 233.278 678.038 232.936 677.077 232.294C676.117 231.652 675.368 230.74 674.926 229.672C674.484 228.605 674.368 227.431 674.594 226.298C674.819 225.165 675.376 224.124 676.192 223.307C677.009 222.49 678.05 221.934 679.183 221.709C680.316 221.483 681.491 221.599 682.558 222.041C683.625 222.484 684.537 223.232 685.179 224.193C685.821 225.154 686.163 226.283 686.163 227.438C686.161 228.987 685.545 230.471 684.45 231.566C683.355 232.661 681.871 233.276 680.322 233.278V233.278ZM680.322 223.17C679.478 223.17 678.653 223.421 677.951 223.89C677.249 224.359 676.702 225.025 676.379 225.805C676.056 226.585 675.972 227.443 676.136 228.271C676.301 229.099 676.708 229.859 677.304 230.456C677.901 231.053 678.662 231.459 679.49 231.624C680.317 231.789 681.176 231.704 681.955 231.381C682.735 231.058 683.402 230.511 683.871 229.809C684.34 229.107 684.59 228.282 684.59 227.438C684.589 226.307 684.139 225.222 683.339 224.422C682.538 223.622 681.454 223.172 680.322 223.17V223.17Z" fill="#292A2E"/>
<path d="M680.322 303.616C683.113 303.616 685.375 301.353 685.375 298.562C685.375 295.771 683.113 293.509 680.322 293.509C677.531 293.509 675.269 295.771 675.269 298.562C675.269 301.353 677.531 303.616 680.322 303.616Z" fill="#292A2E"/>
<path d="M680.322 304.403C679.167 304.403 678.038 304.061 677.077 303.419C676.117 302.777 675.368 301.865 674.926 300.797C674.484 299.73 674.368 298.556 674.594 297.423C674.819 296.29 675.375 295.249 676.192 294.432C677.009 293.615 678.05 293.059 679.183 292.834C680.316 292.608 681.49 292.724 682.557 293.166C683.625 293.608 684.537 294.357 685.179 295.317C685.82 296.278 686.163 297.407 686.163 298.562C686.161 300.111 685.545 301.596 684.45 302.691C683.355 303.786 681.871 304.401 680.322 304.403V304.403ZM680.322 294.295C679.478 294.295 678.653 294.546 677.951 295.015C677.249 295.484 676.702 296.15 676.379 296.93C676.056 297.71 675.972 298.568 676.137 299.396C676.301 300.224 676.708 300.984 677.305 301.581C677.902 302.178 678.662 302.584 679.49 302.749C680.318 302.914 681.176 302.829 681.956 302.506C682.736 302.183 683.402 301.635 683.871 300.934C684.34 300.232 684.59 299.406 684.59 298.562C684.588 297.431 684.138 296.346 683.338 295.547C682.538 294.747 681.454 294.297 680.322 294.295V294.295Z" fill="white"/>
<path d="M680.322 374.74C683.113 374.74 685.375 372.478 685.375 369.687C685.375 366.896 683.113 364.633 680.322 364.633C677.531 364.633 675.269 366.896 675.269 369.687C675.269 372.478 677.531 374.74 680.322 374.74Z" fill="white"/>
<path d="M680.322 375.527C679.167 375.527 678.038 375.185 677.077 374.543C676.117 373.901 675.368 372.989 674.926 371.922C674.484 370.854 674.368 369.68 674.594 368.547C674.819 367.414 675.375 366.373 676.192 365.557C677.009 364.74 678.05 364.183 679.183 363.958C680.316 363.733 681.49 363.848 682.557 364.29C683.625 364.732 684.537 365.481 685.179 366.442C685.82 367.402 686.163 368.531 686.163 369.687C686.161 371.235 685.545 372.72 684.45 373.815C683.355 374.91 681.871 375.526 680.322 375.527V375.527ZM680.322 365.42C679.478 365.42 678.653 365.67 677.951 366.139C677.249 366.608 676.702 367.275 676.379 368.054C676.056 368.834 675.972 369.692 676.137 370.52C676.301 371.348 676.708 372.109 677.305 372.705C677.902 373.302 678.662 373.709 679.49 373.873C680.318 374.038 681.176 373.953 681.956 373.63C682.736 373.307 683.402 372.76 683.871 372.058C684.34 371.356 684.59 370.531 684.59 369.687C684.588 368.555 684.138 367.471 683.338 366.672C682.538 365.872 681.453 365.422 680.322 365.421V365.42Z" fill="#292A2E"/>
<path d="M680.322 445.865C683.113 445.865 685.375 443.602 685.375 440.812C685.375 438.021 683.113 435.758 680.322 435.758C677.531 435.758 675.269 438.021 675.269 440.812C675.269 443.602 677.531 445.865 680.322 445.865Z" fill="white"/>
<path d="M680.322 446.652C679.167 446.652 678.038 446.309 677.077 445.667C676.117 445.025 675.368 444.113 674.926 443.046C674.484 441.979 674.368 440.804 674.594 439.671C674.819 438.538 675.375 437.498 676.192 436.681C677.009 435.864 678.05 435.308 679.183 435.082C680.316 434.857 681.49 434.973 682.557 435.415C683.625 435.857 684.537 436.605 685.179 437.566C685.82 438.526 686.163 439.656 686.163 440.811C686.161 442.359 685.545 443.844 684.45 444.939C683.355 446.034 681.871 446.65 680.322 446.652V446.652ZM680.322 436.544C679.478 436.544 678.653 436.794 677.951 437.263C677.249 437.732 676.702 438.399 676.379 439.179C676.056 439.958 675.972 440.817 676.137 441.644C676.301 442.472 676.708 443.233 677.305 443.83C677.902 444.426 678.662 444.833 679.49 444.997C680.318 445.162 681.176 445.077 681.956 444.754C682.736 444.431 683.402 443.884 683.871 443.182C684.34 442.48 684.59 441.655 684.59 440.811C684.588 439.679 684.138 438.595 683.338 437.795C682.538 436.995 681.454 436.545 680.322 436.544V436.544Z" fill="#292A2E"/>
<path d="M641.708 501.669C644.499 501.669 646.761 499.407 646.761 496.616C646.761 493.825 644.499 491.562 641.708 491.562C638.917 491.562 636.654 493.825 636.654 496.616C636.654 499.407 638.917 501.669 641.708 501.669Z" fill="#292A2E"/>
<path d="M641.708 502.456C640.553 502.456 639.424 502.113 638.464 501.471C637.504 500.83 636.756 499.917 636.314 498.85C635.872 497.783 635.756 496.609 635.981 495.477C636.207 494.344 636.763 493.303 637.579 492.487C638.396 491.67 639.436 491.114 640.569 490.888C641.702 490.663 642.876 490.778 643.943 491.22C645.01 491.662 645.922 492.41 646.564 493.37C647.206 494.33 647.549 495.459 647.549 496.614C647.548 498.163 646.932 499.648 645.837 500.743C644.742 501.838 643.257 502.454 641.708 502.456ZM641.708 492.349C640.864 492.349 640.039 492.599 639.338 493.068C638.636 493.537 638.089 494.204 637.767 494.984C637.444 495.764 637.36 496.622 637.524 497.449C637.689 498.277 638.096 499.037 638.693 499.634C639.29 500.23 640.05 500.637 640.878 500.801C641.706 500.965 642.564 500.881 643.343 500.557C644.123 500.234 644.789 499.687 645.258 498.985C645.726 498.283 645.976 497.458 645.976 496.614C645.975 495.483 645.524 494.399 644.724 493.599C643.924 492.799 642.84 492.35 641.708 492.349V492.349Z" fill="white"/>
<path d="M0.786529 629.751H730.794C731.003 629.751 731.203 629.668 731.351 629.52C731.498 629.373 731.581 629.173 731.581 628.964C731.581 628.756 731.498 628.555 731.351 628.408C731.203 628.26 731.003 628.178 730.794 628.178H0.786529C0.577928 628.178 0.377872 628.26 0.230369 628.408C0.0828662 628.555 0 628.756 0 628.964C0 629.173 0.0828662 629.373 0.230369 629.52C0.377872 629.668 0.577928 629.751 0.786529 629.751V629.751Z" fill="#262626"/>
</g>
<defs>
<clipPath id="clip0_364_1391">
<rect width="782.917" height="630" fill="white"/>
</clipPath>
</defs>
</svg>
