<svg width="1000" height="630" viewBox="0 0 1000 630" fill="none" xmlns="http://www.w3.org/2000/svg">
<g clip-path="url(#clip0_363_680)">
<path d="M857.96 410.113L856.084 410.318L879.246 621.982L881.122 621.777L857.96 410.113Z" fill="#292A2E"/>
<path d="M917.951 502.516L906.556 615.243L908.434 615.433L919.828 502.706L917.951 502.516Z" fill="#292A2E"/>
<path d="M937.543 601.617H852.993V629.057H937.543V601.617Z" fill="#292A2E"/>
<path opacity="0.2" d="M937.543 601.617H852.993V629.057H937.543V601.617Z" fill="white"/>
<path d="M988.513 551.094C1004.53 529.806 996.894 497.035 971.458 477.896C946.021 458.758 912.417 460.5 896.4 481.788C880.384 503.075 888.019 535.847 913.456 554.985C938.892 574.123 972.496 572.381 988.513 551.094Z" fill="#0CBC8B"/>
<path opacity="0.2" d="M988.513 551.094C1004.53 529.806 996.894 497.035 971.458 477.896C946.021 458.758 912.417 460.5 896.4 481.788C880.384 503.075 888.019 535.847 913.456 554.985C938.892 574.123 972.496 572.381 988.513 551.094Z" fill="white"/>
<path opacity="0.5" d="M988.511 551.097C987.435 552.533 986.262 553.893 984.999 555.167C967.367 566.432 941.343 564.658 920.697 549.122C895.264 529.987 887.63 497.216 903.649 475.929C904.726 474.497 905.896 473.137 907.153 471.859C924.796 460.586 950.809 462.367 971.463 477.897C996.896 497.038 1004.53 529.81 988.511 551.097Z" fill="white"/>
<path d="M870.522 470.332C895.72 450.882 902.568 417.523 885.819 395.824C869.069 374.125 835.063 372.302 809.865 391.753C784.667 411.204 777.819 444.562 794.568 466.261C811.318 487.96 845.324 489.783 870.522 470.332Z" fill="#0CBC8B"/>
<path opacity="0.2" d="M862.535 464.749C843.021 479.822 818.221 482.118 800.244 472.306C798.164 470.473 796.263 468.446 794.569 466.252C777.817 444.559 784.662 411.197 809.861 391.75C829.376 376.686 854.176 374.381 872.144 384.184C874.23 386.017 876.133 388.048 877.827 390.247C894.58 411.94 887.732 445.302 862.535 464.749Z" fill="white"/>
<path d="M99.0225 245.163C149.709 245.163 190.799 204.073 190.799 153.386C190.799 102.7 149.709 61.6098 99.0225 61.6098C48.3358 61.6098 7.24609 102.7 7.24609 153.386C7.24609 204.073 48.3358 245.163 99.0225 245.163Z" fill="#F4F4F4"/>
<g opacity="0.05">
<path d="M99.0226 226.142C139.205 226.142 171.779 193.568 171.779 153.386C171.779 113.204 139.205 80.6302 99.0226 80.6302C58.8406 80.6302 26.2666 113.204 26.2666 153.386C26.2666 193.568 58.8406 226.142 99.0226 226.142Z" fill="#292A2E"/>
</g>
<path d="M75.2085 179.374L81.9958 168.85C87.3736 172.972 92.0806 175.077 97.0839 175.077C103.082 175.077 105.721 172.589 105.721 167.772C105.721 156.885 77.7861 157.081 77.7861 137.984C77.7861 125.708 86.2896 117.888 99.6992 117.888C108.752 117.888 114.902 121.624 119.845 126.866L112.062 135.783C108.215 132.284 104.953 130.442 100.534 130.442C95.4394 130.442 92.6816 132.495 92.6816 137.249C92.6816 147.344 120.616 146.46 120.616 166.685C120.616 178.838 112.575 187.631 97.0839 187.631C90.4003 187.628 81.1854 184.79 75.2085 179.374ZM93.8223 107.515H104.146V122.755H93.8223V107.515ZM93.8223 181.276H104.146V197.998H93.8223V181.276Z" fill="white"/>
<path d="M908.12 183.553C958.807 183.553 999.897 142.463 999.897 91.7764C999.897 41.0897 958.807 0 908.12 0C857.433 0 816.344 41.0897 816.344 91.7764C816.344 142.463 857.433 183.553 908.12 183.553Z" fill="#F4F4F4"/>
<g opacity="0.05">
<path d="M908.12 164.532C948.302 164.532 980.876 131.958 980.876 91.7764C980.876 51.5944 948.302 19.0204 908.12 19.0204C867.938 19.0204 835.364 51.5944 835.364 91.7764C835.364 131.958 867.938 164.532 908.12 164.532Z" fill="#292A2E"/>
</g>
<path d="M884.306 117.763L891.094 107.24C896.471 111.361 901.177 113.467 906.182 113.467C912.18 113.467 914.818 110.978 914.818 106.162C914.818 95.2739 886.884 95.4701 886.884 76.3733C886.884 64.0977 895.387 56.2773 908.797 56.2773C917.849 56.2773 923.999 60.0125 928.943 65.2544L921.158 74.1712C917.312 70.6728 914.05 68.8311 909.632 68.8311C904.537 68.8311 901.778 70.8841 901.778 75.6383C901.778 85.7335 929.714 84.8485 929.714 105.075C929.714 117.227 921.672 126.02 906.182 126.02C899.497 126.018 890.282 123.18 884.306 117.763ZM902.919 45.9047H913.242V61.1447H902.919V45.9047ZM902.919 119.666H913.242V136.389H902.919V119.666Z" fill="white"/>
<path d="M829.787 47.2341H193.237C177.605 47.2341 164.933 59.9063 164.933 75.5383V541.591C164.933 557.223 177.605 569.895 193.237 569.895H829.787C845.419 569.895 858.092 557.223 858.092 541.591V75.5383C858.092 59.9063 845.419 47.2341 829.787 47.2341Z" fill="white"/>
<path d="M829.785 570.838H193.236C185.482 570.829 178.048 567.744 172.565 562.261C167.082 556.778 163.998 549.344 163.989 541.59V75.5383C163.998 67.784 167.082 60.3498 172.565 54.8667C178.048 49.3836 185.482 46.2993 193.236 46.2906H829.785C837.54 46.2991 844.974 49.3833 850.457 54.8664C855.94 60.3496 859.024 67.7839 859.033 75.5383V541.59C859.024 549.344 855.94 556.778 850.457 562.261C844.974 567.745 837.539 570.829 829.785 570.838V570.838ZM193.236 48.1775C185.982 48.1855 179.028 51.0707 173.898 56.2001C168.769 61.3295 165.884 68.2842 165.876 75.5383V541.59C165.884 548.844 168.769 555.799 173.898 560.928C179.028 566.057 185.982 568.943 193.236 568.951H829.785C837.039 568.943 843.994 566.057 849.123 560.928C854.253 555.799 857.138 548.844 857.146 541.59V75.5383C857.138 68.2842 854.253 61.3295 849.123 56.2001C843.994 51.0707 837.039 48.1855 829.785 48.1775H193.236Z" fill="#292A2E"/>
<path d="M288.661 302.686C288.289 302.687 287.921 302.614 287.577 302.471C287.234 302.329 286.922 302.12 286.659 301.857L273.451 288.648C272.935 288.114 272.65 287.399 272.656 286.657C272.663 285.915 272.96 285.205 273.485 284.681C274.01 284.156 274.72 283.858 275.462 283.852C276.204 283.845 276.919 284.13 277.453 284.646L290.662 297.855C291.057 298.251 291.327 298.755 291.436 299.304C291.545 299.853 291.489 300.422 291.275 300.939C291.061 301.456 290.698 301.898 290.233 302.209C289.767 302.52 289.22 302.686 288.661 302.686V302.686Z" fill="#0CBC8B"/>
<path d="M275.452 302.686C274.892 302.686 274.345 302.52 273.88 302.209C273.414 301.898 273.052 301.456 272.837 300.939C272.623 300.422 272.567 299.853 272.676 299.304C272.786 298.755 273.055 298.251 273.451 297.855L286.659 284.646C287.193 284.13 287.908 283.845 288.65 283.852C289.392 283.858 290.102 284.156 290.627 284.681C291.152 285.205 291.45 285.915 291.456 286.657C291.463 287.399 291.177 288.114 290.662 288.648L277.453 301.857C277.191 302.12 276.879 302.329 276.535 302.471C276.192 302.614 275.824 302.687 275.452 302.686V302.686Z" fill="#0CBC8B"/>
<path d="M666.851 428.933L663.081 437.581L686.284 447.697L690.054 439.048L666.851 428.933Z" fill="#0CBC8B"/>
<path d="M674.175 197.065L652.352 209.889L657.131 218.023L678.955 205.199L674.175 197.065Z" fill="#0CBC8B"/>
<path d="M310.513 219.026L307.59 227.996L331.658 235.839L334.581 226.868L310.513 219.026Z" fill="#0CBC8B"/>
<path d="M338.689 369.483L317.958 383.987L323.365 391.714L344.096 377.21L338.689 369.483Z" fill="#0CBC8B"/>
<path d="M718.924 336.236L718.058 345.631L742.713 347.904L743.579 338.509L718.924 336.236Z" fill="#0CBC8B"/>
<path d="M744.032 268.656C743.66 268.657 743.292 268.584 742.948 268.441C742.605 268.299 742.293 268.09 742.031 267.827L728.822 254.618C728.552 254.357 728.336 254.045 728.188 253.699C728.039 253.354 727.961 252.983 727.958 252.607C727.955 252.231 728.026 251.858 728.169 251.51C728.311 251.163 728.521 250.847 728.787 250.581C729.053 250.315 729.369 250.105 729.717 249.963C730.064 249.82 730.437 249.749 730.813 249.752C731.189 249.755 731.56 249.833 731.906 249.982C732.251 250.13 732.563 250.346 732.824 250.616L746.033 263.825C746.429 264.22 746.698 264.725 746.807 265.274C746.916 265.823 746.86 266.392 746.646 266.909C746.432 267.426 746.069 267.868 745.604 268.179C745.139 268.49 744.592 268.656 744.032 268.656V268.656Z" fill="#0CBC8B"/>
<path d="M730.823 268.656C730.263 268.656 729.716 268.49 729.251 268.179C728.785 267.868 728.423 267.426 728.209 266.909C727.994 266.392 727.938 265.823 728.048 265.274C728.157 264.725 728.426 264.22 728.822 263.825L742.03 250.616C742.292 250.346 742.604 250.13 742.949 249.982C743.295 249.833 743.666 249.755 744.042 249.752C744.418 249.749 744.79 249.82 745.138 249.963C745.486 250.105 745.802 250.315 746.068 250.581C746.334 250.847 746.544 251.163 746.686 251.51C746.828 251.858 746.9 252.231 746.897 252.607C746.893 252.983 746.815 253.354 746.667 253.699C746.519 254.045 746.303 254.357 746.033 254.618L732.824 267.827C732.562 268.09 732.25 268.299 731.906 268.441C731.563 268.583 731.195 268.656 730.823 268.656V268.656Z" fill="#0CBC8B"/>
<path opacity="0.4" d="M511.512 472.764C594.637 472.764 662.023 405.378 662.023 322.253C662.023 239.128 594.637 171.742 511.512 171.742C428.387 171.742 361 239.128 361 322.253C361 405.378 428.387 472.764 511.512 472.764Z" fill="#0CBC8B"/>
<path d="M511.512 427.514C569.646 427.514 616.773 380.387 616.773 322.253C616.773 264.119 569.646 216.992 511.512 216.992C453.378 216.992 406.251 264.119 406.251 322.253C406.251 380.387 453.378 427.514 511.512 427.514Z" fill="#0CBC8B"/>
<path d="M489.989 367.41C489.162 367.411 488.344 367.244 487.584 366.92C486.824 366.595 486.137 366.12 485.566 365.523L452.062 330.656C451.493 330.077 451.045 329.391 450.744 328.639C450.442 327.886 450.293 327.08 450.304 326.269C450.316 325.458 450.488 324.658 450.812 323.914C451.135 323.17 451.602 322.498 452.187 321.936C452.772 321.374 453.462 320.933 454.219 320.64C454.975 320.347 455.782 320.206 456.592 320.227C457.403 320.248 458.202 320.429 458.942 320.76C459.682 321.092 460.35 321.567 460.905 322.158L490.304 352.753L567.163 283.805C567.761 283.258 568.461 282.835 569.223 282.56C569.986 282.286 570.795 282.165 571.604 282.205C572.413 282.245 573.207 282.445 573.938 282.793C574.67 283.142 575.325 283.632 575.866 284.235C576.407 284.838 576.823 285.542 577.091 286.307C577.358 287.072 577.471 287.882 577.423 288.691C577.376 289.5 577.168 290.291 576.813 291.019C576.457 291.748 575.961 292.398 575.353 292.934L494.083 365.84C492.96 366.852 491.501 367.411 489.989 367.41Z" fill="white"/>
<path d="M858.089 75.5345V104.015H164.935V75.5345C164.935 68.0278 167.917 60.8285 173.225 55.5204C178.533 50.2124 185.733 47.2303 193.239 47.2303H829.785C837.292 47.2303 844.491 50.2124 849.799 55.5204C855.107 60.8285 858.089 68.0278 858.089 75.5345Z" fill="#292A2E"/>
<path d="M35.3757 573.309C29.676 573.308 24.0608 571.93 19.0082 569.292C13.9555 566.654 9.61491 562.835 6.35576 558.159C3.09661 553.483 1.01541 548.089 0.289275 542.436C-0.436859 536.782 0.213575 531.037 2.18522 525.69C4.18633 520.26 55.5151 387.76 64.4545 364.733L126.225 400.679C121.201 413.628 102.997 462.708 88.3735 502.245L112.669 499.603L120.316 564.289L39.209 573.107C37.9358 573.243 36.6562 573.31 35.3757 573.309V573.309Z" fill="#367CFF"/>
<path d="M77.7754 575.356L66.9868 629.057H276.531L264.462 574.335L77.7754 575.356Z" fill="#262626"/>
<path d="M237.416 337.179C237.199 337.15 231.255 359.52 184.864 356.039C152.748 353.633 144.918 331.773 144.182 331.773C147.644 331.037 153.267 330.273 154.805 329.452C159.862 326.734 163.545 323.427 165.4 316.328C166.85 310.777 167.589 289.406 167.589 278.683L217.008 289.788C216.32 301.883 211.499 329.923 228.396 334.886C231.208 335.707 234.236 336.462 237.416 337.179Z" fill="#E98862"/>
<path d="M215.301 313.567C195.819 315.105 170.792 306.879 166.038 280.886L161.749 257.433C156.995 231.441 166.794 207.873 191.268 203.397C215.74 198.921 237.888 216.646 242.641 242.639L244.54 253.023C246.361 262.995 250.058 310.826 215.301 313.567Z" fill="#E98862"/>
<path d="M123.082 335.371C105.575 336.67 87.7233 338.566 74.8411 350.492C59.3266 364.856 56.515 382.516 66.413 431.119C74.9288 472.938 71.5512 491.212 77.2479 568.381C77.4158 570.655 77.7753 575.356 77.7753 575.356L265.055 575.045C265.055 575.045 282.603 472.663 292.292 425.441C299.66 389.541 319.012 345.959 237.416 337.176C237.201 337.152 171.758 331.759 123.082 335.371Z" fill="#367CFF"/>
<path d="M77.7755 575.829C77.6534 575.829 77.5361 575.781 77.4481 575.697C77.3601 575.612 77.3084 575.497 77.3038 575.375L71.4344 423.027C71.4298 422.902 71.475 422.781 71.5601 422.689C71.6452 422.597 71.7632 422.543 71.8882 422.539C71.9507 422.533 72.0136 422.541 72.0728 422.562C72.1321 422.582 72.1865 422.615 72.2325 422.657C72.2785 422.7 72.3152 422.752 72.3402 422.809C72.3653 422.867 72.3781 422.929 72.3779 422.991L78.2472 575.339C78.2518 575.464 78.2066 575.586 78.1215 575.677C78.0364 575.769 77.9184 575.823 77.7934 575.828L77.7755 575.829Z" fill="#0C0C0C"/>
<path d="M378.284 389.766L391.442 360.251C391.731 359.603 392.152 359.022 392.678 358.545C393.204 358.068 393.824 357.706 394.497 357.482C395.171 357.258 395.884 357.176 396.591 357.243C397.298 357.309 397.983 357.522 398.604 357.868C399.729 358.542 400.565 359.611 400.947 360.866C401.33 362.121 401.232 363.474 400.674 364.661L397.853 370.989L415.86 355.159C417.831 353.367 421.398 352.423 423.266 354.767C424.044 355.622 424.509 356.716 424.585 357.869C424.661 359.022 424.344 360.167 423.686 361.117C423.708 361.131 423.728 361.148 423.745 361.167C423.757 361.183 423.767 361.2 423.775 361.218L426.815 358.45C427.379 357.938 428.049 357.558 428.778 357.337C429.507 357.117 430.276 357.062 431.028 357.177C431.781 357.291 432.499 357.572 433.129 357.999C433.76 358.426 434.287 358.988 434.673 359.645C435.259 360.691 435.469 361.907 435.266 363.089C435.063 364.272 434.461 365.348 433.559 366.14L432.266 367.317C432.282 367.37 432.289 367.426 432.287 367.481C433.345 366.889 434.58 366.692 435.771 366.926C436.961 367.16 438.03 367.81 438.785 368.76C439.581 369.823 439.946 371.147 439.809 372.468C439.671 373.789 439.04 375.01 438.043 375.887L434.835 378.811C434.909 378.802 434.985 378.811 435.056 378.836C435.126 378.862 435.19 378.904 435.241 378.96C435.298 379.028 435.334 379.112 435.345 379.2C436.435 378.934 437.581 379.033 438.609 379.482C439.636 379.931 440.488 380.705 441.033 381.685C441.584 382.727 441.768 383.924 441.554 385.083C441.34 386.242 440.741 387.295 439.854 388.071L412.743 412.753C408.951 416.206 404.213 418.447 399.138 419.19C394.063 419.933 388.881 419.144 384.258 416.923C380.271 415.008 377.188 411.614 375.664 407.463C374.14 403.311 374.295 398.729 376.096 394.689L378.284 389.766Z" fill="#E98862"/>
<g opacity="0.2">
<path d="M405.939 376.871C406.023 376.962 406.139 377.016 406.262 377.023C406.386 377.029 406.507 376.987 406.599 376.905L423.705 361.829C423.752 361.788 423.79 361.738 423.817 361.682C423.844 361.627 423.86 361.566 423.864 361.504C423.868 361.443 423.86 361.381 423.839 361.322C423.819 361.263 423.788 361.209 423.747 361.163C423.706 361.116 423.656 361.078 423.6 361.051C423.545 361.024 423.484 361.008 423.422 361.004C423.361 361 423.299 361.009 423.24 361.029C423.181 361.049 423.127 361.08 423.081 361.121L405.977 376.196C405.93 376.237 405.892 376.287 405.865 376.343C405.838 376.398 405.822 376.459 405.818 376.521C405.814 376.582 405.822 376.644 405.842 376.703C405.863 376.762 405.894 376.816 405.935 376.862L405.939 376.871Z" fill="#0C0C0C"/>
</g>
<g opacity="0.2">
<path d="M412.38 384.599C412.464 384.69 412.58 384.744 412.704 384.75C412.827 384.756 412.948 384.714 413.041 384.632L432.131 367.808C432.177 367.767 432.215 367.717 432.243 367.661C432.27 367.606 432.286 367.545 432.29 367.483C432.294 367.421 432.285 367.359 432.265 367.301C432.245 367.242 432.213 367.188 432.172 367.142C432.087 367.051 431.971 366.997 431.848 366.989C431.724 366.981 431.602 367.021 431.506 367.1L412.416 383.924C412.37 383.965 412.332 384.015 412.304 384.071C412.277 384.126 412.261 384.187 412.257 384.249C412.253 384.31 412.262 384.372 412.282 384.431C412.302 384.49 412.334 384.544 412.375 384.59L412.38 384.599Z" fill="#0C0C0C"/>
</g>
<g opacity="0.2">
<path d="M419.308 393.008C419.392 393.099 419.508 393.154 419.631 393.16C419.755 393.166 419.876 393.124 419.968 393.042L435.196 379.622C435.29 379.539 435.347 379.422 435.355 379.297C435.363 379.172 435.321 379.049 435.238 378.955C435.155 378.861 435.038 378.804 434.913 378.796C434.788 378.788 434.665 378.83 434.571 378.913L419.344 392.334C419.297 392.375 419.259 392.425 419.232 392.481C419.205 392.536 419.189 392.597 419.185 392.659C419.181 392.721 419.189 392.783 419.21 392.841C419.23 392.9 419.261 392.954 419.302 393L419.308 393.008Z" fill="#0C0C0C"/>
</g>
<path d="M233.363 289.703C229.866 272.132 228.262 260.409 228.448 248.041C233.374 239.401 232.079 229.485 230.959 225.2C235.786 227.834 237.805 228.124 242.349 228.124C242.349 228.124 234.203 195.432 206.516 186.635C201.421 184.654 188.426 182.151 171.166 184.518C156.486 186.531 120.298 197.508 115.124 238.249V238.272C114.952 239.624 111.478 277.16 104.551 295.17C95.238 319.381 82.1652 326.903 82.4964 354.837C82.9229 390.768 148.979 395.551 188.826 392.859C228.673 390.166 250.907 377.071 251.197 351.176C251.518 322.163 240.359 324.858 233.363 289.703Z" fill="#0A0A0A"/>
<path d="M233.374 274.975C225.936 276.334 218.452 269.48 217.092 262.043C215.733 254.607 221.011 249.401 228.448 248.041L233.374 274.975Z" fill="#E98862"/>
<path d="M313.369 567.952C305.888 567.951 298.599 565.58 292.55 561.179C286.5 556.778 282 550.573 279.696 543.456L230.541 391.43L297.869 369.661L323.72 449.624L368.397 378.576L428.299 416.242L343.312 551.404C340.127 556.469 335.709 560.643 330.473 563.537C325.236 566.431 319.352 567.95 313.369 567.952V567.952Z" fill="#367CFF"/>
<path d="M273.702 525.978C273.673 525.979 273.644 525.976 273.615 525.971C273.492 525.948 273.384 525.877 273.313 525.774C273.242 525.671 273.215 525.544 273.238 525.421L289.948 434.714C289.97 434.591 290.041 434.482 290.144 434.411C290.247 434.34 290.374 434.313 290.497 434.335C290.62 434.358 290.73 434.429 290.801 434.532C290.872 434.635 290.899 434.762 290.876 434.885L274.166 525.592C274.146 525.701 274.089 525.799 274.004 525.869C273.919 525.94 273.812 525.978 273.702 525.978Z" fill="#0C0C0C"/>
<path d="M329.734 471.035C329.629 471.035 329.528 471.001 329.445 470.937C329.362 470.873 329.303 470.783 329.276 470.682L323.71 449.241C323.694 449.181 323.691 449.118 323.699 449.057C323.708 448.996 323.729 448.937 323.76 448.883C323.791 448.83 323.833 448.783 323.882 448.746C323.932 448.709 323.988 448.681 324.048 448.666C324.108 448.65 324.171 448.647 324.232 448.655C324.293 448.664 324.352 448.684 324.406 448.716C324.459 448.747 324.506 448.789 324.543 448.838C324.58 448.888 324.608 448.944 324.623 449.004L330.19 470.445C330.221 470.566 330.203 470.695 330.139 470.803C330.076 470.911 329.972 470.989 329.851 471.02C329.813 471.03 329.774 471.035 329.734 471.035V471.035Z" fill="#0C0C0C"/>
<path d="M21.4781 630H964.613C964.864 630 965.104 629.901 965.28 629.724C965.457 629.547 965.557 629.307 965.557 629.057C965.557 628.806 965.457 628.566 965.28 628.389C965.104 628.212 964.864 628.113 964.613 628.113H21.4781C21.2279 628.113 20.9879 628.212 20.811 628.389C20.6341 628.566 20.5347 628.806 20.5347 629.057C20.5347 629.307 20.6341 629.547 20.811 629.724C20.9879 629.901 21.2279 630 21.4781 630Z" fill="#292A2E"/>
<path d="M743.438 313.267H923.966C933.49 313.267 941.21 305.547 941.21 296.023V177.711C941.21 168.187 933.49 160.466 923.966 160.466L743.438 160.466C733.914 160.466 726.193 168.187 726.193 177.711V296.023C726.193 305.547 733.914 313.267 743.438 313.267Z" fill="#292A2E"/>
<path d="M775.079 181.753H752.538C748.641 181.753 745.482 184.911 745.482 188.808V201.936C745.482 205.833 748.641 208.992 752.538 208.992H775.079C778.976 208.992 782.135 205.833 782.135 201.936V188.808C782.135 184.911 778.976 181.753 775.079 181.753Z" fill="white"/>
<path d="M782.134 184.774V191.166H769.717L767.714 189.167V181.757H779.113C779.51 181.756 779.902 181.834 780.269 181.986C780.635 182.137 780.968 182.359 781.249 182.639C781.529 182.92 781.752 183.252 781.904 183.619C782.056 183.985 782.134 184.377 782.134 184.774V184.774Z" fill="#0CBC8B"/>
<path d="M782.134 199.578V205.97C782.134 206.771 781.816 207.538 781.25 208.105C780.684 208.671 779.916 208.989 779.115 208.989H767.714V201.378L769.717 199.576L782.134 199.578Z" fill="#0CBC8B"/>
<path d="M759.702 181.753V189.167L757.9 191.17H745.482V184.778C745.482 184.381 745.561 183.988 745.712 183.622C745.864 183.256 746.086 182.923 746.367 182.643C746.647 182.362 746.98 182.14 747.346 181.988C747.712 181.836 748.105 181.758 748.502 181.758L759.702 181.753Z" fill="#0CBC8B"/>
<path d="M759.703 201.38V208.991H748.504C748.108 208.991 747.715 208.913 747.349 208.761C746.983 208.609 746.65 208.387 746.37 208.107C746.089 207.826 745.867 207.493 745.715 207.127C745.563 206.761 745.485 206.368 745.485 205.972V199.58H757.903L759.703 201.38Z" fill="#0CBC8B"/>
<path d="M924.501 282.928C924.501 287.178 922.812 291.253 919.808 294.258C916.803 297.263 912.727 298.951 908.478 298.951C904.228 298.951 900.152 297.263 897.148 294.258C894.143 291.253 892.455 287.178 892.455 282.928C892.457 280.54 892.999 278.182 894.039 276.032C895.08 273.882 896.592 271.995 898.464 270.511C900.805 268.596 903.642 267.386 906.645 267.023C909.648 266.66 912.692 267.159 915.422 268.46C918.152 269.762 920.455 271.814 922.063 274.376C923.671 276.937 924.518 279.903 924.503 282.928H924.501Z" fill="white"/>
<path d="M892.455 295.346C890.106 297.262 887.261 298.472 884.252 298.836C881.243 299.2 878.193 298.703 875.455 297.402C872.717 296.102 870.404 294.052 868.784 291.49C867.165 288.928 866.305 285.959 866.305 282.928C866.305 279.898 867.165 276.929 868.784 274.367C870.404 271.805 872.717 269.755 875.455 268.455C878.193 267.154 881.243 266.657 884.252 267.021C887.261 267.385 890.106 268.595 892.455 270.511C888.849 273.515 887.238 277.921 887.238 282.928C887.238 287.935 888.847 292.542 892.455 295.346Z" fill="#0CBC8B"/>
<path d="M780.382 230.971H748.43C746.802 230.971 745.482 232.291 745.482 233.918V233.919C745.482 235.547 746.802 236.867 748.43 236.867H780.382C782.009 236.867 783.329 235.547 783.329 233.919V233.918C783.329 232.291 782.009 230.971 780.382 230.971Z" fill="white"/>
<path d="M827.439 230.971H795.487C793.86 230.971 792.54 232.291 792.54 233.918V233.919C792.54 235.547 793.86 236.867 795.487 236.867H827.439C829.067 236.867 830.387 235.547 830.387 233.919V233.918C830.387 232.291 829.067 230.971 827.439 230.971Z" fill="white"/>
<path d="M874.496 230.971H842.544C840.916 230.971 839.597 232.291 839.597 233.918V233.919C839.597 235.547 840.916 236.867 842.544 236.867H874.496C876.124 236.867 877.443 235.547 877.443 233.919V233.918C877.443 232.291 876.124 230.971 874.496 230.971Z" fill="white"/>
<path d="M921.552 230.971H889.601C887.973 230.971 886.653 232.291 886.653 233.918V233.919C886.653 235.547 887.973 236.867 889.601 236.867H921.552C923.18 236.867 924.5 235.547 924.5 233.919V233.918C924.5 232.291 923.18 230.971 921.552 230.971Z" fill="white"/>
</g>
<defs>
<clipPath id="clip0_363_680">
<rect width="999.896" height="630" fill="white"/>
</clipPath>
</defs>
</svg>
