<svg width="939" height="630" viewBox="0 0 939 630" fill="none" xmlns="http://www.w3.org/2000/svg">
<g clip-path="url(#clip0_364_899)">
<path opacity="0.05" d="M237.146 618.094H220.678V629.09H237.146V618.094Z" fill="#292A2E"/>
<path opacity="0.05" d="M68.7816 618.094H52.314V629.09H68.7816V618.094Z" fill="#292A2E"/>
<path d="M252.241 396.536H37.2188V617.722H252.241V396.536Z" fill="#F4F4F4"/>
<path opacity="0.03" d="M252.241 396.536H37.2188V617.722H252.241V396.536Z" fill="#292A2E"/>
<path d="M292.088 396.536H77.0664V617.722H292.088V396.536Z" fill="#F4F4F4"/>
<path opacity="0.05" d="M276.993 618.094H260.525V629.09H276.993V618.094Z" fill="#292A2E"/>
<path opacity="0.05" d="M108.629 618.094H92.1616V629.09H108.629V618.094Z" fill="#292A2E"/>
<path opacity="0.7" d="M284.018 406.895H85.1387V449.389H284.018V406.895Z" fill="white"/>
<path opacity="0.7" d="M284.018 459.791H85.1387V502.285H284.018V459.791Z" fill="white"/>
<path opacity="0.7" d="M284.018 512.685H85.1387V555.179H284.018V512.685Z" fill="white"/>
<path opacity="0.05" d="M184.577 434.088C187.861 434.088 190.523 431.426 190.523 428.142C190.523 424.858 187.861 422.196 184.577 422.196C181.293 422.196 178.631 424.858 178.631 428.142C178.631 431.426 181.293 434.088 184.577 434.088Z" fill="#292A2E"/>
<path opacity="0.05" d="M184.577 486.984C187.861 486.984 190.523 484.322 190.523 481.038C190.523 477.754 187.861 475.092 184.577 475.092C181.293 475.092 178.631 477.754 178.631 481.038C178.631 484.322 181.293 486.984 184.577 486.984Z" fill="#292A2E"/>
<path opacity="0.05" d="M184.577 539.879C187.861 539.879 190.523 537.217 190.523 533.933C190.523 530.649 187.861 527.987 184.577 527.987C181.293 527.987 178.631 530.649 178.631 533.933C178.631 537.217 181.293 539.879 184.577 539.879Z" fill="#292A2E"/>
<path opacity="0.7" d="M284.018 566.772H85.1387V609.267H284.018V566.772Z" fill="white"/>
<path opacity="0.05" d="M184.577 593.965C187.861 593.965 190.523 591.303 190.523 588.019C190.523 584.736 187.861 582.074 184.577 582.074C181.293 582.074 178.631 584.736 178.631 588.019C178.631 591.303 181.293 593.965 184.577 593.965Z" fill="#292A2E"/>
<path d="M751.65 9.47461H630.273V167.449H751.65V9.47461Z" fill="#F4F4F4"/>
<path d="M751.651 167.448H755.588V9.47385H751.651V167.448Z" fill="#F4F4F4"/>
<path opacity="0.05" d="M751.651 167.448H755.588V9.47385H751.651V167.448Z" fill="#292A2E"/>
<path opacity="0.05" d="M729.54 38.251H652.384V138.671H729.54V38.251Z" fill="#292A2E"/>
<path opacity="0.03" d="M729.54 38.251H725.519V138.671H729.54V38.251Z" fill="#292A2E"/>
<path d="M850.917 206.296H751.65V306.467H850.917V206.296Z" fill="#F4F4F4"/>
<path opacity="0.05" d="M832.835 224.544H769.733V288.22H832.835V224.544Z" fill="#292A2E"/>
<path d="M850.918 306.467H854.855V206.296H850.918V306.467Z" fill="#F4F4F4"/>
<path opacity="0.05" d="M850.918 306.467H854.855V206.296H850.918V306.467Z" fill="#292A2E"/>
<path opacity="0.03" d="M832.835 224.544H828.814V288.22H832.835V224.544Z" fill="#292A2E"/>
<path d="M356.542 0H20.4502V336.064H356.542V0Z" fill="#F4F4F4"/>
<path d="M20.4503 0H16.5981V336.064H20.4503V0Z" fill="#F4F4F4"/>
<path opacity="0.05" d="M20.4503 0H16.5981V336.064H20.4503V0Z" fill="#292A2E"/>
<path opacity="0.05" d="M101.87 231.576V143.651H173.899V194.733H285.474V285.182H332.895V336.064H285.474H276.339H36.6177V231.576H101.87Z" fill="#292A2E"/>
<path opacity="0.34" d="M164.654 153.197H112.201V162.744H164.654V153.197Z" fill="#FFFFFA"/>
<path opacity="0.34" d="M164.654 172.98H112.201V182.527H164.654V172.98Z" fill="#FFFFFA"/>
<path opacity="0.34" d="M164.654 192.763H112.201V202.309H164.654V192.763Z" fill="#FFFFFA"/>
<path opacity="0.34" d="M55.5864 240.843H45.9185V250.39H55.5864V240.843Z" fill="#FFFFFA"/>
<path opacity="0.34" d="M55.5864 260.626H45.9185V270.173H55.5864V260.626Z" fill="#FFFFFA"/>
<path opacity="0.34" d="M55.5864 280.408H45.9185V289.955H55.5864V280.408Z" fill="#FFFFFA"/>
<path opacity="0.34" d="M73.4717 240.843H63.8037V250.39H73.4717V240.843Z" fill="#FFFFFA"/>
<path opacity="0.34" d="M73.4717 260.626H63.8037V270.173H73.4717V260.626Z" fill="#FFFFFA"/>
<path opacity="0.34" d="M73.4717 280.408H63.8037V289.955H73.4717V280.408Z" fill="#FFFFFA"/>
<path opacity="0.34" d="M90.8745 240.843H81.2065V250.39H90.8745V240.843Z" fill="#FFFFFA"/>
<path opacity="0.34" d="M90.8745 260.626H81.2065V270.173H90.8745V260.626Z" fill="#FFFFFA"/>
<path opacity="0.34" d="M90.8745 280.408H81.2065V289.955H90.8745V280.408Z" fill="#FFFFFA"/>
<path d="M20.4502 166.147H88.077V0H93.6701V166.147H276.338V0H281.932V166.147H356.542V171.74H281.932V336.064H276.338V171.74H93.6701V336.064H88.077V171.74H20.4502V166.147Z" fill="white"/>
<path d="M369.931 335.659H7.06152V346.835H369.931V335.659Z" fill="#F4F4F4"/>
<path opacity="0.1" d="M369.931 335.659H7.06152V346.835H369.931V335.659Z" fill="#292A2E"/>
<path opacity="0.1" d="M7.06129 335.659H1.82227V346.835H7.06129V335.659Z" fill="#292A2E"/>
<path opacity="0.1" d="M7.06129 335.659H1.82227V346.835H7.06129V335.659Z" fill="#292A2E"/>
<path d="M99.0015 114.884L99.0015 512.624C99.0015 545.528 125.677 572.201 158.583 572.201H779.692C812.598 572.201 839.274 545.528 839.274 512.624V114.884C839.274 81.9812 812.598 55.3079 779.692 55.3079H158.583C125.677 55.3079 99.0015 81.9812 99.0015 114.884Z" fill="#292A2E"/>
<path d="M819.277 115.068V512.439C819.276 523.289 814.965 533.693 807.293 541.365C799.62 549.037 789.215 553.347 778.364 553.347H158.517C147.667 553.345 137.262 549.035 129.59 541.363C121.918 533.692 117.607 523.288 117.605 512.439V411.895H130.225C136.051 411.896 141.638 409.583 145.758 405.464C149.878 401.346 152.193 395.76 152.195 389.935V237.574C152.193 231.749 149.878 226.163 145.758 222.045C141.638 217.927 136.051 215.614 130.225 215.614H117.605V115.068C117.607 104.219 121.918 93.8148 129.59 86.1433C137.262 78.4719 147.667 74.1612 158.517 74.1593H778.364C789.215 74.1597 799.621 78.4699 807.293 86.1416C814.966 93.8133 819.276 104.218 819.277 115.068V115.068Z" fill="white"/>
<path d="M109.915 411.894L109.915 215.614H130.228C136.053 215.614 141.64 217.928 145.759 222.047C149.878 226.166 152.192 231.752 152.192 237.577V389.932C152.192 395.757 149.878 401.343 145.759 405.462C141.64 409.58 136.053 411.894 130.228 411.894H109.915V411.894Z" fill="#292A2E"/>
<path d="M867.253 521.97C867.037 521.97 866.83 521.884 866.677 521.731C865.527 520.581 863.653 499.493 858.607 436.705C856.542 411.019 854.592 386.759 853.169 372.018C853.067 370.965 852.659 370.841 852.524 370.801C850.572 370.211 844.65 374.886 841.341 378.977C841.275 379.063 841.192 379.135 841.098 379.189C841.003 379.243 840.898 379.277 840.79 379.29C840.682 379.302 840.573 379.293 840.468 379.263C840.363 379.233 840.266 379.182 840.181 379.113C840.097 379.045 840.027 378.96 839.975 378.864C839.924 378.768 839.892 378.663 839.882 378.555C839.872 378.446 839.884 378.337 839.917 378.233C839.95 378.129 840.003 378.033 840.074 377.95C842.26 375.245 849.388 368.155 852.994 369.238C853.72 369.457 854.622 370.088 854.789 371.86C856.213 386.618 858.163 410.885 860.23 436.577C863.296 474.733 866.771 517.959 867.913 520.679C868 520.801 868.053 520.945 868.064 521.094C868.075 521.244 868.045 521.394 867.976 521.528C867.908 521.661 867.803 521.773 867.675 521.852C867.547 521.93 867.4 521.971 867.249 521.971L867.253 521.97Z" fill="#494949"/>
<path d="M851.072 399.072C864.609 388.222 869.095 371.334 861.093 361.351C853.091 351.369 835.629 352.072 822.092 362.923C808.555 373.773 804.068 390.661 812.071 400.643C820.073 410.626 837.534 409.922 851.072 399.072Z" fill="#0CBC8B"/>
<path opacity="0.2" d="M851.072 399.072C864.609 388.222 869.095 371.334 861.093 361.351C853.091 351.369 835.629 352.072 822.092 362.923C808.555 373.773 804.068 390.661 812.071 400.643C820.073 410.626 837.534 409.922 851.072 399.072Z" fill="white"/>
<path d="M815.868 403.183C815.79 403.183 815.714 403.161 815.648 403.12C815.583 403.078 815.531 403.019 815.498 402.949C815.465 402.879 815.452 402.8 815.462 402.723C815.472 402.647 815.504 402.574 815.553 402.514L854.136 355.994C854.205 355.911 854.304 355.859 854.412 355.849C854.52 355.839 854.627 355.872 854.71 355.941C854.794 356.01 854.846 356.109 854.856 356.217C854.866 356.325 854.833 356.432 854.764 356.516L816.184 403.036C816.146 403.082 816.097 403.12 816.042 403.145C815.988 403.171 815.928 403.184 815.868 403.183V403.183Z" fill="white"/>
<path d="M875.673 511.997C875.543 511.997 875.414 511.966 875.298 511.906C875.183 511.847 875.083 511.76 875.007 511.654C874.932 511.548 874.883 511.425 874.865 511.296C874.846 511.167 874.859 511.036 874.902 510.913L889.394 469.24C889.82 468.016 890.547 466.918 891.508 466.047C892.469 465.177 893.633 464.561 894.894 464.257C896.154 463.953 897.471 463.97 898.723 464.306C899.975 464.642 901.123 465.288 902.061 466.183L909.723 473.501C909.874 473.652 909.96 473.856 909.963 474.069C909.965 474.282 909.884 474.488 909.737 474.642C909.59 474.796 909.388 474.887 909.175 474.894C908.961 474.901 908.754 474.825 908.597 474.681L900.935 467.363C900.194 466.655 899.287 466.145 898.298 465.878C897.309 465.612 896.268 465.598 895.272 465.838C894.276 466.079 893.357 466.565 892.598 467.253C891.839 467.941 891.265 468.809 890.928 469.777L876.436 511.45C876.381 511.609 876.278 511.746 876.141 511.844C876.005 511.942 875.841 511.996 875.673 511.997Z" fill="#494949"/>
<path d="M931.126 496.575C941.158 488.634 940.562 471.171 929.794 457.568C919.026 443.966 902.165 439.376 892.132 447.316C882.1 455.256 882.696 472.72 893.464 486.323C904.232 499.925 921.093 504.515 931.126 496.575Z" fill="#0CBC8B"/>
<path d="M860.67 519.312C860.487 519.312 860.309 519.25 860.165 519.137C860.021 519.023 859.92 518.864 859.877 518.686L835.558 417.011C835.392 416.318 835.038 415.684 834.535 415.179C834.032 414.674 833.399 414.318 832.707 414.149C832.014 413.98 831.289 414.006 830.61 414.223C829.931 414.44 829.325 414.84 828.859 415.379L821.362 424.041C821.293 424.126 821.207 424.196 821.111 424.247C821.014 424.298 820.909 424.329 820.8 424.338C820.691 424.348 820.582 424.335 820.478 424.301C820.374 424.268 820.278 424.213 820.196 424.142C820.113 424.071 820.046 423.983 819.998 423.885C819.95 423.787 819.922 423.681 819.915 423.572C819.909 423.463 819.925 423.354 819.962 423.251C819.998 423.148 820.055 423.054 820.129 422.974L827.622 414.307C828.285 413.541 829.146 412.973 830.111 412.665C831.076 412.357 832.107 412.321 833.091 412.561C834.075 412.801 834.974 413.308 835.689 414.026C836.403 414.744 836.906 415.645 837.142 416.63L861.46 518.305C861.51 518.515 861.474 518.736 861.36 518.919C861.247 519.102 861.066 519.234 860.857 519.284C860.796 519.301 860.733 519.31 860.67 519.312V519.312Z" fill="#494949"/>
<path d="M851.197 446.754C854.146 429.666 846.321 414.051 833.718 411.876C821.115 409.701 808.508 421.79 805.558 438.878C802.609 455.966 810.434 471.581 823.037 473.756C835.64 475.931 848.248 463.842 851.197 446.754Z" fill="#0CBC8B"/>
<path d="M867.255 521.97C867.221 521.97 867.188 521.968 867.154 521.964C866.94 521.937 866.744 521.826 866.611 521.656C866.478 521.486 866.418 521.269 866.445 521.055L881.975 394.975C882.144 393.601 882.706 392.306 883.594 391.245C884.482 390.183 885.657 389.401 886.979 388.991C888.301 388.582 889.713 388.563 891.045 388.937C892.378 389.31 893.574 390.061 894.49 391.098L912.24 411.2C912.311 411.281 912.365 411.374 912.4 411.475C912.435 411.577 912.449 411.684 912.442 411.791C912.436 411.898 912.408 412.002 912.361 412.099C912.314 412.195 912.248 412.281 912.168 412.352C912.087 412.422 911.994 412.477 911.892 412.512C911.791 412.546 911.684 412.561 911.577 412.554C911.47 412.547 911.365 412.52 911.269 412.472C911.173 412.425 911.087 412.36 911.016 412.279L893.266 392.178C892.558 391.377 891.634 390.796 890.604 390.507C889.574 390.218 888.483 390.233 887.461 390.549C886.44 390.866 885.531 391.47 884.845 392.291C884.159 393.111 883.724 394.112 883.593 395.174L868.063 521.251C868.04 521.449 867.944 521.631 867.795 521.764C867.646 521.896 867.454 521.97 867.255 521.97Z" fill="#494949"/>
<path d="M930.444 422.374C936.637 411.179 929.35 395.297 914.169 386.9C898.987 378.503 881.659 380.771 875.466 391.966C869.273 403.161 876.56 419.044 891.742 427.441C906.923 435.838 924.251 433.569 930.444 422.374Z" fill="#0CBC8B"/>
<path opacity="0.2" d="M931.126 496.575C941.158 488.634 940.562 471.171 929.794 457.568C919.026 443.966 902.165 439.376 892.132 447.316C882.1 455.256 882.696 472.72 893.464 486.323C904.232 499.925 921.093 504.515 931.126 496.575Z" fill="white"/>
<path opacity="0.5" d="M851.197 446.754C854.146 429.666 846.321 414.051 833.718 411.876C821.115 409.701 808.508 421.79 805.558 438.878C802.609 455.966 810.434 471.581 823.037 473.756C835.64 475.931 848.248 463.842 851.197 446.754Z" fill="white"/>
<path opacity="0.5" d="M930.444 422.374C936.637 411.179 929.35 395.297 914.169 386.9C898.987 378.503 881.659 380.771 875.466 391.966C869.273 403.161 876.56 419.044 891.742 427.441C906.923 435.838 924.251 433.569 930.444 422.374Z" fill="white"/>
<path d="M887.117 628.945H847.391L840.808 501.852H893.7L887.117 628.945Z" fill="#292A2E"/>
<path opacity="0.3" d="M887.117 628.945H847.391L840.808 501.852H893.7L887.117 628.945Z" fill="white"/>
<path d="M931.124 496.977C931.063 496.977 931.002 496.963 930.947 496.936C930.892 496.91 930.844 496.871 930.805 496.823L891.81 447.564C891.748 447.479 891.721 447.373 891.735 447.268C891.749 447.163 891.803 447.068 891.885 447.002C891.968 446.937 892.073 446.906 892.178 446.916C892.284 446.926 892.381 446.977 892.449 447.057L931.444 496.316C931.492 496.376 931.522 496.448 931.53 496.524C931.539 496.6 931.525 496.678 931.492 496.747C931.459 496.816 931.406 496.874 931.341 496.915C931.276 496.956 931.201 496.977 931.124 496.977V496.977Z" fill="white"/>
<path d="M927.851 426.321C927.764 426.32 927.679 426.292 927.61 426.24L877.712 389.81C877.625 389.746 877.566 389.651 877.549 389.544C877.533 389.437 877.559 389.327 877.623 389.24C877.687 389.153 877.783 389.094 877.89 389.078C877.997 389.061 878.106 389.087 878.193 389.151L928.092 425.584C928.161 425.635 928.211 425.707 928.237 425.789C928.262 425.87 928.261 425.958 928.234 426.039C928.207 426.12 928.155 426.191 928.086 426.241C928.016 426.291 927.933 426.318 927.847 426.318L927.851 426.321Z" fill="white"/>
<path d="M821.492 473.102C821.456 473.102 821.421 473.097 821.387 473.088C821.336 473.074 821.287 473.05 821.244 473.018C821.202 472.985 821.166 472.945 821.139 472.898C821.112 472.852 821.095 472.801 821.088 472.747C821.08 472.694 821.084 472.64 821.098 472.589L836.983 413.079C836.996 413.026 837.019 412.977 837.052 412.934C837.084 412.89 837.125 412.854 837.171 412.826C837.218 412.799 837.27 412.781 837.323 412.773C837.377 412.766 837.432 412.769 837.484 412.783C837.536 412.797 837.585 412.822 837.628 412.855C837.671 412.888 837.707 412.929 837.733 412.976C837.76 413.023 837.777 413.075 837.784 413.129C837.79 413.183 837.786 413.237 837.771 413.289L821.887 472.799C821.863 472.886 821.812 472.963 821.741 473.017C821.669 473.072 821.582 473.102 821.492 473.102Z" fill="white"/>
<path d="M264.007 390.824V553.349H158.517C153.143 553.351 147.822 552.295 142.858 550.239C137.893 548.184 133.382 545.171 129.582 541.371C125.783 537.572 122.77 533.061 120.714 528.097C118.659 523.133 117.602 517.812 117.604 512.439V411.895H130.225C134.252 411.898 138.202 410.793 141.642 408.7C145.082 406.608 147.88 403.609 149.73 400.032C151.22 397.182 152.056 394.036 152.177 390.823L264.007 390.824Z" fill="#F4F4F4"/>
<path opacity="0.03" d="M264.007 390.824V553.349H158.517C153.143 553.351 147.822 552.295 142.858 550.239C137.893 548.184 133.382 545.171 129.582 541.371C125.783 537.572 122.77 533.061 120.714 528.097C118.659 523.133 117.602 517.812 117.604 512.439V411.895H130.225C134.252 411.898 138.202 410.793 141.642 408.7C145.082 406.608 147.88 403.609 149.73 400.032C151.22 397.182 152.056 394.036 152.177 390.823L264.007 390.824Z" fill="#292A2E"/>
<path d="M299.428 390.824V553.349H158.517C153.143 553.351 147.822 552.295 142.858 550.239C137.893 548.184 133.382 545.171 129.582 541.371C125.783 537.572 122.77 533.061 120.714 528.097C118.659 523.133 117.602 517.812 117.604 512.439V411.895H130.225C134.252 411.898 138.202 410.793 141.642 408.7C145.082 406.608 147.88 403.609 149.73 400.032C151.22 397.182 152.056 394.036 152.177 390.823L299.428 390.824Z" fill="#F4F4F4"/>
<path opacity="0.7" d="M292.257 400.032V437.808H117.604V411.895H130.225C134.252 411.898 138.202 410.793 141.642 408.7C145.082 406.608 147.88 403.609 149.73 400.032H292.257Z" fill="white"/>
<path opacity="0.7" d="M292.258 447.052H117.604V484.828H292.258V447.052Z" fill="white"/>
<path opacity="0.7" d="M292.257 494.08V531.853H122.499C119.275 525.891 117.592 519.217 117.605 512.439V494.077L292.257 494.08Z" fill="white"/>
<path opacity="0.05" d="M203.858 424.209C206.777 424.209 209.144 421.842 209.144 418.923C209.144 416.003 206.777 413.637 203.858 413.637C200.938 413.637 198.571 416.003 198.571 418.923C198.571 421.842 200.938 424.209 203.858 424.209Z" fill="#292A2E"/>
<path opacity="0.05" d="M203.858 471.23C206.777 471.23 209.144 468.864 209.144 465.944C209.144 463.025 206.777 460.659 203.858 460.659C200.938 460.659 198.571 463.025 198.571 465.944C198.571 468.864 200.938 471.23 203.858 471.23Z" fill="#292A2E"/>
<path opacity="0.05" d="M203.858 518.252C206.777 518.252 209.144 515.885 209.144 512.966C209.144 510.047 206.777 507.68 203.858 507.68C200.938 507.68 198.571 510.047 198.571 512.966C198.571 515.885 200.938 518.252 203.858 518.252Z" fill="#292A2E"/>
<path opacity="0.7" d="M292.257 542.158V553.349H158.517C148.057 553.36 137.994 549.354 130.404 542.158H292.257Z" fill="white"/>
<path d="M758.435 74.1593H630.273V167.976H758.435V74.1593Z" fill="#F4F4F4"/>
<path d="M762.595 74.1593H758.435V167.976H762.595V74.1593Z" fill="#F4F4F4"/>
<path opacity="0.05" d="M762.595 74.1593H758.435V167.976H762.595V74.1593Z" fill="#292A2E"/>
<path opacity="0.05" d="M735.087 74.1593H653.622V137.59H735.087V74.1593Z" fill="#292A2E"/>
<path opacity="0.03" d="M735.086 74.1593H730.844V137.59H735.086V74.1593Z" fill="#292A2E"/>
<path d="M819.276 208.999H758.435V314.766H819.276V208.999Z" fill="#F4F4F4"/>
<path opacity="0.05" d="M819.276 228.266H777.532V295.498H819.276V228.266Z" fill="#292A2E"/>
<path d="M368.298 74.1593V347.199H152.194V237.574C152.193 231.749 149.878 226.163 145.758 222.045C141.638 217.927 136.05 215.613 130.225 215.614H117.604V115.068C117.606 104.219 121.917 93.8148 129.589 86.1433C137.262 78.4719 147.667 74.1612 158.517 74.1593H368.298Z" fill="#F4F4F4"/>
<path opacity="0.05" d="M343.864 294.634V347.199H152.194V237.574C152.193 231.749 149.878 226.163 145.758 222.045C141.638 217.927 136.05 215.614 130.225 215.614H117.604V148.415H179.605V201.184H294.876V294.634H343.864Z" fill="#292A2E"/>
<path opacity="0.34" d="M170.052 158.277H117.604V168.139H170.052V158.277Z" fill="#FFFFFA"/>
<path opacity="0.34" d="M170.052 178.711H117.604V188.573H170.052V178.711Z" fill="#FFFFFA"/>
<path opacity="0.34" d="M170.052 199.153H117.604V209.015H170.052V199.153Z" fill="#FFFFFA"/>
<path d="M368.298 171.655V177.43H291.213V347.199H285.438V177.43H117.604V171.655H285.438V74.1593H291.213V171.655H368.298Z" fill="white"/>
<path d="M382.134 346.783H152.194V358.334H382.134V346.783Z" fill="#F4F4F4"/>
<path opacity="0.1" d="M382.134 346.783H152.194V358.334H382.134V346.783Z" fill="#292A2E"/>
<path d="M499.556 314.484L325.953 397.144L325.486 232.623L499.556 149.497V314.484Z" fill="#367CFF"/>
<g opacity="0.58">
<path d="M499.556 314.484L325.953 397.144L325.486 232.623L499.556 149.497V314.484Z" fill="white"/>
</g>
<path d="M499.556 314.482L612.323 397.144L612.79 232.625L499.556 149.497V314.482Z" fill="#367CFF"/>
<g opacity="0.88">
<path d="M499.556 314.482L612.323 397.144L612.79 232.625L499.556 149.497V314.482Z" fill="white"/>
</g>
<path d="M439.939 482.222L324.259 397.297V396.675L324.732 229.75L439.939 314.199V482.222ZM326.712 396.061L437.491 477.389V315.441L327.17 234.569L326.712 396.061Z" fill="#292A2E"/>
<path d="M437.491 481.746V314.048L613.539 230.222L614.014 397.446L613.316 397.78L437.491 481.746ZM439.939 315.593V477.865L611.564 395.907L611.105 234.093L439.939 315.593Z" fill="#292A2E"/>
<path d="M324.735 399.079L324.261 231.855L500.78 147.557V315.256L324.735 399.079ZM326.712 233.394L327.171 395.208L498.333 313.71V151.437L326.712 233.394Z" fill="#292A2E"/>
<path d="M613.539 399.554L498.333 315.102V147.081L614.013 232.006V232.628L613.539 399.554ZM500.78 313.862L611.111 394.736L611.568 233.243L500.784 151.915L500.78 313.862Z" fill="#292A2E"/>
<path d="M438.715 320.937C442.094 320.937 444.834 318.198 444.834 314.819C444.834 311.44 442.094 308.701 438.715 308.701C435.336 308.701 432.597 311.44 432.597 314.819C432.597 318.198 435.336 320.937 438.715 320.937Z" fill="#367CFF"/>
<path d="M499.556 155.615C502.935 155.615 505.674 152.876 505.674 149.497C505.674 146.118 502.935 143.379 499.556 143.379C496.177 143.379 493.438 146.118 493.438 149.497C493.438 152.876 496.177 155.615 499.556 155.615Z" fill="#367CFF"/>
<path d="M438.715 484.13C442.094 484.13 444.834 481.391 444.834 478.012C444.834 474.633 442.094 471.894 438.715 471.894C435.336 471.894 432.597 474.633 432.597 478.012C432.597 481.391 435.336 484.13 438.715 484.13Z" fill="#367CFF"/>
<path d="M612.79 238.276C616.169 238.276 618.908 235.537 618.908 232.158C618.908 228.779 616.169 226.04 612.79 226.04C609.411 226.04 606.671 228.779 606.671 232.158C606.671 235.537 609.411 238.276 612.79 238.276Z" fill="#367CFF"/>
<path d="M325.486 238.276C328.865 238.276 331.605 235.537 331.605 232.158C331.605 228.779 328.865 226.04 325.486 226.04C322.107 226.04 319.368 228.779 319.368 232.158C319.368 235.537 322.107 238.276 325.486 238.276Z" fill="#367CFF"/>
<path d="M612.79 404.914C616.169 404.914 618.908 402.175 618.908 398.796C618.908 395.417 616.169 392.678 612.79 392.678C609.411 392.678 606.671 395.417 606.671 398.796C606.671 402.175 609.411 404.914 612.79 404.914Z" fill="#367CFF"/>
<path d="M325.486 404.914C328.865 404.914 331.605 402.175 331.605 398.796C331.605 395.417 328.865 392.678 325.486 392.678C322.107 392.678 319.368 395.417 319.368 398.796C319.368 402.175 322.107 404.914 325.486 404.914Z" fill="#367CFF"/>
<path d="M499.556 320.937C502.935 320.937 505.674 318.198 505.674 314.819C505.674 311.44 502.935 308.701 499.556 308.701C496.177 308.701 493.438 311.44 493.438 314.819C493.438 318.198 496.177 320.937 499.556 320.937Z" fill="#367CFF"/>
<path d="M517.85 204.273L505.972 223.873C505.7 224.318 505.61 224.849 505.72 225.359C505.829 225.868 506.13 226.316 506.561 226.61L526.18 240.096C526.4 240.252 526.649 240.363 526.913 240.422C527.177 240.482 527.45 240.488 527.716 240.44C527.982 240.393 528.236 240.293 528.464 240.147C528.691 240.001 528.887 239.81 529.04 239.588C529.193 239.365 529.301 239.114 529.356 238.849C529.411 238.585 529.413 238.312 529.362 238.046C529.311 237.781 529.207 237.528 529.058 237.303C528.908 237.078 528.715 236.885 528.49 236.735L512.657 225.851C520.494 223.485 539.975 220.259 558.15 238.433C581.06 261.341 568.374 287.812 567.814 288.947C567.582 289.43 567.551 289.984 567.725 290.49C567.899 290.997 568.265 291.414 568.745 291.653C569.224 291.891 569.778 291.932 570.287 291.765C570.796 291.599 571.219 291.239 571.465 290.763C571.614 290.464 586.068 260.581 561.034 235.548C541.973 216.489 520.978 219.372 511.95 221.878L521.339 206.387C521.612 205.925 521.693 205.373 521.562 204.852C521.431 204.331 521.1 203.882 520.641 203.604C520.181 203.325 519.63 203.239 519.108 203.365C518.585 203.49 518.133 203.817 517.85 204.273V204.273Z" fill="#0CBC8B"/>
<path d="M548.744 218.061L559.846 226.958L558.931 225.237C558.646 224.676 558.586 224.028 558.761 223.423C558.936 222.819 559.334 222.303 559.875 221.981C560.16 221.825 560.474 221.728 560.797 221.697C561.121 221.666 561.447 221.701 561.757 221.8C562.067 221.899 562.353 222.06 562.598 222.274C562.843 222.487 563.042 222.749 563.183 223.042L570.338 237.769C571.241 239.629 571.381 241.767 570.73 243.729C570.078 245.69 568.686 247.32 566.85 248.269C564.718 249.372 562.306 249.813 559.923 249.535C557.539 249.258 555.293 248.275 553.471 246.713L545.231 239.621C544.796 239.261 544.498 238.762 544.388 238.207C544.279 237.653 544.365 237.078 544.632 236.579C544.882 236.134 545.267 235.781 545.732 235.571C546.197 235.36 546.716 235.304 547.215 235.41C547.217 235.382 547.224 235.355 547.237 235.33C547.25 235.304 547.267 235.282 547.289 235.264C547.31 235.246 547.335 235.232 547.362 235.224C547.389 235.216 547.418 235.214 547.446 235.217L545.921 233.912C545.457 233.532 545.147 232.997 545.048 232.406C544.948 231.815 545.066 231.208 545.379 230.697C545.705 230.202 546.204 229.845 546.778 229.696C547.352 229.548 547.961 229.618 548.487 229.893C548.485 229.867 548.488 229.842 548.495 229.818L547.871 229.281C547.458 228.91 547.175 228.417 547.065 227.873C546.954 227.33 547.022 226.765 547.257 226.263C547.557 225.713 548.061 225.303 548.66 225.12C549.259 224.937 549.905 224.996 550.462 225.284L550.488 225.246L545.823 221.508C545.584 221.316 545.387 221.078 545.243 220.807C545.099 220.537 545.012 220.24 544.986 219.935C544.961 219.63 544.998 219.322 545.095 219.032C545.192 218.741 545.347 218.474 545.551 218.245C545.961 217.815 546.519 217.557 547.111 217.523C547.704 217.489 548.288 217.681 548.744 218.061V218.061Z" fill="#E98862"/>
<path opacity="0.2" d="M550.416 225.548C550.43 225.57 550.448 225.59 550.468 225.606L555.041 229.184C555.088 229.221 555.148 229.237 555.207 229.23C555.266 229.223 555.32 229.192 555.357 229.145C555.393 229.098 555.41 229.039 555.403 228.98C555.395 228.92 555.365 228.867 555.318 228.83L550.745 225.252C550.703 225.222 550.652 225.207 550.601 225.21C550.549 225.213 550.5 225.233 550.462 225.268C550.424 225.303 550.399 225.349 550.391 225.4C550.383 225.451 550.393 225.504 550.419 225.548H550.416Z" fill="#0C0C0C"/>
<path opacity="0.2" d="M548.513 229.987C548.526 230.008 548.543 230.028 548.563 230.044L552.136 232.884C552.183 232.921 552.242 232.938 552.302 232.932C552.361 232.925 552.415 232.895 552.452 232.848C552.489 232.802 552.506 232.742 552.499 232.683C552.493 232.624 552.463 232.57 552.416 232.533L548.844 229.692C548.802 229.66 548.751 229.643 548.698 229.644C548.645 229.646 548.594 229.666 548.555 229.701C548.516 229.736 548.49 229.784 548.482 229.836C548.474 229.888 548.485 229.942 548.513 229.987V229.987Z" fill="#0C0C0C"/>
<path opacity="0.2" d="M547.242 235.554C547.257 235.577 547.276 235.598 547.298 235.614L549.016 236.92C549.063 236.951 549.122 236.964 549.178 236.954C549.235 236.945 549.286 236.914 549.32 236.868C549.355 236.823 549.371 236.765 549.365 236.708C549.359 236.651 549.331 236.599 549.287 236.561L547.569 235.256C547.527 235.224 547.475 235.208 547.422 235.21C547.37 235.212 547.32 235.233 547.281 235.268C547.242 235.304 547.217 235.352 547.21 235.404C547.202 235.456 547.214 235.509 547.242 235.554V235.554Z" fill="#0C0C0C"/>
<path d="M677.305 282.089L618.922 304.373C616.143 305.452 613.115 305.721 610.19 305.15C607.264 304.579 604.559 303.191 602.39 301.146L550.552 252.285L572.198 229.328L616.787 271.359L665.885 252.678L677.305 282.089Z" fill="#367CFF"/>
<path d="M736.566 602.852C736.566 602.852 733.929 616.525 721.125 617.29C708.321 618.055 711.099 628.251 711.099 628.251H760.025V603.805L736.566 602.852Z" fill="#367CFF"/>
<path d="M751.657 353.43C751.657 353.43 751.504 349.319 751.536 358.643C751.657 393.421 752.261 433.146 753.738 456.392C756.108 493.762 762.186 611.578 762.186 611.578L730.036 611.308L698.873 352.016L751.657 353.43Z" fill="#262626"/>
<path d="M715.351 394.441C715.351 394.441 714.019 419.679 713.772 425.602C713.201 439.306 713.002 453.492 713.002 469.578L707.934 427.409C707.934 427.409 711.643 414.196 715.351 394.441Z" fill="#0A0A0A"/>
<path d="M679.33 602.852C679.33 602.852 676.692 616.525 663.889 617.29C651.086 618.055 653.862 628.251 653.862 628.251H702.789V603.805L679.33 602.852Z" fill="#367CFF"/>
<path d="M663.764 356.13C663.764 356.13 660.916 474.993 661.333 480.803L673.289 610.678L704.908 611.262L701.827 476.106C701.827 476.106 704 438.823 713.009 404.204C717.618 386.436 720.392 368.242 721.287 349.907V349.907L663.764 356.13Z" fill="#262626"/>
<path d="M752.006 353.426L752.112 353.431C752.112 353.431 752.036 351.404 752.006 353.426Z" fill="#333333"/>
<path d="M659.238 290.154C659.901 297.942 663.126 346.537 663.764 356.131H751.625C752.122 347.478 754.35 309.641 756.232 292.72C758.027 276.574 761.554 268.493 758.969 263.716C754.748 255.915 743.211 251.406 735.344 250.338C730.541 249.686 723.316 249.222 723.316 249.222C723.316 249.222 722.704 261.596 708.117 262.285C688.261 263.222 689.587 249.222 689.488 249.222C686.272 249.222 667.543 250.735 663.399 253.922C656.153 259.501 657.831 273.647 659.238 290.154Z" fill="#367CFF"/>
<path d="M659.318 288.917C659.243 288.917 659.171 288.888 659.117 288.837C659.063 288.786 659.03 288.716 659.026 288.641L658.317 276.273C658.315 276.235 658.321 276.197 658.333 276.161C658.346 276.124 658.365 276.091 658.391 276.062C658.416 276.034 658.447 276.01 658.482 275.994C658.516 275.977 658.554 275.967 658.592 275.965C658.631 275.963 658.669 275.968 658.705 275.981C658.741 275.993 658.775 276.013 658.803 276.039C658.832 276.064 658.855 276.095 658.872 276.13C658.889 276.164 658.898 276.202 658.901 276.24L659.61 288.608C659.612 288.646 659.606 288.685 659.594 288.721C659.581 288.757 659.562 288.79 659.536 288.819C659.511 288.848 659.48 288.871 659.445 288.888C659.41 288.904 659.373 288.914 659.335 288.916L659.318 288.917Z" fill="#0C0C0C"/>
<path d="M770.616 355.621C773.2 355.62 775.746 354.996 778.037 353.8C780.328 352.605 782.296 350.873 783.774 348.753C785.251 346.633 786.195 344.188 786.524 341.625C786.853 339.062 786.558 336.458 785.664 334.033C784.756 331.572 763.474 275.228 759.426 264.788L729.43 276.942C731.708 282.816 739.96 305.062 746.59 322.986L735.577 321.788L732.11 353.678L768.881 355.529C769.457 355.59 770.037 355.621 770.616 355.621V355.621Z" fill="#367CFF"/>
<path d="M681.432 249.671C681.524 249.659 684.06 259.199 703.844 257.714C717.541 256.688 720.881 247.366 721.194 247.366C719.717 247.052 717.32 246.726 716.664 246.375C715.531 245.854 714.533 245.077 713.749 244.106C712.965 243.136 712.416 241.997 712.145 240.78C711.527 238.414 711.211 229.298 711.211 224.726L690.134 229.464C690.428 234.622 692.484 246.579 685.278 248.695C684.079 249.041 682.787 249.367 681.432 249.671Z" fill="#E98862"/>
<path d="M690.864 239.602C699.173 240.255 709.846 236.747 711.873 225.666L713.703 215.664C715.73 204.58 711.551 194.529 701.114 192.621C690.677 190.712 681.232 198.271 679.205 209.355L678.395 213.783C677.616 218.036 676.039 238.437 690.864 239.602Z" fill="#E98862"/>
<path d="M683.16 229.425C684.651 221.932 685.335 216.933 685.256 211.659C683.155 207.974 683.706 203.746 684.185 201.918C682.738 202.837 681.038 203.273 679.327 203.164C679.327 203.164 682.801 189.222 694.609 185.472C696.781 184.627 702.324 183.559 709.686 184.569C715.946 185.427 731.379 190.108 733.584 207.482V207.491C733.657 208.067 735.134 224.075 738.093 231.755C742.064 242.08 747.638 245.287 747.498 257.199C747.317 272.522 719.146 274.561 702.153 273.415C685.161 272.269 675.676 266.682 675.554 255.64C675.417 243.267 680.176 244.417 683.16 229.425Z" fill="#0A0A0A"/>
<path d="M753.501 293.049L751.343 356.124L751.927 356.144L754.085 293.069L753.501 293.049Z" fill="#0C0C0C"/>
<path d="M0.815793 630H937.46C937.676 630 937.884 629.914 938.037 629.761C938.19 629.608 938.276 629.401 938.276 629.184C938.276 628.968 938.19 628.76 938.037 628.607C937.884 628.454 937.676 628.369 937.46 628.369H0.815793C0.599432 628.369 0.391931 628.454 0.23894 628.607C0.0859494 628.76 0 628.968 0 629.184C0 629.401 0.0859494 629.608 0.23894 629.761C0.391931 629.914 0.599432 630 0.815793 630V630Z" fill="#262626"/>
</g>
<defs>
<clipPath id="clip0_364_899">
<rect width="938.276" height="630" fill="white"/>
</clipPath>
</defs>
</svg>
