<svg width="516" height="630" viewBox="0 0 516 630" fill="none" xmlns="http://www.w3.org/2000/svg">
<g clip-path="url(#clip0_364_1137)">
<path d="M483.54 10.7662L15.4082 25.7068L34.3404 618.907L502.472 603.966L483.54 10.7662Z" fill="#292A2E"/>
<path opacity="0.58" d="M483.54 10.7662L15.4082 25.7068L34.3404 618.907L502.472 603.966L483.54 10.7662Z" fill="white"/>
<path d="M466.416 0.433078L0.433594 38.8748L49.1633 629.566L515.146 591.124L466.416 0.433078Z" fill="white"/>
<path d="M466.048 0.867946L514.714 590.757L49.5308 629.132L0.867946 39.2426L466.052 0.867946M466.784 0L0 38.5074L48.7948 630L515.579 591.493L466.784 0Z" fill="black"/>
<path d="M434.718 42.0101L222.03 59.556L223.299 74.9353L435.987 57.3894L434.718 42.0101Z" fill="#292A2E"/>
<path d="M438.33 83.8754L225.561 101.375L225.627 102.177L438.396 84.6774L438.33 83.8754Z" fill="black"/>
<path d="M440.661 112.118L227.892 129.618L227.958 130.42L440.727 112.92L440.661 112.118Z" fill="black"/>
<path d="M442.992 140.362L230.222 157.861L230.288 158.663L443.058 141.164L442.992 140.362Z" fill="black"/>
<path d="M445.321 168.604L232.551 186.104L232.617 186.906L445.387 169.406L445.321 168.604Z" fill="black"/>
<path d="M330.441 206.504L234.883 214.363L234.949 215.165L330.507 207.306L330.441 206.504Z" fill="black"/>
<path d="M451.194 241.724L54.9922 274.409L56.2609 289.788L452.462 257.103L451.194 241.724Z" fill="#292A2E"/>
<path d="M259.007 466.794L97.2852 480.095L97.3511 480.897L259.073 467.596L259.007 466.794Z" fill="black"/>
<path d="M261.749 500.032L100.027 513.333L100.093 514.135L261.815 500.834L261.749 500.032Z" fill="black"/>
<path d="M264.492 533.27L102.771 546.571L102.836 547.373L264.558 534.072L264.492 533.27Z" fill="black"/>
<path d="M267.234 566.509L105.512 579.81L105.578 580.612L267.3 567.311L267.234 566.509Z" fill="black"/>
<path d="M80.445 488.002C85.143 488.002 88.9515 484.193 88.9515 479.495C88.9515 474.797 85.143 470.989 80.445 470.989C75.747 470.989 71.9385 474.797 71.9385 479.495C71.9385 484.193 75.747 488.002 80.445 488.002Z" fill="#292A2E"/>
<path d="M88.8512 589.9C93.5493 589.9 97.3577 586.091 97.3577 581.393C97.3577 576.695 93.5493 572.887 88.8512 572.887C84.1532 572.887 80.3447 576.695 80.3447 581.393C80.3447 586.091 84.1532 589.9 88.8512 589.9Z" fill="#292A2E"/>
<path d="M86.11 556.673C90.8081 556.673 94.6165 552.865 94.6165 548.167C94.6165 543.469 90.8081 539.66 86.11 539.66C81.412 539.66 77.6035 543.469 77.6035 548.167C77.6035 552.865 81.412 556.673 86.11 556.673Z" fill="#292A2E"/>
<path d="M83.277 522.338C87.975 522.338 91.7835 518.529 91.7835 513.831C91.7835 509.133 87.975 505.325 83.277 505.325C78.579 505.325 74.7705 509.133 74.7705 513.831C74.7705 518.529 78.579 522.338 83.277 522.338Z" fill="#292A2E"/>
<path d="M468.496 449.511L306.774 462.812L306.84 463.614L468.562 450.312L468.496 449.511Z" fill="black"/>
<path d="M471.239 482.75L309.517 496.051L309.583 496.853L471.304 483.552L471.239 482.75Z" fill="black"/>
<path d="M473.981 515.988L312.259 529.289L312.325 530.091L474.047 516.79L473.981 515.988Z" fill="black"/>
<path d="M476.723 549.227L315.001 562.528L315.067 563.33L476.789 550.029L476.723 549.227Z" fill="black"/>
<path d="M289.857 470.726C294.555 470.726 298.364 466.917 298.364 462.219C298.364 457.521 294.555 453.713 289.857 453.713C285.159 453.713 281.351 457.521 281.351 462.219C281.351 466.917 285.159 470.726 289.857 470.726Z" fill="#292A2E"/>
<path d="M298.263 572.624C302.961 572.624 306.77 568.815 306.77 564.117C306.77 559.419 302.961 555.611 298.263 555.611C293.565 555.611 289.757 559.419 289.757 564.117C289.757 568.815 293.565 572.624 298.263 572.624Z" fill="#292A2E"/>
<path d="M295.522 539.398C300.22 539.398 304.029 535.59 304.029 530.892C304.029 526.194 300.22 522.385 295.522 522.385C290.824 522.385 287.016 526.194 287.016 530.892C287.016 535.59 290.824 539.398 295.522 539.398Z" fill="#292A2E"/>
<path d="M292.69 505.062C297.388 505.062 301.197 501.254 301.197 496.556C301.197 491.858 297.388 488.049 292.69 488.049C287.992 488.049 284.184 491.858 284.184 496.556C284.184 501.254 287.992 505.062 292.69 505.062Z" fill="#292A2E"/>
<path d="M125.026 152.111C140.49 152.111 153.026 139.575 153.026 124.111C153.026 108.646 140.49 96.1103 125.026 96.1103C109.562 96.1103 97.0254 108.646 97.0254 124.111C97.0254 139.575 109.562 152.111 125.026 152.111Z" fill="#367CFF"/>
<path d="M195.156 193.2C188.281 203.444 179.186 212.008 168.547 218.256C157.909 224.503 145.999 228.274 133.703 229.289C121.408 230.303 109.041 228.535 97.5223 224.115C86.0035 219.695 75.6283 212.737 67.167 203.758C73.8271 193.244 82.8352 184.418 93.483 177.974C104.131 171.53 116.128 167.644 128.532 166.62C140.936 165.597 153.408 167.465 164.968 172.077C176.528 176.689 186.861 183.919 195.154 193.2H195.156Z" fill="#367CFF"/>
<path d="M127.043 66.058C148.032 66.0807 168.2 74.2148 183.332 88.7602C198.464 103.306 207.388 123.137 208.24 144.108C209.091 165.08 201.804 185.569 187.902 201.294C174 217.018 154.558 226.761 133.64 228.485C131.387 228.671 129.107 228.765 126.859 228.765C105.87 228.743 85.7023 220.608 70.5706 206.063C55.439 191.518 46.5147 171.687 45.663 150.715C44.8114 129.743 52.0983 109.254 66.0007 93.5296C79.9032 77.8051 99.3452 68.0624 120.263 66.3379C122.515 66.1521 124.794 66.058 127.044 66.058M127.044 65.2536C124.781 65.2536 122.495 65.3469 120.199 65.5359C109.446 66.4222 98.9737 69.4177 89.3789 74.3515C79.7841 79.2852 71.255 86.0606 64.2788 94.2906C57.3026 102.521 52.0158 112.044 48.7202 122.318C45.4247 132.591 44.1851 143.413 45.072 154.165V154.165C46.7657 174.699 56.1128 193.847 71.2603 207.813C86.4079 221.78 106.25 229.545 126.854 229.57C129.118 229.57 131.4 229.475 133.7 229.287C144.452 228.4 154.924 225.404 164.518 220.47C174.113 215.536 182.641 208.76 189.617 200.53C196.592 192.3 201.879 182.777 205.174 172.504C208.469 162.231 209.709 151.409 208.822 140.657C207.128 120.123 197.781 100.975 182.633 87.009C167.485 73.0428 147.643 65.2779 127.039 65.2536H127.044Z" fill="black"/>
<path d="M455.142 287.631L58.7861 320.23L58.8521 321.032L455.208 288.433L455.142 287.631Z" fill="black"/>
<path d="M457.3 315.737L61.0938 348.367L61.1597 349.168L457.366 316.538L457.3 315.737Z" fill="black"/>
<path d="M459.63 343.971L63.4238 376.6L63.4898 377.401L459.696 344.772L459.63 343.971Z" fill="black"/>
<path d="M461.96 372.203L65.7529 404.833L65.8189 405.634L462.026 373.004L461.96 372.203Z" fill="black"/>
<path d="M163.668 425.382L68.1094 433.241L68.1753 434.043L163.733 426.184L163.668 425.382Z" fill="black"/>
<path d="M53.2874 8.22901C56.3221 8.67554 59.0676 10.2754 60.9523 12.6954C62.837 15.1155 63.7156 18.1692 63.4052 21.2208L59.1982 66.6694C58.9866 69.0532 57.8374 71.2555 56.003 72.7925C54.1686 74.3295 51.7991 75.0753 49.4151 74.8662C47.1132 74.61 45.0036 73.4615 43.539 71.6673C42.0745 69.8731 41.3718 67.5762 41.5818 65.2697L45.9087 18.5406C46.0272 17.0763 46.6846 15.708 47.7537 14.7004C48.8228 13.6929 50.2276 13.1176 51.6963 13.086C52.5075 13.0837 53.3102 13.2507 54.0531 13.5764C54.7959 13.9021 55.4627 14.3793 56.0105 14.9775C56.5584 15.5756 56.9754 16.2815 57.2348 17.0501C57.4942 17.8186 57.5903 18.6329 57.517 19.4407L54.4804 52.2425C54.4436 52.6374 54.2516 53.0016 53.9465 53.255C53.6413 53.5085 53.248 53.6303 52.8531 53.5939V53.5939C52.6573 53.5757 52.4671 53.5191 52.2932 53.4274C52.1193 53.3356 51.9653 53.2104 51.8398 53.0591C51.7144 52.9077 51.62 52.7331 51.5621 52.5452C51.5042 52.3573 51.484 52.1599 51.5025 51.9642L54.527 19.2919C54.6056 18.5779 54.4179 17.8601 53.9999 17.276C53.5818 16.6919 52.963 16.2826 52.2618 16.1266C51.8736 16.0516 51.474 16.0586 51.0887 16.1473C50.7034 16.2359 50.3409 16.4042 50.0245 16.6414C49.7081 16.8785 49.4449 17.1792 49.2517 17.5242C49.0585 17.8691 48.9396 18.2507 48.9027 18.6444L44.5758 65.3751C44.4227 66.842 44.8193 68.3136 45.6887 69.5051C46.5581 70.6965 47.8386 71.523 49.2823 71.8247C50.0828 71.977 50.9062 71.9603 51.6999 71.7758C52.4935 71.5914 53.2399 71.2431 53.8911 70.7535C54.5424 70.2638 55.0842 69.6435 55.4818 68.9324C55.8794 68.2212 56.1241 67.4347 56.2002 66.6235L60.4345 20.8886C60.6619 18.5332 59.9449 16.1838 58.4412 14.3567C56.9374 12.5296 54.7698 11.3741 52.4147 11.1441C50.1311 10.9745 47.8722 11.7074 46.1232 13.1853C44.3742 14.6633 43.2747 16.7683 43.0611 19.0482L39.4276 58.2843C39.4096 58.4798 39.3532 58.6698 39.2616 58.8435C39.1701 59.0172 39.0452 59.1711 38.8942 59.2966C38.7432 59.422 38.5689 59.5164 38.3813 59.5745C38.1938 59.6325 37.9966 59.6531 37.8012 59.6349C37.6056 59.6169 37.4155 59.5606 37.2417 59.4691C37.0679 59.3776 36.9139 59.2528 36.7884 59.1017C36.6629 58.9507 36.5684 58.7764 36.5103 58.5888C36.4522 58.4012 36.4316 58.2039 36.4498 58.0084L40.0824 18.7723C40.2297 17.2019 40.6919 15.6774 41.4415 14.2897C42.1911 12.902 43.2127 11.6796 44.4452 10.6955C45.6777 9.71136 47.096 8.98576 48.6152 8.56199C50.1344 8.13821 51.7235 8.02497 53.2874 8.22901Z" fill="#367CFF"/>
</g>
<defs>
<clipPath id="clip0_364_1137">
<rect width="515.579" height="630" fill="white"/>
</clipPath>
</defs>
</svg>
