<svg width="986" height="630" viewBox="0 0 986 630" fill="none" xmlns="http://www.w3.org/2000/svg">
<g clip-path="url(#clip0_364_1054)">
<path d="M924.434 630C956.386 630 982.887 603.125 985.108 568.477C990.185 489.277 947.046 413.529 839.859 393.208C773.315 380.593 698.182 290.262 663.415 221.55C603.737 103.604 521.062 45.2691 435.778 45.2691C296.531 45.2691 276.947 121.233 216.289 214.524C109.53 378.72 62.953 380.964 9.81479 490.594C-0.967658 512.847 -0.791355 542.761 0.784624 568.484C2.91209 603.137 29.5081 630 61.4587 630H924.434Z" fill="#F3F5FD"/>
<path d="M425.821 76.3833H124.348V618.375H425.821V76.3833Z" fill="white"/>
<path d="M124.348 618.375H345.248V112.98L124.348 76.3833V618.375Z" fill="#F3F5FD"/>
<path d="M124.347 76.3833H425.82V618.375H124.347V76.3833ZM112.722 64.7581V630.003H437.446V64.7581H112.722Z" fill="#DEE8F5"/>
<path d="M317.484 361.026C325.022 361.026 331.132 354.916 331.132 347.378C331.132 339.841 325.022 333.731 317.484 333.731C309.947 333.731 303.837 339.841 303.837 347.378C303.837 354.916 309.947 361.026 317.484 361.026Z" fill="white"/>
<path d="M423.687 184.894C423.687 184.894 432.332 181.181 432.332 158.469L449.71 156.698C449.71 156.698 446.128 176.766 454.26 183.896L423.687 184.894Z" fill="#E98862"/>
<path d="M423.336 148.923C423.961 155.866 427.164 162.654 433.02 165.359C439.387 168.511 446.428 170.058 453.53 169.863C472.396 169.863 472.183 126.95 463.964 117.945C455.746 108.939 429.207 112.039 424.896 125.621C422.666 132.646 422.743 142.316 423.336 148.923Z" fill="#E98862"/>
<path d="M462.971 135.374C466.632 135.346 470.286 135.038 473.901 134.453C473.901 134.453 472.794 106.586 443.2 108.175C439.357 108 435.506 108.227 431.71 108.852C422.816 110.216 410.204 119.311 408.167 142.07C407.234 152.512 403.634 162.355 400.887 168.587C400.565 169.318 400.43 170.119 400.494 170.916C400.559 171.713 400.821 172.481 401.258 173.151C401.694 173.821 402.29 174.372 402.993 174.753C403.696 175.135 404.483 175.335 405.282 175.336L468.686 174.833C469.436 174.833 470.175 174.659 470.845 174.322C471.515 173.986 472.098 173.497 472.545 172.895C472.992 172.293 473.292 171.595 473.421 170.857C473.55 170.118 473.505 169.359 473.288 168.641C469.838 157.228 463.53 150.227 462.971 135.374Z" fill="#0F1011"/>
<path d="M496.825 618.369L474.406 615.703C475.416 607.218 476.556 597.026 476.634 595.355V595.619H499.209C499.204 596.295 499.204 598.356 496.825 618.369Z" fill="#E98862"/>
<path d="M406.871 621.068L384.296 620.995C384.296 620.995 384.371 597.683 384.371 595.619H406.947C406.947 597.689 406.871 621.068 406.871 621.068Z" fill="#E98862"/>
<path d="M465.382 611.241L505.158 610.563C503.29 563.228 503.175 513.576 502.593 466.127C494.831 414.984 490.746 358.822 481.162 308.047L397.902 303.714C397.902 303.714 396.058 337.427 395.322 350.785C391.081 427.535 383.343 535.635 378.485 609.958L418.119 613.308C425.261 540.437 436.312 434.257 443.109 357.704C450.915 394.974 456.224 433.566 463.013 470.517C464.362 516.77 465.51 565.124 465.382 611.241Z" fill="#262626"/>
<path d="M434.314 629.799C434.894 629.796 435.468 629.68 436.003 629.455C436.538 629.231 437.023 628.903 437.431 628.491C437.839 628.079 438.162 627.591 438.382 627.054C438.601 626.517 438.713 625.942 438.71 625.362C438.71 625.255 438.706 625.147 438.697 625.04C438.631 624.201 438.327 623.398 437.821 622.726C437.315 622.054 436.627 621.541 435.838 621.246L409.562 612.445C409.053 612.277 408.513 612.22 407.98 612.279C407.448 612.339 406.934 612.513 406.474 612.789C402.862 615.295 398.541 616.576 394.146 616.444C390.723 616.201 387.438 615.001 384.664 612.98C384.421 612.78 384.125 612.654 383.812 612.615C383.499 612.577 383.182 612.628 382.897 612.763C382.612 612.899 382.371 613.112 382.203 613.379C382.035 613.646 381.947 613.955 381.948 614.27V627.119C381.948 627.882 382.251 628.615 382.791 629.155C383.331 629.695 384.063 629.998 384.827 629.998H384.837L434.314 629.799Z" fill="#C1D8ED"/>
<path d="M524.33 629.799C524.91 629.796 525.483 629.68 526.018 629.455C526.552 629.231 527.038 628.904 527.446 628.492C527.854 628.08 528.177 627.592 528.396 627.055C528.616 626.519 528.727 625.944 528.724 625.364C528.724 625.257 528.725 625.15 528.712 625.042C528.646 624.203 528.343 623.4 527.836 622.728C527.33 622.056 526.642 621.543 525.854 621.248L499.577 612.447C499.068 612.279 498.529 612.222 497.996 612.282C497.463 612.341 496.95 612.515 496.49 612.791C492.878 615.297 488.556 616.578 484.162 616.446C480.739 616.203 477.453 615.003 474.679 612.982C474.435 612.782 474.14 612.656 473.827 612.617C473.514 612.579 473.196 612.63 472.911 612.766C472.627 612.901 472.386 613.114 472.218 613.381C472.05 613.648 471.961 613.957 471.962 614.272V627.121C471.962 627.885 472.266 628.617 472.806 629.157C473.346 629.697 474.078 630 474.841 630H474.853L524.33 629.799Z" fill="#C1D8ED"/>
<path d="M570.161 259.921C573.365 259.921 584.075 258.229 584.839 260.95C585.298 262.582 577.314 264.508 577.314 264.508" fill="#E98862"/>
<path d="M568.479 272.765C568.479 272.765 590.102 281.649 602.525 271.517C602.841 271.258 603.071 270.91 603.187 270.519C603.302 270.127 603.296 269.71 603.171 269.321C603.045 268.933 602.805 268.591 602.482 268.341C602.16 268.091 601.769 267.944 601.361 267.92C592.986 267.426 575.782 265.737 577.792 260.215H564.286" fill="#E98862"/>
<path d="M511.683 254.25C514.872 253.942 525.37 251.23 526.393 253.865C527.006 255.444 519.246 258.128 519.246 258.128" fill="#E98862"/>
<path d="M511.242 267.196C511.242 267.196 533.618 273.962 545.01 262.681C545.3 262.393 545.496 262.025 545.573 261.623C545.651 261.222 545.605 260.807 545.442 260.432C545.28 260.058 545.008 259.741 544.662 259.523C544.316 259.305 543.913 259.197 543.505 259.212C535.12 259.526 517.833 259.497 519.304 253.808L505.866 255.098" fill="#E98862"/>
<path d="M399.37 281.333C396.262 281.333 393.281 280.098 391.084 277.901C388.886 275.703 387.652 272.723 387.652 269.615C387.652 269.429 387.652 269.244 387.665 269.058L390.839 201.962L414.252 203.069L411.691 257.194L513.716 251.561L515.006 274.966L400.015 281.314C399.8 281.326 399.585 281.333 399.37 281.333Z" fill="#367CFF"/>
<path d="M510.056 255.296L484.02 199.034C481.86 189.263 475.792 182.52 461.659 181.914C457.343 181.729 436.282 181.699 420.862 181.699C410.503 181.699 401.999 184.878 397.088 189.789C380.154 206.722 400.939 235.575 400.939 258.16C400.939 280.746 390.726 290.862 391.479 302.451C392.661 320.667 481.167 316.363 485.676 306.016C490.319 295.345 480.896 288.772 481.308 253.868C481.332 251.803 481.432 249.685 481.58 247.534L492.526 271.184C493.414 273.103 494.823 274.734 496.592 275.891C498.361 277.048 500.42 277.685 502.534 277.729L571.54 279.18L572.017 256.607L510.056 255.296Z" fill="#367CFF"/>
<path d="M744.214 618.368L766.632 615.703C765.623 607.218 764.482 597.026 764.405 595.355V595.619H741.83C741.835 596.295 741.835 598.356 744.214 618.368Z" fill="#E98862"/>
<path d="M834.168 621.068L856.743 620.995C856.743 620.995 856.668 597.683 856.668 595.619H834.092C834.092 597.689 834.168 621.068 834.168 621.068Z" fill="#E98862"/>
<path d="M775.656 611.241L735.88 610.563C737.534 568.678 737.815 520.768 738.259 477.417C738.383 466.672 739.194 455.945 740.688 445.303C747.086 399.375 751.261 353.711 759.876 308.047L760.163 308.132L761.002 302.402L842.787 297.349L847.044 350.778C847.044 350.778 857.697 535.625 862.555 609.949L822.927 613.308C815.785 540.437 804.734 434.256 797.937 357.704C790.131 394.974 784.822 433.566 778.034 470.517C776.676 516.77 775.529 565.125 775.656 611.241Z" fill="#262626"/>
<path d="M806.724 629.799C806.145 629.796 805.571 629.68 805.036 629.455C804.502 629.231 804.016 628.904 803.608 628.492C803.2 628.08 802.877 627.592 802.658 627.055C802.438 626.519 802.327 625.944 802.33 625.364C802.33 625.257 802.33 625.15 802.342 625.042C802.408 624.203 802.712 623.4 803.218 622.728C803.724 622.056 804.412 621.543 805.2 621.248L831.477 612.447C831.986 612.279 832.525 612.222 833.058 612.282C833.591 612.341 834.105 612.515 834.564 612.791C838.177 615.297 842.498 616.578 846.892 616.446C850.315 616.203 853.6 615.003 856.374 612.982C856.618 612.782 856.913 612.656 857.226 612.618C857.539 612.579 857.857 612.631 858.142 612.766C858.427 612.901 858.667 613.115 858.835 613.381C859.004 613.648 859.092 613.957 859.092 614.272V627.121C859.092 627.885 858.788 628.617 858.248 629.157C857.709 629.697 856.976 630 856.213 630H856.201L806.724 629.799Z" fill="#C1D8ED"/>
<path d="M716.709 629.799C716.129 629.796 715.555 629.679 715.02 629.455C714.486 629.23 714 628.902 713.592 628.49C713.184 628.078 712.861 627.59 712.642 627.053C712.423 626.516 712.311 625.941 712.314 625.361C712.314 625.254 712.314 625.146 712.327 625.039C712.392 624.2 712.696 623.397 713.202 622.725C713.709 622.052 714.397 621.539 715.185 621.245L741.461 612.444C741.97 612.276 742.51 612.219 743.043 612.279C743.576 612.338 744.09 612.512 744.55 612.788C748.162 615.294 752.482 616.575 756.877 616.443C760.3 616.2 763.586 615 766.36 612.979C766.603 612.779 766.899 612.653 767.212 612.614C767.525 612.576 767.842 612.627 768.127 612.762C768.412 612.898 768.652 613.111 768.82 613.378C768.988 613.645 769.077 613.954 769.076 614.269V627.118C769.076 627.881 768.773 628.614 768.233 629.154C767.693 629.693 766.961 629.997 766.197 629.997H766.185L716.709 629.799Z" fill="#C1D8ED"/>
<path d="M630.742 246.027C630.742 246.027 621.917 241.739 615.288 243.383C612.285 244.129 611.293 245.123 611.542 246.082C610.081 246.476 609.098 247.094 609.056 248.041C609.056 248.041 608.34 260.189 610.561 262.063C613.916 264.897 630.535 262.678 630.535 262.678L630.742 246.027Z" fill="#E98862"/>
<path d="M668.835 265.89H732.775C734.668 265.89 736.531 265.414 738.192 264.505C739.853 263.597 741.259 262.285 742.28 260.691L782.682 197.622L763.672 185.441L726.605 243.314H668.835V265.89Z" fill="#367CFF"/>
<path d="M755.173 304.363C759.677 314.715 848.184 319.015 849.366 300.804C850.119 289.216 839.906 279.1 839.906 256.514C839.906 233.927 860.686 205.085 843.755 188.153C838.842 183.24 830.36 180.069 820.018 180.058C819.244 186.089 782.629 186.111 782.35 180.198C780.952 180.219 779.866 180.241 779.189 180.273C743.52 181.81 759.194 222.403 759.538 252.224C759.957 287.119 750.529 293.695 755.173 304.363Z" fill="#367CFF"/>
<path d="M782.35 180.198C782.629 186.111 785.843 194.807 795.766 195.463C808.989 196.334 819.244 186.089 820.018 180.058H819.986C806.967 180.058 789.939 180.08 782.35 180.198Z" fill="#E98862"/>
<path d="M743.686 213.985H635.143V304.251H743.686V213.985Z" fill="#0CBC8B"/>
<path opacity="0.26" d="M743.686 213.985H635.143V304.251H743.686V213.985Z" fill="#0F1011"/>
<path d="M709.286 213.985H611.492V304.251H709.286V213.985Z" fill="#0CBC8B"/>
<path d="M744.053 257.561H744.028C743.865 257.531 743.697 257.508 743.528 257.49C740.877 257.119 728.8 255.526 725.847 256.781C724.854 257.204 725.032 257.929 725.689 258.703C720.267 259.216 715.595 260.546 715.456 264.606C715.213 271.639 732.442 273.513 738.139 272.927C743.256 272.398 751.045 258.83 744.053 257.561Z" fill="#E98862"/>
<path d="M739.296 277.247L805.818 275.219C807.895 275.156 809.917 274.542 811.678 273.44C813.439 272.337 814.875 270.787 815.839 268.947L848.683 206.323L827.925 195.439L798.261 252.001L738.581 253.821L739.296 277.247Z" fill="#367CFF"/>
<path d="M809.849 164.928C809.838 164.649 809.838 164.359 809.838 164.068C809.827 162.112 809.913 159.983 810.107 157.661L808.043 157.274L805.957 156.887L792.928 154.479C793.225 158.296 793.168 162.133 792.756 165.939C792.702 166.455 792.627 166.982 792.552 167.508C792.498 167.885 792.433 168.25 792.369 168.626C792.358 168.723 792.336 168.831 792.315 168.938C792.164 169.777 791.992 170.604 791.777 171.421C791.744 171.589 791.701 171.754 791.648 171.916C791.646 171.946 791.639 171.975 791.627 172.002C791.541 172.357 791.433 172.722 791.315 173.066C791.197 173.464 791.068 173.851 790.917 174.238C790.864 174.399 790.799 174.561 790.735 174.722C790.722 174.767 790.704 174.81 790.681 174.851C790.606 175.055 790.52 175.249 790.423 175.453C790.383 175.567 790.336 175.678 790.283 175.786C790.1 176.195 789.907 176.582 789.703 176.958C789.7 176.958 789.697 176.959 789.695 176.961C789.693 176.963 789.692 176.966 789.692 176.969V176.969C788.882 178.556 787.742 179.953 786.349 181.064H813.36C811.687 178.183 809.967 173.217 809.849 164.928Z" fill="#E98862"/>
<path d="M789.689 176.973L803.957 166.058L792.751 165.942C792.426 169.778 791.388 173.519 789.689 176.973V176.973Z" fill="#C98481"/>
<path d="M819.849 148.89C818.66 155.758 814.913 162.261 808.854 164.478C802.251 167.099 795.107 168.064 788.045 167.289C769.243 165.748 772.962 122.998 781.888 114.693C790.814 106.387 817.012 111.647 820.2 125.536C821.852 132.717 820.981 142.349 819.849 148.89Z" fill="#E98862"/>
<path d="M792.953 143.596C793.813 143.596 794.511 142.898 794.511 142.038C794.511 141.178 793.813 140.48 792.953 140.48C792.093 140.48 791.396 141.178 791.396 142.038C791.396 142.898 792.093 143.596 792.953 143.596Z" fill="#0F1011"/>
<path d="M780.665 142.587C781.525 142.587 782.222 141.89 782.222 141.03C782.222 140.169 781.525 139.472 780.665 139.472C779.804 139.472 779.107 140.169 779.107 141.03C779.107 141.89 779.804 142.587 780.665 142.587Z" fill="#0F1011"/>
<path d="M777.966 137.71H777.975L782.102 137.659C782.296 137.658 782.482 137.58 782.618 137.442C782.755 137.303 782.831 137.117 782.829 136.923C782.828 136.728 782.75 136.543 782.612 136.406C782.473 136.27 782.287 136.194 782.093 136.195H782.083L777.957 136.247C777.768 136.255 777.589 136.336 777.459 136.474C777.328 136.611 777.256 136.793 777.257 136.983C777.258 137.172 777.332 137.353 777.465 137.489C777.597 137.625 777.776 137.704 777.966 137.71V137.71Z" fill="#0F1011"/>
<path d="M796.317 139.215C796.496 139.215 796.669 139.148 796.803 139.029C796.936 138.91 797.022 138.746 797.043 138.568C797.064 138.391 797.019 138.211 796.916 138.064C796.814 137.918 796.661 137.813 796.487 137.771L792.418 136.792C792.23 136.744 792.031 136.773 791.864 136.872C791.696 136.971 791.576 137.132 791.528 137.32C791.48 137.508 791.508 137.708 791.607 137.875C791.706 138.042 791.868 138.163 792.056 138.211H792.075L796.144 139.19C796.201 139.205 796.259 139.214 796.317 139.215V139.215Z" fill="#0F1011"/>
<path d="M809.097 163.654C809.454 164.796 809.704 165.294 810.732 164.683C814.77 162.284 822.205 160.039 825.301 140.48C828.076 122.957 813.821 116.772 805.198 114.192C797.767 111.969 799.535 112.647 791.396 117.553C784.38 121.781 776.303 126.459 776.303 126.459C779.403 126.602 780.028 129.267 787.342 129.267C792.997 129.267 796.673 126.74 801.968 126.963C806.814 127.166 807.809 130.12 807.637 132.016C806.596 143.498 807.835 159.617 809.097 163.654Z" fill="#0F1011"/>
<path d="M801.057 145.849C800.94 147.58 801.51 149.288 802.642 150.603C803.774 151.918 805.379 152.734 807.108 152.875C808.838 153.016 810.553 152.471 811.884 151.358C813.215 150.244 814.054 148.651 814.22 146.924C814.304 146.075 814.22 145.219 813.973 144.402C813.726 143.586 813.321 142.827 812.781 142.167C812.24 141.507 811.575 140.961 810.823 140.558C810.072 140.156 809.248 139.905 808.399 139.821C808.326 139.814 808.252 139.807 808.178 139.803C803.469 139.654 801.355 142.214 801.057 145.849Z" fill="#E98862"/>
<g opacity="0.15">
<path d="M786.039 150.677C786.168 150.677 786.292 150.631 786.39 150.547C786.487 150.463 786.552 150.347 786.571 150.219C786.59 150.092 786.563 149.962 786.494 149.853C786.425 149.744 786.32 149.663 786.197 149.626L783.029 148.653L785.244 143.718C785.305 143.589 785.311 143.441 785.262 143.307C785.213 143.173 785.113 143.064 784.984 143.004C784.854 142.944 784.707 142.937 784.573 142.986C784.439 143.035 784.33 143.135 784.269 143.265V143.278L781.804 148.769C781.775 148.833 781.76 148.903 781.758 148.973C781.756 149.044 781.767 149.114 781.793 149.18C781.818 149.246 781.856 149.307 781.904 149.358C781.953 149.409 782.011 149.45 782.075 149.479C782.096 149.488 782.117 149.495 782.137 149.502L785.886 150.653C785.936 150.669 785.987 150.677 786.039 150.677V150.677Z" fill="black"/>
</g>
<path d="M803.957 136.758L807.638 137.994C807.638 137.994 807.159 151.049 805.798 157.689C804.437 164.33 803.378 172.985 799.153 173.936C793.545 175.198 785.525 175.252 780.663 173.515C775.18 171.556 775.313 151.233 775.313 151.233C775.313 151.233 792.944 153.143 797.829 150.803C802.713 148.462 803.957 136.758 803.957 136.758Z" fill="#0F1011"/>
<path d="M792.233 154.305C792.233 154.305 786.483 154.911 782.451 153.503C782.451 153.503 782.483 157.29 787.032 157.663C791.582 158.036 792.233 154.305 792.233 154.305Z" fill="#F8FCFF"/>
<path d="M808.178 139.807C808.178 139.807 819.115 138.552 825.237 141.03C825.237 141.03 831.036 111.704 803.013 108.994C774.991 106.284 776.884 129.626 776.884 129.626L798.969 128.306L808.178 139.807Z" fill="#262626"/>
<path d="M808.178 139.807C808.178 139.807 798.64 132.482 790.688 132.482H774.551C774.551 132.482 761.487 123.948 761.534 121.839C761.632 117.449 784.814 117.844 789.693 119.737C794.571 121.63 808.178 139.807 808.178 139.807Z" fill="#262626"/>
<path opacity="0.21" d="M808.178 139.807C808.178 139.807 798.64 132.482 790.688 132.482H774.551C774.551 132.482 761.487 123.948 761.534 121.839C761.632 117.449 784.814 117.844 789.693 119.737C794.571 121.63 808.178 139.807 808.178 139.807Z" fill="black"/>
<path d="M610.567 262.067C610.869 262.307 611.206 262.498 611.566 262.635C613.495 263.032 618.355 261.869 619.134 260.521C620.403 258.327 619.616 250.4 618.497 247.523C617.447 244.836 612.216 245.961 611.529 246.088C611.508 246.096 611.486 246.102 611.463 246.105C610.037 246.497 609.098 247.108 609.058 248.047C609.058 248.047 608.338 260.184 610.567 262.067Z" fill="#E98862"/>
<path d="M113.512 568.207C104.756 565.693 98.1654 557.859 95.5467 549.134C92.9279 540.409 93.8503 530.94 96.4067 522.197C98.4933 515.062 101.657 508.165 102.436 500.772C105.033 476.154 81.1511 450.999 92.3915 428.944C96.0251 421.812 103.057 416.237 104.311 408.331C105.352 401.793 102.127 395.439 100.528 389.015C98.3256 380.175 99.4426 370.144 105.178 363.065C110.913 355.986 121.751 352.893 129.654 357.427C139.99 363.355 140.887 377.994 138.23 389.611C135.574 401.227 130.65 413.177 133.896 424.643C136.99 435.572 147.057 443.801 148.862 455.015C150.367 464.336 145.812 473.426 143.81 482.654C140.666 497.157 143.866 512.191 144.002 527.029C144.139 541.868 139.956 558.51 113.512 568.207Z" fill="#8DDBE0"/>
<path d="M100.001 569.616C94.7899 567.96 90.1138 564.947 86.4525 560.887C82.7912 556.826 80.2765 551.864 79.1668 546.511C77.4532 537.681 79.5581 527.762 74.7248 520.173C68.1758 509.892 61.4612 508.731 53.3082 499.669C40.7735 485.738 40.3328 479.566 41.1605 453.766C41.5099 442.854 26.4446 430.545 31.7498 420.057C36.4251 410.821 50.6347 410.773 58.693 417.273C66.7514 423.773 70.2914 434.191 73.8024 443.934C77.3134 453.676 81.7404 463.976 90.6415 469.262C95.979 472.432 102.968 473.898 105.915 479.367C108.28 483.757 107.091 489.115 106.139 494.012C103.746 506.321 104.346 521.336 114.676 528.445C119.336 531.653 125.439 532.757 129.27 536.919C133.059 541.036 133.669 547.132 133.413 552.722C132.909 563.465 129.949 573.95 124.76 583.37" fill="#DEE8F5"/>
<path d="M112.457 578.188C103.157 567.562 101.842 550.728 109.379 538.787C115.704 528.766 127.489 521.866 129.964 510.279C132.167 499.959 126.055 489.294 127.885 478.902C129.874 467.6 140.315 460.183 148.609 452.253C150.767 450.324 152.623 448.083 154.115 445.603C157.763 439.038 156.746 430.983 157.985 423.577C160.357 409.392 172.044 396.809 186.235 394.464C198.68 392.408 207.595 399.557 207.595 412.724C207.595 428.321 195.91 435.005 189.949 442.072C181.387 452.296 176.843 465.29 177.167 478.622C177.587 493.513 183.928 509.368 177.154 522.635C172.183 532.371 161.566 537.562 153.223 544.627C146.919 550.029 141.787 556.663 138.143 564.122C134.5 571.581 132.422 579.707 132.036 588" fill="white"/>
<path d="M152.596 553.732H77.5479V628.78H152.596V553.732Z" fill="#0CBC8B"/>
<g opacity="0.42">
<path d="M152.596 568.365H77.5479V583.013H152.596V568.365Z" fill="white"/>
</g>
<path d="M607.552 157.531C651.053 157.531 686.317 122.267 686.317 78.7656C686.317 35.2646 651.053 0 607.552 0C564.051 0 528.786 35.2646 528.786 78.7656C528.786 122.267 564.051 157.531 607.552 157.531Z" fill="#262626"/>
<path d="M655.046 126.26C681.277 100.029 681.277 57.5014 655.046 31.271C628.816 5.04057 586.288 5.04056 560.057 31.271C533.827 57.5014 533.827 100.029 560.057 126.26C586.288 152.49 628.816 152.49 655.046 126.26Z" fill="#F3F5FD"/>
<path d="M641.201 67.9885L609.789 85.6403C609.094 86.0286 608.309 86.2287 607.513 86.2209C606.717 86.2131 605.937 85.9977 605.25 85.596C604.562 85.1942 603.992 84.6201 603.594 83.9303C603.197 83.2404 602.987 82.4588 602.984 81.6627V33.5664C602.984 32.3547 603.465 31.1926 604.322 30.3357C605.179 29.4789 606.341 28.9976 607.553 28.9976C608.764 28.9976 609.927 29.4789 610.783 30.3357C611.64 31.1926 612.122 32.3547 612.122 33.5664V73.8538L636.718 60.0183C637.241 59.724 637.817 59.5355 638.413 59.4637C639.009 59.392 639.613 59.4383 640.191 59.6C640.769 59.7617 641.309 60.0357 641.781 60.4063C642.253 60.7768 642.648 61.2368 642.942 61.7598C643.237 62.2829 643.425 62.8588 643.497 63.4547C643.569 64.0505 643.522 64.6547 643.361 65.2327C643.199 65.8107 642.925 66.3512 642.554 66.8233C642.184 67.2954 641.724 67.6899 641.201 67.9842V67.9885Z" fill="#DEE8F5"/>
<path d="M641.201 67.9885L609.789 85.6403C609.094 86.0286 608.309 86.2287 607.513 86.2209C606.717 86.2131 605.937 85.9977 605.25 85.596C604.562 85.1942 603.992 84.6201 603.594 83.9303C603.197 83.2404 602.987 82.4588 602.984 81.6627V33.5664C602.984 32.3547 603.465 31.1926 604.322 30.3357C605.179 29.4789 606.341 28.9976 607.553 28.9976C608.764 28.9976 609.927 29.4789 610.783 30.3357C611.64 31.1926 612.122 32.3547 612.122 33.5664V73.8538L636.718 60.0183C637.241 59.724 637.817 59.5355 638.413 59.4637C639.009 59.392 639.613 59.4383 640.191 59.6C640.769 59.7617 641.309 60.0357 641.781 60.4063C642.253 60.7768 642.648 61.2368 642.942 61.7598C643.237 62.2829 643.425 62.8588 643.497 63.4547C643.569 64.0505 643.522 64.6547 643.361 65.2327C643.199 65.8107 642.925 66.3512 642.554 66.8233C642.184 67.2954 641.724 67.6899 641.201 67.9842V67.9885Z" fill="#262626"/>
<path d="M674.719 167.666C694.703 167.666 710.903 151.466 710.903 131.482C710.903 111.498 694.703 95.2983 674.719 95.2983C654.735 95.2983 638.535 111.498 638.535 131.482C638.535 151.466 654.735 167.666 674.719 167.666Z" fill="#0CBC8B"/>
<path d="M667.739 150.88C666.925 150.88 666.143 150.569 665.551 150.011L650.089 135.421C649.474 134.841 649.115 134.041 649.091 133.196C649.066 132.351 649.378 131.531 649.958 130.916C650.538 130.302 651.339 129.943 652.184 129.918C653.029 129.894 653.849 130.206 654.463 130.786L667.562 143.148L694.802 113.131C695.37 112.505 696.163 112.13 697.008 112.089C697.852 112.048 698.678 112.345 699.303 112.912C699.929 113.48 700.304 114.274 700.345 115.118C700.386 115.962 700.09 116.788 699.522 117.414V117.414L670.098 149.837C669.814 150.151 669.469 150.405 669.085 150.584C668.701 150.763 668.286 150.864 667.862 150.88H667.739Z" fill="white"/>
</g>
<defs>
<clipPath id="clip0_364_1054">
<rect width="985.507" height="630" fill="white"/>
</clipPath>
</defs>
</svg>
