<svg width="413" height="400" viewBox="0 0 413 400" fill="none" xmlns="http://www.w3.org/2000/svg">
<path d="M397.115 224.858C387.915 212.48 375.416 204.573 361.623 203.684C361.181 203.611 360.771 203.495 360.329 203.495H74.7468C68.1144 203.495 62.0535 199.825 57.6751 193.928C53.275 188.03 50.5789 179.875 50.5789 170.934C50.5789 162.007 53.2966 153.838 57.6751 147.94C62.0535 142.043 68.1144 138.373 74.7468 138.373H361.85C366.444 138.373 370.186 133.334 370.186 127.146C370.186 126.913 370.164 126.738 370.132 126.505C370.132 125.995 370.078 125.427 370.024 124.918C370.024 124.845 369.992 124.801 369.992 124.728C369.938 124.393 369.884 124.058 369.808 123.767L354.548 65.3874C352.596 57.9025 349.728 51 343.893 51H100.252C70.5624 51 62.8839 72.8141 60.4898 80.0078L39.2553 143.834C35.869 151.843 33.917 161.032 33.917 170.905C33.917 186.035 38.5112 199.825 45.92 209.771C53.3289 219.746 63.5418 225.935 74.7791 225.935H359.013C369.248 225.935 378.587 231.571 385.36 240.701C392.132 249.817 396.317 262.355 396.317 276.189C396.317 289.994 392.132 302.561 385.36 311.677C378.587 320.808 369.248 326.443 359.013 326.443H20.0914L22.2698 318.172H357.795C357.849 318.172 357.935 318.172 357.989 318.172C358.043 318.172 358.129 318.172 358.183 318.172C375.233 318.172 389.102 299.489 389.102 276.568C389.102 253.603 375.233 234.92 358.183 234.92C353.589 234.92 349.846 239.915 349.846 246.147C349.846 252.351 353.556 257.389 358.183 257.389C366.034 257.389 372.418 265.996 372.418 276.568C372.418 287.125 366.034 295.732 358.183 295.732C358.097 295.732 358.043 295.732 357.967 295.732C357.881 295.732 357.827 295.732 357.741 295.732H16.457C16.4355 295.732 16.4031 295.732 16.3815 295.732C12.9413 295.703 9.68441 298.586 8.47655 303.231L0.46373 333.972C0.409806 334.234 0.377457 334.496 0.323532 334.758C0.269611 335.079 0.183334 335.414 0.129413 335.792C0.0754916 336.229 0.0539221 336.68 0.0539221 337.132C0.0539221 337.307 0 337.54 0 337.714C0 337.831 0.0215688 337.904 0.0215688 337.976C0.0215688 338.428 0.0754916 338.908 0.129413 339.345C0.161767 339.651 0.183334 339.942 0.248042 340.204C0.32353 340.612 0.409806 340.976 0.517652 341.384C0.603927 341.69 0.657848 341.981 0.765694 342.287C0.873536 342.651 1.04609 342.986 1.20785 343.321C1.3157 343.583 1.42354 343.874 1.56374 344.136C1.72551 344.471 1.95198 344.762 2.1461 345.068C2.2863 345.287 2.44806 345.549 2.60983 345.767C2.8363 346.029 3.05199 346.291 3.30003 346.539C3.49415 346.728 3.68827 346.947 3.90396 347.136C4.13043 347.325 4.37847 347.471 4.59416 347.66C4.8422 347.85 5.11181 348.024 5.39221 348.17C5.47848 348.214 5.5324 348.286 5.6079 348.33C5.85594 348.432 6.08241 348.476 6.2981 348.592C6.47065 348.665 6.63242 348.738 6.82654 348.767C7.34419 348.913 7.87263 349 8.36871 349H359.013C373.874 349 387.365 340.802 397.147 327.637C406.918 314.459 413 296.3 413 276.262C412.978 256.195 406.896 238.036 397.115 224.858Z" fill="#222FE6"/>
</svg>
