<svg width="179" height="42" viewBox="0 0 179 42" fill="none" xmlns="http://www.w3.org/2000/svg">
<path d="M67.9538 15.9385C67.3692 15.9385 66.8846 16.1 66.5077 16.4154C66.1384 16.7231 65.9538 17.1693 65.9538 17.7539C65.9538 18.3385 66.1269 18.8116 66.4769 19.1692C66.823 19.5308 67.2769 19.8077 67.8307 20C68.3923 20.1846 69.0192 20.3654 69.7076 20.5385C70.3922 20.7154 71.0769 20.9231 71.7538 21.1692C72.4307 21.4154 73.0461 21.7231 73.5999 22.0923C74.1614 22.4615 74.6191 22.9808 74.9691 23.6461C75.3153 24.3154 75.4922 25.1192 75.4922 26.0615C75.4922 27.6923 74.823 29.0923 73.4922 30.2615C72.1692 31.423 70.4192 31.9999 68.2461 31.9999C66.0692 31.9999 64.3154 31.4769 62.9846 30.4307C61.6615 29.3846 61 27.9 61 25.9692H66C66.1307 27.5077 66.923 28.2769 68.3692 28.2769C69.0461 28.2769 69.573 28.1038 69.9538 27.7538C70.3422 27.3961 70.5384 26.9384 70.5384 26.3846C70.5384 25.8307 70.3615 25.3807 70.0153 25.0307C69.6653 24.6846 69.2076 24.4115 68.6461 24.2154C68.0923 24.0115 67.4692 23.8231 66.7846 23.6461C66.0961 23.4731 65.4154 23.2577 64.7384 23C64.0615 22.7461 63.4384 22.4385 62.8769 22.0769C62.3231 21.7192 61.8692 21.2077 61.5231 20.5385C61.1731 19.8731 61 19.0846 61 18.1693C61 16.377 61.6654 14.9385 63 13.8616C64.3423 12.777 66.0538 12.2308 68.1384 12.2308C70.2192 12.2308 71.8999 12.7039 73.1845 13.6462C74.4653 14.5924 75.1307 16.077 75.1845 18.1077H70.0769C70.0038 17.4116 69.7769 16.877 69.3999 16.5077C69.0307 16.1308 68.5461 15.9385 67.9538 15.9385Z" fill="#070F18"/>
<path d="M87.8533 26.9384C88.5379 26.2731 88.8841 25.3346 88.8841 24.1231C88.8841 22.9154 88.5379 21.9846 87.8533 21.3385C87.1764 20.6923 86.3956 20.3693 85.5149 20.3693C84.6418 20.3693 83.8687 20.7 83.1918 21.3539C82.5149 22.0115 82.1764 22.9462 82.1764 24.1538C82.1764 25.3654 82.5149 26.3 83.1918 26.9538C83.8687 27.6 84.6418 27.923 85.5149 27.923C86.3956 27.923 87.1764 27.5961 87.8533 26.9384ZM79.4226 29.8C78.0688 28.3346 77.3918 26.4577 77.3918 24.1692C77.3918 21.8731 78.0688 19.9846 79.4226 18.5077C80.7764 17.0308 82.4264 16.2924 84.3764 16.2924C86.3341 16.2924 87.8379 17.0154 88.8841 18.4616V16.4616H93.5763V31.7999H88.8841V29.5692C87.7456 31.1923 86.2226 31.9999 84.3149 31.9999C82.4072 31.9999 80.7764 31.2692 79.4226 29.8Z" fill="#070F18"/>
<path d="M95.0625 16.4617H100.062L103.555 27.8616L107.047 16.4617H112.062L106.616 31.8H100.509L95.0625 16.4617Z" fill="#070F18"/>
<path d="M120.061 31.9999C117.823 31.9999 115.988 31.2846 114.554 29.8461C113.127 28.4 112.415 26.4884 112.415 24.1077C112.415 21.7192 113.123 19.8231 114.538 18.4154C115.961 17 117.8 16.2924 120.046 16.2924C122.3 16.2924 124.173 16.9924 125.661 18.3847C127.146 19.7808 127.892 21.7154 127.892 24.1846C127.892 24.7192 127.854 25.2115 127.784 25.6615H117.215C117.308 26.35 117.608 26.9077 118.123 27.3384C118.634 27.7692 119.188 27.9846 119.784 27.9846C120.388 27.9846 120.834 27.923 121.123 27.8C121.419 27.6769 121.634 27.5615 121.769 27.4461C121.911 27.3231 122.092 27.1231 122.308 26.8461H127.4C126.957 28.3846 126.077 29.6307 124.754 30.5846C123.431 31.5307 121.865 31.9999 120.061 31.9999ZM123 22.7231C122.927 22.0154 122.615 21.4385 122.061 20.9846C121.508 20.5346 120.854 20.3077 120.108 20.3077C119.358 20.3077 118.727 20.5346 118.215 20.9846C117.7 21.4385 117.377 22.0154 117.246 22.7231H123Z" fill="#070F18"/>
<path d="M130.226 12.5078H134.933V28.2308H140.779V31.8H130.226V12.5078Z" fill="#070F18"/>
<path d="M146.999 14.723C146.464 15.2577 145.814 15.523 145.045 15.523C144.276 15.523 143.622 15.2577 143.091 14.723C142.556 14.1923 142.291 13.5384 142.291 12.7692C142.291 11.9923 142.556 11.3346 143.091 10.8C143.622 10.2692 144.276 10 145.045 10C145.814 10 146.464 10.2692 146.999 10.8C147.529 11.3346 147.799 11.9923 147.799 12.7692C147.799 13.5384 147.529 14.1923 146.999 14.723ZM142.706 31.7999V16.4615H147.414V31.7999H142.706Z" fill="#070F18"/>
<path d="M161.228 26.9539C161.913 26.3 162.259 25.3654 162.259 24.1539C162.259 22.9462 161.913 22.0116 161.228 21.3539C160.551 20.7001 159.771 20.3693 158.89 20.3693C158.017 20.3693 157.244 20.6924 156.567 21.3385C155.89 21.9847 155.551 22.9154 155.551 24.1231C155.551 25.3347 155.89 26.2731 156.567 26.9385C157.244 27.5962 158.017 27.9231 158.89 27.9231C159.771 27.9231 160.551 27.6 161.228 26.9539ZM155.551 18.4616C156.586 17.0155 158.078 16.2924 160.028 16.2924C161.986 16.2924 163.644 17.0309 164.997 18.5078C166.359 19.9847 167.044 21.8731 167.044 24.1693C167.044 26.4577 166.359 28.3346 164.997 29.8C163.644 31.2692 162.001 32 160.074 32C158.155 32 156.648 31.1923 155.551 29.5692V31.8H150.844V11.4617H155.551V18.4616Z" fill="#070F18"/>
<path d="M38 4H10C4.47715 4 0 8.47715 0 14V28C0 33.5228 4.47715 38 10 38H38C43.5228 38 48 33.5228 48 28V14C48 8.47715 43.5228 4 38 4Z" fill="#F5F6FB"/>
<path d="M15 27C18.3137 27 21 24.3137 21 21C21 17.6863 18.3137 15 15 15C11.6863 15 9 17.6863 9 21C9 24.3137 11.6863 27 15 27Z" fill="#222FE6"/>
<path d="M33 27C36.3137 27 39 24.3137 39 21C39 17.6863 36.3137 15 33 15C29.6863 15 27 17.6863 27 21C27 24.3137 29.6863 27 33 27Z" fill="#222FE6"/>
</svg>
